ISO-10303-21;
HEADER;
/* Generated by software containing ST-Developer
 * from STEP Tools, Inc. (www.steptools.com) 
 */
/* OPTION: using custom renumber hook */

FILE_DESCRIPTION(
/* description */ ('STEP AP242 Edition 2',
'CAx-IF Rec.Pracs.---Representation and Presentation of Product Manufa
cturing Information (PMI)---4.0---2014-10-13',
'CAx-IF Rec.Pracs.---3D Tessellated Geometry---0.4---2014-09-14','2;1',
'CAx-IF Rec.Pracs.---User Defined Attributes---1.5---2016-08-15'),
/* implementation_level */ '2;1');

FILE_NAME(
/* name */ '6a71ef1c9e1a484049944423',
/* time_stamp */ '2026-08-04T13:54:38Z',
/* author */ (''),
/* organization */ (''),
/* preprocessor_version */ 'ST-DEVELOPER v20',
/* originating_system */ 'ONSHAPE BY PTC INC, 1.218',
/* authorisation */ '  ');

FILE_SCHEMA (('AP242_MANAGED_MODEL_BASED_3D_ENGINEERING_MIM_LF { 1 0 10303 442 3 1 4 }'));
ENDSEC;

DATA;
#10=OVER_RIDING_STYLED_ITEM('',(#897),#828,#886);
#11=OVER_RIDING_STYLED_ITEM('',(#898),#829,#886);
#12=OVER_RIDING_STYLED_ITEM('',(#899),#830,#886);
#13=OVER_RIDING_STYLED_ITEM('',(#900),#831,#886);
#14=OVER_RIDING_STYLED_ITEM('',(#901),#832,#886);
#15=OVER_RIDING_STYLED_ITEM('',(#902),#833,#886);
#16=OVER_RIDING_STYLED_ITEM('',(#909),#855,#892);
#17=OVER_RIDING_STYLED_ITEM('',(#910),#856,#892);
#18=OVER_RIDING_STYLED_ITEM('',(#911),#857,#892);
#19=OVER_RIDING_STYLED_ITEM('',(#912),#858,#892);
#20=OVER_RIDING_STYLED_ITEM('',(#913),#859,#892);
#21=OVER_RIDING_STYLED_ITEM('',(#914),#860,#892);
#22=OVER_RIDING_STYLED_ITEM('',(#916),#867,#893);
#23=OVER_RIDING_STYLED_ITEM('',(#917),#868,#893);
#24=OVER_RIDING_STYLED_ITEM('',(#918),#869,#893);
#25=OVER_RIDING_STYLED_ITEM('',(#919),#870,#893);
#26=OVER_RIDING_STYLED_ITEM('',(#920),#871,#893);
#27=LINE('',#1436,#111);
#28=LINE('',#1439,#112);
#29=LINE('',#1441,#113);
#30=LINE('',#1443,#114);
#31=LINE('',#1445,#115);
#32=LINE('',#1447,#116);
#33=LINE('',#1449,#117);
#34=LINE('',#1451,#118);
#35=LINE('',#1453,#119);
#36=LINE('',#1455,#120);
#37=LINE('',#1457,#121);
#38=LINE('',#1458,#122);
#39=LINE('',#1463,#123);
#40=LINE('',#1466,#124);
#41=LINE('',#1468,#125);
#42=LINE('',#1470,#126);
#43=LINE('',#1472,#127);
#44=LINE('',#1474,#128);
#45=LINE('',#1476,#129);
#46=LINE('',#1478,#130);
#47=LINE('',#1480,#131);
#48=LINE('',#1482,#132);
#49=LINE('',#1484,#133);
#50=LINE('',#1485,#134);
#51=LINE('',#1499,#135);
#52=LINE('',#1502,#136);
#53=LINE('',#1504,#137);
#54=LINE('',#1506,#138);
#55=LINE('',#1508,#139);
#56=LINE('',#1510,#140);
#57=LINE('',#1512,#141);
#58=LINE('',#1514,#142);
#59=LINE('',#1516,#143);
#60=LINE('',#1518,#144);
#61=LINE('',#1520,#145);
#62=LINE('',#1521,#146);
#63=LINE('',#1536,#147);
#64=LINE('',#1539,#148);
#65=LINE('',#1541,#149);
#66=LINE('',#1543,#150);
#67=LINE('',#1545,#151);
#68=LINE('',#1547,#152);
#69=LINE('',#1549,#153);
#70=LINE('',#1551,#154);
#71=LINE('',#1553,#155);
#72=LINE('',#1555,#156);
#73=LINE('',#1557,#157);
#74=LINE('',#1558,#158);
#75=LINE('',#1572,#159);
#76=LINE('',#1575,#160);
#77=LINE('',#1577,#161);
#78=LINE('',#1579,#162);
#79=LINE('',#1581,#163);
#80=LINE('',#1583,#164);
#81=LINE('',#1585,#165);
#82=LINE('',#1587,#166);
#83=LINE('',#1589,#167);
#84=LINE('',#1591,#168);
#85=LINE('',#1593,#169);
#86=LINE('',#1594,#170);
#87=LINE('',#1600,#171);
#88=LINE('',#1603,#172);
#89=LINE('',#1605,#173);
#90=LINE('',#1607,#174);
#91=LINE('',#1608,#175);
#92=LINE('',#1611,#176);
#93=LINE('',#1613,#177);
#94=LINE('',#1615,#178);
#95=LINE('',#1617,#179);
#96=LINE('',#1620,#180);
#97=LINE('',#1621,#181);
#98=LINE('',#1623,#182);
#99=LINE('',#1625,#183);
#100=LINE('',#1627,#184);
#101=LINE('',#1629,#185);
#102=LINE('',#1631,#186);
#103=LINE('',#1634,#187);
#104=LINE('',#1636,#188);
#105=LINE('',#1638,#189);
#106=LINE('',#1642,#190);
#107=LINE('',#1644,#191);
#108=LINE('',#1646,#192);
#109=LINE('',#1648,#193);
#110=LINE('',#1650,#194);
#111=VECTOR('',#1194,1.);
#112=VECTOR('',#1195,1.);
#113=VECTOR('',#1196,1.);
#114=VECTOR('',#1197,1.);
#115=VECTOR('',#1200,1.);
#116=VECTOR('',#1201,1.);
#117=VECTOR('',#1202,1.);
#118=VECTOR('',#1205,1.);
#119=VECTOR('',#1206,1.);
#120=VECTOR('',#1207,1.);
#121=VECTOR('',#1210,1.);
#122=VECTOR('',#1211,1.);
#123=VECTOR('',#1220,1.);
#124=VECTOR('',#1221,1.);
#125=VECTOR('',#1222,1.);
#126=VECTOR('',#1223,1.);
#127=VECTOR('',#1226,1.);
#128=VECTOR('',#1227,1.);
#129=VECTOR('',#1228,1.);
#130=VECTOR('',#1231,1.);
#131=VECTOR('',#1232,1.);
#132=VECTOR('',#1233,1.);
#133=VECTOR('',#1236,1.);
#134=VECTOR('',#1237,1.);
#135=VECTOR('',#1260,1.);
#136=VECTOR('',#1261,1.);
#137=VECTOR('',#1262,1.);
#138=VECTOR('',#1263,1.);
#139=VECTOR('',#1266,1.);
#140=VECTOR('',#1267,1.);
#141=VECTOR('',#1268,1.);
#142=VECTOR('',#1271,1.);
#143=VECTOR('',#1272,1.);
#144=VECTOR('',#1273,1.);
#145=VECTOR('',#1276,1.);
#146=VECTOR('',#1277,1.);
#147=VECTOR('',#1302,1.);
#148=VECTOR('',#1303,1.);
#149=VECTOR('',#1304,1.);
#150=VECTOR('',#1305,1.);
#151=VECTOR('',#1308,1.);
#152=VECTOR('',#1309,1.);
#153=VECTOR('',#1310,1.);
#154=VECTOR('',#1313,1.);
#155=VECTOR('',#1314,1.);
#156=VECTOR('',#1315,1.);
#157=VECTOR('',#1318,1.);
#158=VECTOR('',#1319,1.);
#159=VECTOR('',#1342,1.);
#160=VECTOR('',#1343,1.);
#161=VECTOR('',#1344,1.);
#162=VECTOR('',#1345,1.);
#163=VECTOR('',#1348,1.);
#164=VECTOR('',#1349,1.);
#165=VECTOR('',#1350,1.);
#166=VECTOR('',#1353,1.);
#167=VECTOR('',#1354,1.);
#168=VECTOR('',#1355,1.);
#169=VECTOR('',#1358,1.);
#170=VECTOR('',#1359,1.);
#171=VECTOR('',#1370,1.);
#172=VECTOR('',#1371,1.);
#173=VECTOR('',#1372,1.);
#174=VECTOR('',#1373,1.);
#175=VECTOR('',#1374,1.);
#176=VECTOR('',#1375,1.);
#177=VECTOR('',#1376,1.);
#178=VECTOR('',#1377,1.);
#179=VECTOR('',#1380,1.);
#180=VECTOR('',#1381,1.);
#181=VECTOR('',#1382,1.);
#182=VECTOR('',#1385,1.);
#183=VECTOR('',#1386,1.);
#184=VECTOR('',#1389,1.);
#185=VECTOR('',#1390,1.);
#186=VECTOR('',#1393,1.);
#187=VECTOR('',#1398,1.);
#188=VECTOR('',#1399,1.);
#189=VECTOR('',#1400,1.);
#190=VECTOR('',#1405,1.);
#191=VECTOR('',#1406,1.);
#192=VECTOR('',#1409,1.);
#193=VECTOR('',#1410,1.);
#194=VECTOR('',#1413,1.);
#195=DRAUGHTING_PRE_DEFINED_COLOUR('blue');
#196=DRAUGHTING_PRE_DEFINED_COLOUR('red');
#197=DRAUGHTING_PRE_DEFINED_COLOUR('black');
#198=CONTEXT_DEPENDENT_SHAPE_REPRESENTATION(#230,#1686);
#199=CONTEXT_DEPENDENT_SHAPE_REPRESENTATION(#231,#1688);
#200=CONTEXT_DEPENDENT_SHAPE_REPRESENTATION(#232,#1690);
#201=CONTEXT_DEPENDENT_SHAPE_REPRESENTATION(#233,#1692);
#202=CONTEXT_DEPENDENT_SHAPE_REPRESENTATION(#234,#1693);
#203=CONTEXT_DEPENDENT_SHAPE_REPRESENTATION(#235,#1695);
#204=CONTEXT_DEPENDENT_SHAPE_REPRESENTATION(#236,#1696);
#205=CONTEXT_DEPENDENT_SHAPE_REPRESENTATION(#237,#1698);
#206=CONTEXT_DEPENDENT_SHAPE_REPRESENTATION(#238,#1699);
#207=CONTEXT_DEPENDENT_SHAPE_REPRESENTATION(#239,#1701);
#208=CONTEXT_DEPENDENT_SHAPE_REPRESENTATION(#240,#1703);
#209=CONTEXT_DEPENDENT_SHAPE_REPRESENTATION(#241,#1704);
#210=CONTEXT_DEPENDENT_SHAPE_REPRESENTATION(#242,#1706);
#211=CONTEXT_DEPENDENT_SHAPE_REPRESENTATION(#243,#1707);
#212=CONTEXT_DEPENDENT_SHAPE_REPRESENTATION(#244,#1709);
#213=CONTEXT_DEPENDENT_SHAPE_REPRESENTATION(#245,#1710);
#214=NEXT_ASSEMBLY_USAGE_OCCURRENCE('NAUO1','Part 6','Part 6',#1711,#1712,
'');
#215=NEXT_ASSEMBLY_USAGE_OCCURRENCE('NAUO2','Part 4','Part 4',#1711,#1713,
'');
#216=NEXT_ASSEMBLY_USAGE_OCCURRENCE('NAUO3','Part 5','Part 5',#1711,#1714,
'');
#217=NEXT_ASSEMBLY_USAGE_OCCURRENCE('NAUO4','Part 9','Part 9',#1711,#1715,
'');
#218=NEXT_ASSEMBLY_USAGE_OCCURRENCE('NAUO5','Part 9','Part 9',#1711,#1715,
'');
#219=NEXT_ASSEMBLY_USAGE_OCCURRENCE('NAUO6','Part 3','Part 3',#1711,#1716,
'');
#220=NEXT_ASSEMBLY_USAGE_OCCURRENCE('NAUO7','Part 9','Part 9',#1711,#1715,
'');
#221=NEXT_ASSEMBLY_USAGE_OCCURRENCE('NAUO8','Part 1','Part 1',#1711,#1717,
'');
#222=NEXT_ASSEMBLY_USAGE_OCCURRENCE('NAUO9','Part 1','Part 1',#1711,#1717,
'');
#223=NEXT_ASSEMBLY_USAGE_OCCURRENCE('NAUO10','Part 2','Part 2',#1711,#1718,
'');
#224=NEXT_ASSEMBLY_USAGE_OCCURRENCE('NAUO11','Part 7','Part 7',#1711,#1719,
'');
#225=NEXT_ASSEMBLY_USAGE_OCCURRENCE('NAUO12','Part 9','Part 9',#1711,#1715,
'');
#226=NEXT_ASSEMBLY_USAGE_OCCURRENCE('NAUO13','Part 8','Part 8',#1711,#1720,
'');
#227=NEXT_ASSEMBLY_USAGE_OCCURRENCE('NAUO14','Part 1','Part 1',#1711,#1717,
'');
#228=NEXT_ASSEMBLY_USAGE_OCCURRENCE('NAUO15','Part 1','Part 1',#1711,#1721,
'');
#229=NEXT_ASSEMBLY_USAGE_OCCURRENCE('NAUO16','Part 1','Part 1',#1711,#1717,
'');
#230=(
REPRESENTATION_RELATIONSHIP(' ',' ',#1086,#1085)
REPRESENTATION_RELATIONSHIP_WITH_TRANSFORMATION(#246)
SHAPE_REPRESENTATION_RELATIONSHIP()
);
#231=(
REPRESENTATION_RELATIONSHIP(' ',' ',#1087,#1085)
REPRESENTATION_RELATIONSHIP_WITH_TRANSFORMATION(#247)
SHAPE_REPRESENTATION_RELATIONSHIP()
);
#232=(
REPRESENTATION_RELATIONSHIP(' ',' ',#1088,#1085)
REPRESENTATION_RELATIONSHIP_WITH_TRANSFORMATION(#248)
SHAPE_REPRESENTATION_RELATIONSHIP()
);
#233=(
REPRESENTATION_RELATIONSHIP(' ',' ',#1089,#1085)
REPRESENTATION_RELATIONSHIP_WITH_TRANSFORMATION(#249)
SHAPE_REPRESENTATION_RELATIONSHIP()
);
#234=(
REPRESENTATION_RELATIONSHIP(' ',' ',#1089,#1085)
REPRESENTATION_RELATIONSHIP_WITH_TRANSFORMATION(#250)
SHAPE_REPRESENTATION_RELATIONSHIP()
);
#235=(
REPRESENTATION_RELATIONSHIP(' ',' ',#1090,#1085)
REPRESENTATION_RELATIONSHIP_WITH_TRANSFORMATION(#251)
SHAPE_REPRESENTATION_RELATIONSHIP()
);
#236=(
REPRESENTATION_RELATIONSHIP(' ',' ',#1089,#1085)
REPRESENTATION_RELATIONSHIP_WITH_TRANSFORMATION(#252)
SHAPE_REPRESENTATION_RELATIONSHIP()
);
#237=(
REPRESENTATION_RELATIONSHIP(' ',' ',#1091,#1085)
REPRESENTATION_RELATIONSHIP_WITH_TRANSFORMATION(#253)
SHAPE_REPRESENTATION_RELATIONSHIP()
);
#238=(
REPRESENTATION_RELATIONSHIP(' ',' ',#1091,#1085)
REPRESENTATION_RELATIONSHIP_WITH_TRANSFORMATION(#254)
SHAPE_REPRESENTATION_RELATIONSHIP()
);
#239=(
REPRESENTATION_RELATIONSHIP(' ',' ',#1092,#1085)
REPRESENTATION_RELATIONSHIP_WITH_TRANSFORMATION(#255)
SHAPE_REPRESENTATION_RELATIONSHIP()
);
#240=(
REPRESENTATION_RELATIONSHIP(' ',' ',#1093,#1085)
REPRESENTATION_RELATIONSHIP_WITH_TRANSFORMATION(#256)
SHAPE_REPRESENTATION_RELATIONSHIP()
);
#241=(
REPRESENTATION_RELATIONSHIP(' ',' ',#1089,#1085)
REPRESENTATION_RELATIONSHIP_WITH_TRANSFORMATION(#257)
SHAPE_REPRESENTATION_RELATIONSHIP()
);
#242=(
REPRESENTATION_RELATIONSHIP(' ',' ',#1094,#1085)
REPRESENTATION_RELATIONSHIP_WITH_TRANSFORMATION(#258)
SHAPE_REPRESENTATION_RELATIONSHIP()
);
#243=(
REPRESENTATION_RELATIONSHIP(' ',' ',#1091,#1085)
REPRESENTATION_RELATIONSHIP_WITH_TRANSFORMATION(#259)
SHAPE_REPRESENTATION_RELATIONSHIP()
);
#244=(
REPRESENTATION_RELATIONSHIP(' ',' ',#1095,#1085)
REPRESENTATION_RELATIONSHIP_WITH_TRANSFORMATION(#260)
SHAPE_REPRESENTATION_RELATIONSHIP()
);
#245=(
REPRESENTATION_RELATIONSHIP(' ',' ',#1091,#1085)
REPRESENTATION_RELATIONSHIP_WITH_TRANSFORMATION(#261)
SHAPE_REPRESENTATION_RELATIONSHIP()
);
#246=ITEM_DEFINED_TRANSFORMATION(' ',' ',#1096,#1102);
#247=ITEM_DEFINED_TRANSFORMATION(' ',' ',#1096,#1109);
#248=ITEM_DEFINED_TRANSFORMATION(' ',' ',#1096,#1116);
#249=ITEM_DEFINED_TRANSFORMATION(' ',' ',#1096,#1122);
#250=ITEM_DEFINED_TRANSFORMATION(' ',' ',#1096,#1123);
#251=ITEM_DEFINED_TRANSFORMATION(' ',' ',#1096,#1130);
#252=ITEM_DEFINED_TRANSFORMATION(' ',' ',#1096,#1131);
#253=ITEM_DEFINED_TRANSFORMATION(' ',' ',#1096,#1137);
#254=ITEM_DEFINED_TRANSFORMATION(' ',' ',#1096,#1138);
#255=ITEM_DEFINED_TRANSFORMATION(' ',' ',#1096,#1145);
#256=ITEM_DEFINED_TRANSFORMATION(' ',' ',#1096,#1151);
#257=ITEM_DEFINED_TRANSFORMATION(' ',' ',#1096,#1152);
#258=ITEM_DEFINED_TRANSFORMATION(' ',' ',#1096,#1159);
#259=ITEM_DEFINED_TRANSFORMATION(' ',' ',#1096,#1160);
#260=ITEM_DEFINED_TRANSFORMATION(' ',' ',#1096,#1176);
#261=ITEM_DEFINED_TRANSFORMATION(' ',' ',#1096,#1177);
#262=SHAPE_REPRESENTATION_RELATIONSHIP('','',#1086,#272);
#263=SHAPE_REPRESENTATION_RELATIONSHIP('','',#1087,#273);
#264=SHAPE_REPRESENTATION_RELATIONSHIP('','',#1088,#274);
#265=SHAPE_REPRESENTATION_RELATIONSHIP('','',#1089,#275);
#266=SHAPE_REPRESENTATION_RELATIONSHIP('','',#1090,#276);
#267=SHAPE_REPRESENTATION_RELATIONSHIP('','',#1091,#277);
#268=SHAPE_REPRESENTATION_RELATIONSHIP('','',#1092,#278);
#269=SHAPE_REPRESENTATION_RELATIONSHIP('','',#1093,#279);
#270=SHAPE_REPRESENTATION_RELATIONSHIP('','',#1094,#280);
#271=SHAPE_REPRESENTATION_RELATIONSHIP('','',#1095,#281);
#272=ADVANCED_BREP_SHAPE_REPRESENTATION('',(#1064),#1660);
#273=ADVANCED_BREP_SHAPE_REPRESENTATION('',(#1065),#1661);
#274=ADVANCED_BREP_SHAPE_REPRESENTATION('',(#1066),#1662);
#275=ADVANCED_BREP_SHAPE_REPRESENTATION('',(#1067),#1663);
#276=ADVANCED_BREP_SHAPE_REPRESENTATION('',(#1068),#1664);
#277=ADVANCED_BREP_SHAPE_REPRESENTATION('',(#1069),#1665);
#278=ADVANCED_BREP_SHAPE_REPRESENTATION('',(#1070),#1666);
#279=ADVANCED_BREP_SHAPE_REPRESENTATION('',(#1071),#1667);
#280=ADVANCED_BREP_SHAPE_REPRESENTATION('',(#1072),#1668);
#281=ADVANCED_BREP_SHAPE_REPRESENTATION('',(#1073),#1669);
#282=PLANE('',#1100);
#283=PLANE('',#1101);
#284=PLANE('',#1103);
#285=PLANE('',#1104);
#286=PLANE('',#1105);
#287=PLANE('',#1106);
#288=PLANE('',#1107);
#289=PLANE('',#1108);
#290=PLANE('',#1110);
#291=PLANE('',#1111);
#292=PLANE('',#1112);
#293=PLANE('',#1113);
#294=PLANE('',#1114);
#295=PLANE('',#1115);
#296=PLANE('',#1120);
#297=PLANE('',#1121);
#298=PLANE('',#1124);
#299=PLANE('',#1125);
#300=PLANE('',#1126);
#301=PLANE('',#1127);
#302=PLANE('',#1128);
#303=PLANE('',#1129);
#304=PLANE('',#1135);
#305=PLANE('',#1136);
#306=PLANE('',#1139);
#307=PLANE('',#1140);
#308=PLANE('',#1141);
#309=PLANE('',#1142);
#310=PLANE('',#1143);
#311=PLANE('',#1144);
#312=PLANE('',#1149);
#313=PLANE('',#1150);
#314=PLANE('',#1153);
#315=PLANE('',#1154);
#316=PLANE('',#1155);
#317=PLANE('',#1156);
#318=PLANE('',#1157);
#319=PLANE('',#1158);
#320=PLANE('',#1161);
#321=PLANE('',#1162);
#322=PLANE('',#1163);
#323=PLANE('',#1164);
#324=PLANE('',#1165);
#325=PLANE('',#1166);
#326=PLANE('',#1167);
#327=PLANE('',#1168);
#328=PLANE('',#1170);
#329=PLANE('',#1171);
#330=PLANE('',#1172);
#331=PLANE('',#1175);
#332=ORIENTED_EDGE('',*,*,#520,.F.);
#333=ORIENTED_EDGE('',*,*,#521,.T.);
#334=ORIENTED_EDGE('',*,*,#520,.T.);
#335=ORIENTED_EDGE('',*,*,#521,.F.);
#336=ORIENTED_EDGE('',*,*,#522,.T.);
#337=ORIENTED_EDGE('',*,*,#523,.F.);
#338=ORIENTED_EDGE('',*,*,#524,.F.);
#339=ORIENTED_EDGE('',*,*,#525,.T.);
#340=ORIENTED_EDGE('',*,*,#526,.F.);
#341=ORIENTED_EDGE('',*,*,#525,.F.);
#342=ORIENTED_EDGE('',*,*,#527,.T.);
#343=ORIENTED_EDGE('',*,*,#528,.T.);
#344=ORIENTED_EDGE('',*,*,#529,.F.);
#345=ORIENTED_EDGE('',*,*,#528,.F.);
#346=ORIENTED_EDGE('',*,*,#530,.T.);
#347=ORIENTED_EDGE('',*,*,#531,.T.);
#348=ORIENTED_EDGE('',*,*,#532,.T.);
#349=ORIENTED_EDGE('',*,*,#531,.F.);
#350=ORIENTED_EDGE('',*,*,#533,.F.);
#351=ORIENTED_EDGE('',*,*,#523,.T.);
#352=ORIENTED_EDGE('',*,*,#524,.T.);
#353=ORIENTED_EDGE('',*,*,#533,.T.);
#354=ORIENTED_EDGE('',*,*,#530,.F.);
#355=ORIENTED_EDGE('',*,*,#527,.F.);
#356=ORIENTED_EDGE('',*,*,#522,.F.);
#357=ORIENTED_EDGE('',*,*,#526,.T.);
#358=ORIENTED_EDGE('',*,*,#529,.T.);
#359=ORIENTED_EDGE('',*,*,#532,.F.);
#360=ORIENTED_EDGE('',*,*,#534,.F.);
#361=ORIENTED_EDGE('',*,*,#535,.F.);
#362=ORIENTED_EDGE('',*,*,#536,.T.);
#363=ORIENTED_EDGE('',*,*,#537,.T.);
#364=ORIENTED_EDGE('',*,*,#538,.T.);
#365=ORIENTED_EDGE('',*,*,#539,.F.);
#366=ORIENTED_EDGE('',*,*,#540,.F.);
#367=ORIENTED_EDGE('',*,*,#535,.T.);
#368=ORIENTED_EDGE('',*,*,#541,.T.);
#369=ORIENTED_EDGE('',*,*,#542,.F.);
#370=ORIENTED_EDGE('',*,*,#543,.F.);
#371=ORIENTED_EDGE('',*,*,#539,.T.);
#372=ORIENTED_EDGE('',*,*,#544,.F.);
#373=ORIENTED_EDGE('',*,*,#537,.F.);
#374=ORIENTED_EDGE('',*,*,#545,.T.);
#375=ORIENTED_EDGE('',*,*,#542,.T.);
#376=ORIENTED_EDGE('',*,*,#536,.F.);
#377=ORIENTED_EDGE('',*,*,#540,.T.);
#378=ORIENTED_EDGE('',*,*,#543,.T.);
#379=ORIENTED_EDGE('',*,*,#545,.F.);
#380=ORIENTED_EDGE('',*,*,#534,.T.);
#381=ORIENTED_EDGE('',*,*,#544,.T.);
#382=ORIENTED_EDGE('',*,*,#541,.F.);
#383=ORIENTED_EDGE('',*,*,#538,.F.);
#384=ORIENTED_EDGE('',*,*,#546,.F.);
#385=ORIENTED_EDGE('',*,*,#547,.T.);
#386=ORIENTED_EDGE('',*,*,#546,.T.);
#387=ORIENTED_EDGE('',*,*,#547,.F.);
#388=ORIENTED_EDGE('',*,*,#548,.T.);
#389=ORIENTED_EDGE('',*,*,#549,.F.);
#390=ORIENTED_EDGE('',*,*,#550,.F.);
#391=ORIENTED_EDGE('',*,*,#551,.T.);
#392=ORIENTED_EDGE('',*,*,#552,.F.);
#393=ORIENTED_EDGE('',*,*,#551,.F.);
#394=ORIENTED_EDGE('',*,*,#553,.T.);
#395=ORIENTED_EDGE('',*,*,#554,.T.);
#396=ORIENTED_EDGE('',*,*,#555,.F.);
#397=ORIENTED_EDGE('',*,*,#554,.F.);
#398=ORIENTED_EDGE('',*,*,#556,.T.);
#399=ORIENTED_EDGE('',*,*,#557,.T.);
#400=ORIENTED_EDGE('',*,*,#558,.T.);
#401=ORIENTED_EDGE('',*,*,#557,.F.);
#402=ORIENTED_EDGE('',*,*,#559,.F.);
#403=ORIENTED_EDGE('',*,*,#549,.T.);
#404=ORIENTED_EDGE('',*,*,#550,.T.);
#405=ORIENTED_EDGE('',*,*,#559,.T.);
#406=ORIENTED_EDGE('',*,*,#556,.F.);
#407=ORIENTED_EDGE('',*,*,#553,.F.);
#408=ORIENTED_EDGE('',*,*,#548,.F.);
#409=ORIENTED_EDGE('',*,*,#552,.T.);
#410=ORIENTED_EDGE('',*,*,#555,.T.);
#411=ORIENTED_EDGE('',*,*,#558,.F.);
#412=ORIENTED_EDGE('',*,*,#560,.F.);
#413=ORIENTED_EDGE('',*,*,#561,.T.);
#414=ORIENTED_EDGE('',*,*,#560,.T.);
#415=ORIENTED_EDGE('',*,*,#561,.F.);
#416=ORIENTED_EDGE('',*,*,#562,.T.);
#417=ORIENTED_EDGE('',*,*,#563,.F.);
#418=ORIENTED_EDGE('',*,*,#564,.F.);
#419=ORIENTED_EDGE('',*,*,#565,.T.);
#420=ORIENTED_EDGE('',*,*,#566,.F.);
#421=ORIENTED_EDGE('',*,*,#565,.F.);
#422=ORIENTED_EDGE('',*,*,#567,.T.);
#423=ORIENTED_EDGE('',*,*,#568,.T.);
#424=ORIENTED_EDGE('',*,*,#569,.F.);
#425=ORIENTED_EDGE('',*,*,#568,.F.);
#426=ORIENTED_EDGE('',*,*,#570,.T.);
#427=ORIENTED_EDGE('',*,*,#571,.T.);
#428=ORIENTED_EDGE('',*,*,#572,.T.);
#429=ORIENTED_EDGE('',*,*,#571,.F.);
#430=ORIENTED_EDGE('',*,*,#573,.F.);
#431=ORIENTED_EDGE('',*,*,#563,.T.);
#432=ORIENTED_EDGE('',*,*,#564,.T.);
#433=ORIENTED_EDGE('',*,*,#573,.T.);
#434=ORIENTED_EDGE('',*,*,#570,.F.);
#435=ORIENTED_EDGE('',*,*,#567,.F.);
#436=ORIENTED_EDGE('',*,*,#562,.F.);
#437=ORIENTED_EDGE('',*,*,#566,.T.);
#438=ORIENTED_EDGE('',*,*,#569,.T.);
#439=ORIENTED_EDGE('',*,*,#572,.F.);
#440=ORIENTED_EDGE('',*,*,#574,.F.);
#441=ORIENTED_EDGE('',*,*,#575,.T.);
#442=ORIENTED_EDGE('',*,*,#574,.T.);
#443=ORIENTED_EDGE('',*,*,#575,.F.);
#444=ORIENTED_EDGE('',*,*,#576,.F.);
#445=ORIENTED_EDGE('',*,*,#577,.F.);
#446=ORIENTED_EDGE('',*,*,#578,.T.);
#447=ORIENTED_EDGE('',*,*,#579,.T.);
#448=ORIENTED_EDGE('',*,*,#580,.T.);
#449=ORIENTED_EDGE('',*,*,#581,.F.);
#450=ORIENTED_EDGE('',*,*,#582,.F.);
#451=ORIENTED_EDGE('',*,*,#577,.T.);
#452=ORIENTED_EDGE('',*,*,#583,.T.);
#453=ORIENTED_EDGE('',*,*,#584,.F.);
#454=ORIENTED_EDGE('',*,*,#585,.F.);
#455=ORIENTED_EDGE('',*,*,#581,.T.);
#456=ORIENTED_EDGE('',*,*,#586,.F.);
#457=ORIENTED_EDGE('',*,*,#579,.F.);
#458=ORIENTED_EDGE('',*,*,#587,.T.);
#459=ORIENTED_EDGE('',*,*,#584,.T.);
#460=ORIENTED_EDGE('',*,*,#578,.F.);
#461=ORIENTED_EDGE('',*,*,#582,.T.);
#462=ORIENTED_EDGE('',*,*,#585,.T.);
#463=ORIENTED_EDGE('',*,*,#587,.F.);
#464=ORIENTED_EDGE('',*,*,#576,.T.);
#465=ORIENTED_EDGE('',*,*,#586,.T.);
#466=ORIENTED_EDGE('',*,*,#583,.F.);
#467=ORIENTED_EDGE('',*,*,#580,.F.);
#468=ORIENTED_EDGE('',*,*,#588,.F.);
#469=ORIENTED_EDGE('',*,*,#589,.T.);
#470=ORIENTED_EDGE('',*,*,#590,.T.);
#471=ORIENTED_EDGE('',*,*,#591,.F.);
#472=ORIENTED_EDGE('',*,*,#592,.F.);
#473=ORIENTED_EDGE('',*,*,#593,.T.);
#474=ORIENTED_EDGE('',*,*,#594,.T.);
#475=ORIENTED_EDGE('',*,*,#595,.F.);
#476=ORIENTED_EDGE('',*,*,#596,.F.);
#477=ORIENTED_EDGE('',*,*,#597,.F.);
#478=ORIENTED_EDGE('',*,*,#588,.T.);
#479=ORIENTED_EDGE('',*,*,#598,.T.);
#480=ORIENTED_EDGE('',*,*,#599,.T.);
#481=ORIENTED_EDGE('',*,*,#600,.F.);
#482=ORIENTED_EDGE('',*,*,#589,.F.);
#483=ORIENTED_EDGE('',*,*,#597,.T.);
#484=ORIENTED_EDGE('',*,*,#601,.T.);
#485=ORIENTED_EDGE('',*,*,#602,.F.);
#486=ORIENTED_EDGE('',*,*,#590,.F.);
#487=ORIENTED_EDGE('',*,*,#600,.T.);
#488=ORIENTED_EDGE('',*,*,#603,.F.);
#489=ORIENTED_EDGE('',*,*,#598,.F.);
#490=ORIENTED_EDGE('',*,*,#591,.T.);
#491=ORIENTED_EDGE('',*,*,#602,.T.);
#492=ORIENTED_EDGE('',*,*,#596,.T.);
#493=ORIENTED_EDGE('',*,*,#603,.T.);
#494=ORIENTED_EDGE('',*,*,#601,.F.);
#495=ORIENTED_EDGE('',*,*,#599,.F.);
#496=ORIENTED_EDGE('',*,*,#593,.F.);
#497=ORIENTED_EDGE('',*,*,#604,.F.);
#498=ORIENTED_EDGE('',*,*,#605,.T.);
#499=ORIENTED_EDGE('',*,*,#606,.T.);
#500=ORIENTED_EDGE('',*,*,#607,.F.);
#501=ORIENTED_EDGE('',*,*,#592,.T.);
#502=ORIENTED_EDGE('',*,*,#608,.F.);
#503=ORIENTED_EDGE('',*,*,#609,.F.);
#504=ORIENTED_EDGE('',*,*,#604,.T.);
#505=ORIENTED_EDGE('',*,*,#595,.T.);
#506=ORIENTED_EDGE('',*,*,#610,.F.);
#507=ORIENTED_EDGE('',*,*,#611,.F.);
#508=ORIENTED_EDGE('',*,*,#608,.T.);
#509=ORIENTED_EDGE('',*,*,#594,.F.);
#510=ORIENTED_EDGE('',*,*,#606,.F.);
#511=ORIENTED_EDGE('',*,*,#612,.T.);
#512=ORIENTED_EDGE('',*,*,#610,.T.);
#513=ORIENTED_EDGE('',*,*,#605,.F.);
#514=ORIENTED_EDGE('',*,*,#609,.T.);
#515=ORIENTED_EDGE('',*,*,#611,.T.);
#516=ORIENTED_EDGE('',*,*,#612,.F.);
#517=ORIENTED_EDGE('',*,*,#613,.F.);
#518=ORIENTED_EDGE('',*,*,#607,.T.);
#519=ORIENTED_EDGE('',*,*,#613,.T.);
#520=EDGE_CURVE('',#614,#614,#680,.T.);
#521=EDGE_CURVE('',#615,#615,#681,.T.);
#522=EDGE_CURVE('',#616,#617,#27,.T.);
#523=EDGE_CURVE('',#618,#617,#28,.T.);
#524=EDGE_CURVE('',#619,#618,#29,.T.);
#525=EDGE_CURVE('',#619,#616,#30,.T.);
#526=EDGE_CURVE('',#616,#620,#31,.T.);
#527=EDGE_CURVE('',#619,#621,#32,.T.);
#528=EDGE_CURVE('',#621,#620,#33,.T.);
#529=EDGE_CURVE('',#620,#622,#34,.T.);
#530=EDGE_CURVE('',#621,#623,#35,.T.);
#531=EDGE_CURVE('',#623,#622,#36,.T.);
#532=EDGE_CURVE('',#617,#622,#37,.T.);
#533=EDGE_CURVE('',#618,#623,#38,.T.);
#534=EDGE_CURVE('',#624,#625,#39,.T.);
#535=EDGE_CURVE('',#626,#624,#40,.T.);
#536=EDGE_CURVE('',#626,#627,#41,.T.);
#537=EDGE_CURVE('',#627,#625,#42,.T.);
#538=EDGE_CURVE('',#624,#628,#43,.T.);
#539=EDGE_CURVE('',#629,#628,#44,.T.);
#540=EDGE_CURVE('',#626,#629,#45,.T.);
#541=EDGE_CURVE('',#628,#630,#46,.T.);
#542=EDGE_CURVE('',#631,#630,#47,.T.);
#543=EDGE_CURVE('',#629,#631,#48,.T.);
#544=EDGE_CURVE('',#625,#630,#49,.T.);
#545=EDGE_CURVE('',#627,#631,#50,.T.);
#546=EDGE_CURVE('',#632,#632,#682,.T.);
#547=EDGE_CURVE('',#633,#633,#683,.T.);
#548=EDGE_CURVE('',#634,#635,#51,.T.);
#549=EDGE_CURVE('',#636,#635,#52,.T.);
#550=EDGE_CURVE('',#637,#636,#53,.T.);
#551=EDGE_CURVE('',#637,#634,#54,.T.);
#552=EDGE_CURVE('',#634,#638,#55,.T.);
#553=EDGE_CURVE('',#637,#639,#56,.T.);
#554=EDGE_CURVE('',#639,#638,#57,.T.);
#555=EDGE_CURVE('',#638,#640,#58,.T.);
#556=EDGE_CURVE('',#639,#641,#59,.T.);
#557=EDGE_CURVE('',#641,#640,#60,.T.);
#558=EDGE_CURVE('',#635,#640,#61,.T.);
#559=EDGE_CURVE('',#636,#641,#62,.T.);
#560=EDGE_CURVE('',#642,#642,#684,.T.);
#561=EDGE_CURVE('',#643,#643,#685,.T.);
#562=EDGE_CURVE('',#644,#645,#63,.T.);
#563=EDGE_CURVE('',#646,#645,#64,.T.);
#564=EDGE_CURVE('',#647,#646,#65,.T.);
#565=EDGE_CURVE('',#647,#644,#66,.T.);
#566=EDGE_CURVE('',#644,#648,#67,.T.);
#567=EDGE_CURVE('',#647,#649,#68,.T.);
#568=EDGE_CURVE('',#649,#648,#69,.T.);
#569=EDGE_CURVE('',#648,#650,#70,.T.);
#570=EDGE_CURVE('',#649,#651,#71,.T.);
#571=EDGE_CURVE('',#651,#650,#72,.T.);
#572=EDGE_CURVE('',#645,#650,#73,.T.);
#573=EDGE_CURVE('',#646,#651,#74,.T.);
#574=EDGE_CURVE('',#652,#652,#686,.T.);
#575=EDGE_CURVE('',#653,#653,#687,.T.);
#576=EDGE_CURVE('',#654,#655,#75,.T.);
#577=EDGE_CURVE('',#656,#654,#76,.T.);
#578=EDGE_CURVE('',#656,#657,#77,.T.);
#579=EDGE_CURVE('',#657,#655,#78,.T.);
#580=EDGE_CURVE('',#654,#658,#79,.T.);
#581=EDGE_CURVE('',#659,#658,#80,.T.);
#582=EDGE_CURVE('',#656,#659,#81,.T.);
#583=EDGE_CURVE('',#658,#660,#82,.T.);
#584=EDGE_CURVE('',#661,#660,#83,.T.);
#585=EDGE_CURVE('',#659,#661,#84,.T.);
#586=EDGE_CURVE('',#655,#660,#85,.T.);
#587=EDGE_CURVE('',#657,#661,#86,.T.);
#588=EDGE_CURVE('',#662,#663,#87,.T.);
#589=EDGE_CURVE('',#662,#664,#88,.T.);
#590=EDGE_CURVE('',#664,#665,#89,.T.);
#591=EDGE_CURVE('',#663,#665,#90,.T.);
#592=EDGE_CURVE('',#666,#667,#91,.T.);
#593=EDGE_CURVE('',#666,#668,#92,.T.);
#594=EDGE_CURVE('',#668,#669,#93,.T.);
#595=EDGE_CURVE('',#667,#669,#94,.T.);
#596=EDGE_CURVE('',#670,#671,#95,.T.);
#597=EDGE_CURVE('',#662,#670,#96,.T.);
#598=EDGE_CURVE('',#663,#671,#97,.T.);
#599=EDGE_CURVE('',#670,#672,#98,.T.);
#600=EDGE_CURVE('',#664,#672,#99,.T.);
#601=EDGE_CURVE('',#672,#673,#100,.T.);
#602=EDGE_CURVE('',#665,#673,#101,.T.);
#603=EDGE_CURVE('',#671,#673,#102,.T.);
#604=EDGE_CURVE('',#674,#666,#103,.T.);
#605=EDGE_CURVE('',#674,#675,#104,.T.);
#606=EDGE_CURVE('',#675,#668,#105,.T.);
#607=EDGE_CURVE('',#676,#676,#688,.F.);
#608=EDGE_CURVE('',#677,#667,#106,.T.);
#609=EDGE_CURVE('',#674,#677,#107,.T.);
#610=EDGE_CURVE('',#678,#669,#108,.T.);
#611=EDGE_CURVE('',#677,#678,#109,.T.);
#612=EDGE_CURVE('',#675,#678,#110,.T.);
#613=EDGE_CURVE('',#679,#679,#689,.T.);
#614=VERTEX_POINT('',#1429);
#615=VERTEX_POINT('',#1431);
#616=VERTEX_POINT('',#1437);
#617=VERTEX_POINT('',#1438);
#618=VERTEX_POINT('',#1440);
#619=VERTEX_POINT('',#1442);
#620=VERTEX_POINT('',#1446);
#621=VERTEX_POINT('',#1448);
#622=VERTEX_POINT('',#1452);
#623=VERTEX_POINT('',#1454);
#624=VERTEX_POINT('',#1464);
#625=VERTEX_POINT('',#1465);
#626=VERTEX_POINT('',#1467);
#627=VERTEX_POINT('',#1469);
#628=VERTEX_POINT('',#1473);
#629=VERTEX_POINT('',#1475);
#630=VERTEX_POINT('',#1479);
#631=VERTEX_POINT('',#1481);
#632=VERTEX_POINT('',#1491);
#633=VERTEX_POINT('',#1493);
#634=VERTEX_POINT('',#1500);
#635=VERTEX_POINT('',#1501);
#636=VERTEX_POINT('',#1503);
#637=VERTEX_POINT('',#1505);
#638=VERTEX_POINT('',#1509);
#639=VERTEX_POINT('',#1511);
#640=VERTEX_POINT('',#1515);
#641=VERTEX_POINT('',#1517);
#642=VERTEX_POINT('',#1528);
#643=VERTEX_POINT('',#1530);
#644=VERTEX_POINT('',#1537);
#645=VERTEX_POINT('',#1538);
#646=VERTEX_POINT('',#1540);
#647=VERTEX_POINT('',#1542);
#648=VERTEX_POINT('',#1546);
#649=VERTEX_POINT('',#1548);
#650=VERTEX_POINT('',#1552);
#651=VERTEX_POINT('',#1554);
#652=VERTEX_POINT('',#1564);
#653=VERTEX_POINT('',#1566);
#654=VERTEX_POINT('',#1573);
#655=VERTEX_POINT('',#1574);
#656=VERTEX_POINT('',#1576);
#657=VERTEX_POINT('',#1578);
#658=VERTEX_POINT('',#1582);
#659=VERTEX_POINT('',#1584);
#660=VERTEX_POINT('',#1588);
#661=VERTEX_POINT('',#1590);
#662=VERTEX_POINT('',#1601);
#663=VERTEX_POINT('',#1602);
#664=VERTEX_POINT('',#1604);
#665=VERTEX_POINT('',#1606);
#666=VERTEX_POINT('',#1609);
#667=VERTEX_POINT('',#1610);
#668=VERTEX_POINT('',#1612);
#669=VERTEX_POINT('',#1614);
#670=VERTEX_POINT('',#1618);
#671=VERTEX_POINT('',#1619);
#672=VERTEX_POINT('',#1624);
#673=VERTEX_POINT('',#1628);
#674=VERTEX_POINT('',#1635);
#675=VERTEX_POINT('',#1637);
#676=VERTEX_POINT('',#1641);
#677=VERTEX_POINT('',#1643);
#678=VERTEX_POINT('',#1647);
#679=VERTEX_POINT('',#1654);
#680=CIRCLE('',#1098,0.0075);
#681=CIRCLE('',#1099,0.0075);
#682=CIRCLE('',#1118,0.003);
#683=CIRCLE('',#1119,0.003);
#684=CIRCLE('',#1133,0.0425);
#685=CIRCLE('',#1134,0.0425);
#686=CIRCLE('',#1147,0.0075);
#687=CIRCLE('',#1148,0.0075);
#688=CIRCLE('',#1169,0.006);
#689=CIRCLE('',#1174,0.006);
#690=EDGE_LOOP('',(#332));
#691=EDGE_LOOP('',(#333));
#692=EDGE_LOOP('',(#334));
#693=EDGE_LOOP('',(#335));
#694=EDGE_LOOP('',(#336,#337,#338,#339));
#695=EDGE_LOOP('',(#340,#341,#342,#343));
#696=EDGE_LOOP('',(#344,#345,#346,#347));
#697=EDGE_LOOP('',(#348,#349,#350,#351));
#698=EDGE_LOOP('',(#352,#353,#354,#355));
#699=EDGE_LOOP('',(#356,#357,#358,#359));
#700=EDGE_LOOP('',(#360,#361,#362,#363));
#701=EDGE_LOOP('',(#364,#365,#366,#367));
#702=EDGE_LOOP('',(#368,#369,#370,#371));
#703=EDGE_LOOP('',(#372,#373,#374,#375));
#704=EDGE_LOOP('',(#376,#377,#378,#379));
#705=EDGE_LOOP('',(#380,#381,#382,#383));
#706=EDGE_LOOP('',(#384));
#707=EDGE_LOOP('',(#385));
#708=EDGE_LOOP('',(#386));
#709=EDGE_LOOP('',(#387));
#710=EDGE_LOOP('',(#388,#389,#390,#391));
#711=EDGE_LOOP('',(#392,#393,#394,#395));
#712=EDGE_LOOP('',(#396,#397,#398,#399));
#713=EDGE_LOOP('',(#400,#401,#402,#403));
#714=EDGE_LOOP('',(#404,#405,#406,#407));
#715=EDGE_LOOP('',(#408,#409,#410,#411));
#716=EDGE_LOOP('',(#412));
#717=EDGE_LOOP('',(#413));
#718=EDGE_LOOP('',(#414));
#719=EDGE_LOOP('',(#415));
#720=EDGE_LOOP('',(#416,#417,#418,#419));
#721=EDGE_LOOP('',(#420,#421,#422,#423));
#722=EDGE_LOOP('',(#424,#425,#426,#427));
#723=EDGE_LOOP('',(#428,#429,#430,#431));
#724=EDGE_LOOP('',(#432,#433,#434,#435));
#725=EDGE_LOOP('',(#436,#437,#438,#439));
#726=EDGE_LOOP('',(#440));
#727=EDGE_LOOP('',(#441));
#728=EDGE_LOOP('',(#442));
#729=EDGE_LOOP('',(#443));
#730=EDGE_LOOP('',(#444,#445,#446,#447));
#731=EDGE_LOOP('',(#448,#449,#450,#451));
#732=EDGE_LOOP('',(#452,#453,#454,#455));
#733=EDGE_LOOP('',(#456,#457,#458,#459));
#734=EDGE_LOOP('',(#460,#461,#462,#463));
#735=EDGE_LOOP('',(#464,#465,#466,#467));
#736=EDGE_LOOP('',(#468,#469,#470,#471));
#737=EDGE_LOOP('',(#472,#473,#474,#475));
#738=EDGE_LOOP('',(#476,#477,#478,#479));
#739=EDGE_LOOP('',(#480,#481,#482,#483));
#740=EDGE_LOOP('',(#484,#485,#486,#487));
#741=EDGE_LOOP('',(#488,#489,#490,#491));
#742=EDGE_LOOP('',(#492,#493,#494,#495));
#743=EDGE_LOOP('',(#496,#497,#498,#499));
#744=EDGE_LOOP('',(#500));
#745=EDGE_LOOP('',(#501,#502,#503,#504));
#746=EDGE_LOOP('',(#505,#506,#507,#508));
#747=EDGE_LOOP('',(#509,#510,#511,#512));
#748=EDGE_LOOP('',(#513,#514,#515,#516));
#749=EDGE_LOOP('',(#517));
#750=EDGE_LOOP('',(#518));
#751=EDGE_LOOP('',(#519));
#752=FACE_BOUND('',#690,.T.);
#753=FACE_BOUND('',#691,.T.);
#754=FACE_BOUND('',#692,.T.);
#755=FACE_BOUND('',#693,.T.);
#756=FACE_BOUND('',#694,.T.);
#757=FACE_BOUND('',#695,.T.);
#758=FACE_BOUND('',#696,.T.);
#759=FACE_BOUND('',#697,.T.);
#760=FACE_BOUND('',#698,.T.);
#761=FACE_BOUND('',#699,.T.);
#762=FACE_BOUND('',#700,.T.);
#763=FACE_BOUND('',#701,.T.);
#764=FACE_BOUND('',#702,.T.);
#765=FACE_BOUND('',#703,.T.);
#766=FACE_BOUND('',#704,.T.);
#767=FACE_BOUND('',#705,.T.);
#768=FACE_BOUND('',#706,.T.);
#769=FACE_BOUND('',#707,.T.);
#770=FACE_BOUND('',#708,.T.);
#771=FACE_BOUND('',#709,.T.);
#772=FACE_BOUND('',#710,.T.);
#773=FACE_BOUND('',#711,.T.);
#774=FACE_BOUND('',#712,.T.);
#775=FACE_BOUND('',#713,.T.);
#776=FACE_BOUND('',#714,.T.);
#777=FACE_BOUND('',#715,.T.);
#778=FACE_BOUND('',#716,.T.);
#779=FACE_BOUND('',#717,.T.);
#780=FACE_BOUND('',#718,.T.);
#781=FACE_BOUND('',#719,.T.);
#782=FACE_BOUND('',#720,.T.);
#783=FACE_BOUND('',#721,.T.);
#784=FACE_BOUND('',#722,.T.);
#785=FACE_BOUND('',#723,.T.);
#786=FACE_BOUND('',#724,.T.);
#787=FACE_BOUND('',#725,.T.);
#788=FACE_BOUND('',#726,.T.);
#789=FACE_BOUND('',#727,.T.);
#790=FACE_BOUND('',#728,.T.);
#791=FACE_BOUND('',#729,.T.);
#792=FACE_BOUND('',#730,.T.);
#793=FACE_BOUND('',#731,.T.);
#794=FACE_BOUND('',#732,.T.);
#795=FACE_BOUND('',#733,.T.);
#796=FACE_BOUND('',#734,.T.);
#797=FACE_BOUND('',#735,.T.);
#798=FACE_BOUND('',#736,.T.);
#799=FACE_BOUND('',#737,.T.);
#800=FACE_BOUND('',#738,.T.);
#801=FACE_BOUND('',#739,.T.);
#802=FACE_BOUND('',#740,.T.);
#803=FACE_BOUND('',#741,.T.);
#804=FACE_BOUND('',#742,.T.);
#805=FACE_BOUND('',#743,.T.);
#806=FACE_BOUND('',#744,.T.);
#807=FACE_BOUND('',#745,.T.);
#808=FACE_BOUND('',#746,.T.);
#809=FACE_BOUND('',#747,.T.);
#810=FACE_BOUND('',#748,.T.);
#811=FACE_BOUND('',#749,.T.);
#812=FACE_BOUND('',#750,.T.);
#813=FACE_BOUND('',#751,.T.);
#814=CYLINDRICAL_SURFACE('',#1097,0.0075);
#815=CYLINDRICAL_SURFACE('',#1117,0.003);
#816=CYLINDRICAL_SURFACE('',#1132,0.0425);
#817=CYLINDRICAL_SURFACE('',#1146,0.0075);
#818=CYLINDRICAL_SURFACE('',#1173,0.006);
#819=ADVANCED_FACE('',(#752,#753),#814,.T.);
#820=ADVANCED_FACE('',(#754),#282,.T.);
#821=ADVANCED_FACE('',(#755),#283,.F.);
#822=ADVANCED_FACE('',(#756),#284,.F.);
#823=ADVANCED_FACE('',(#757),#285,.T.);
#824=ADVANCED_FACE('',(#758),#286,.T.);
#825=ADVANCED_FACE('',(#759),#287,.F.);
#826=ADVANCED_FACE('',(#760),#288,.F.);
#827=ADVANCED_FACE('',(#761),#289,.T.);
#828=ADVANCED_FACE('',(#762),#290,.T.);
#829=ADVANCED_FACE('',(#763),#291,.F.);
#830=ADVANCED_FACE('',(#764),#292,.F.);
#831=ADVANCED_FACE('',(#765),#293,.T.);
#832=ADVANCED_FACE('',(#766),#294,.T.);
#833=ADVANCED_FACE('',(#767),#295,.F.);
#834=ADVANCED_FACE('',(#768,#769),#815,.T.);
#835=ADVANCED_FACE('',(#770),#296,.T.);
#836=ADVANCED_FACE('',(#771),#297,.F.);
#837=ADVANCED_FACE('',(#772),#298,.F.);
#838=ADVANCED_FACE('',(#773),#299,.T.);
#839=ADVANCED_FACE('',(#774),#300,.T.);
#840=ADVANCED_FACE('',(#775),#301,.F.);
#841=ADVANCED_FACE('',(#776),#302,.F.);
#842=ADVANCED_FACE('',(#777),#303,.T.);
#843=ADVANCED_FACE('',(#778,#779),#816,.T.);
#844=ADVANCED_FACE('',(#780),#304,.T.);
#845=ADVANCED_FACE('',(#781),#305,.F.);
#846=ADVANCED_FACE('',(#782),#306,.F.);
#847=ADVANCED_FACE('',(#783),#307,.T.);
#848=ADVANCED_FACE('',(#784),#308,.T.);
#849=ADVANCED_FACE('',(#785),#309,.F.);
#850=ADVANCED_FACE('',(#786),#310,.F.);
#851=ADVANCED_FACE('',(#787),#311,.T.);
#852=ADVANCED_FACE('',(#788,#789),#817,.T.);
#853=ADVANCED_FACE('',(#790),#312,.T.);
#854=ADVANCED_FACE('',(#791),#313,.F.);
#855=ADVANCED_FACE('',(#792),#314,.T.);
#856=ADVANCED_FACE('',(#793),#315,.F.);
#857=ADVANCED_FACE('',(#794),#316,.F.);
#858=ADVANCED_FACE('',(#795),#317,.T.);
#859=ADVANCED_FACE('',(#796),#318,.T.);
#860=ADVANCED_FACE('',(#797),#319,.F.);
#861=ADVANCED_FACE('',(#798,#799),#320,.T.);
#862=ADVANCED_FACE('',(#800),#321,.T.);
#863=ADVANCED_FACE('',(#801),#322,.F.);
#864=ADVANCED_FACE('',(#802),#323,.F.);
#865=ADVANCED_FACE('',(#803),#324,.T.);
#866=ADVANCED_FACE('',(#804),#325,.F.);
#867=ADVANCED_FACE('',(#805),#326,.T.);
#868=ADVANCED_FACE('',(#806,#807),#327,.F.);
#869=ADVANCED_FACE('',(#808),#328,.F.);
#870=ADVANCED_FACE('',(#809),#329,.T.);
#871=ADVANCED_FACE('',(#810),#330,.T.);
#872=ADVANCED_FACE('',(#811,#812),#818,.T.);
#873=ADVANCED_FACE('',(#813),#331,.T.);
#874=CLOSED_SHELL('',(#819,#820,#821));
#875=CLOSED_SHELL('',(#822,#823,#824,#825,#826,#827));
#876=CLOSED_SHELL('',(#828,#829,#830,#831,#832,#833));
#877=CLOSED_SHELL('',(#834,#835,#836));
#878=CLOSED_SHELL('',(#837,#838,#839,#840,#841,#842));
#879=CLOSED_SHELL('',(#843,#844,#845));
#880=CLOSED_SHELL('',(#846,#847,#848,#849,#850,#851));
#881=CLOSED_SHELL('',(#852,#853,#854));
#882=CLOSED_SHELL('',(#855,#856,#857,#858,#859,#860));
#883=CLOSED_SHELL('',(#861,#862,#863,#864,#865,#866,#867,#868,#869,#870,
#871,#872,#873));
#884=STYLED_ITEM('',(#894),#1064);
#885=STYLED_ITEM('',(#895),#1065);
#886=STYLED_ITEM('',(#896),#1066);
#887=STYLED_ITEM('',(#903),#1067);
#888=STYLED_ITEM('',(#904),#1068);
#889=STYLED_ITEM('',(#905),#1069);
#890=STYLED_ITEM('',(#906),#1070);
#891=STYLED_ITEM('',(#907),#1071);
#892=STYLED_ITEM('',(#908),#1072);
#893=STYLED_ITEM('',(#915),#1073);
#894=PRESENTATION_STYLE_ASSIGNMENT((#921));
#895=PRESENTATION_STYLE_ASSIGNMENT((#922));
#896=PRESENTATION_STYLE_ASSIGNMENT((#923));
#897=PRESENTATION_STYLE_ASSIGNMENT((#924));
#898=PRESENTATION_STYLE_ASSIGNMENT((#925));
#899=PRESENTATION_STYLE_ASSIGNMENT((#926));
#900=PRESENTATION_STYLE_ASSIGNMENT((#927));
#901=PRESENTATION_STYLE_ASSIGNMENT((#928));
#902=PRESENTATION_STYLE_ASSIGNMENT((#929));
#903=PRESENTATION_STYLE_ASSIGNMENT((#930));
#904=PRESENTATION_STYLE_ASSIGNMENT((#931));
#905=PRESENTATION_STYLE_ASSIGNMENT((#932));
#906=PRESENTATION_STYLE_ASSIGNMENT((#933));
#907=PRESENTATION_STYLE_ASSIGNMENT((#934));
#908=PRESENTATION_STYLE_ASSIGNMENT((#935));
#909=PRESENTATION_STYLE_ASSIGNMENT((#936));
#910=PRESENTATION_STYLE_ASSIGNMENT((#937));
#911=PRESENTATION_STYLE_ASSIGNMENT((#938));
#912=PRESENTATION_STYLE_ASSIGNMENT((#939));
#913=PRESENTATION_STYLE_ASSIGNMENT((#940));
#914=PRESENTATION_STYLE_ASSIGNMENT((#941));
#915=PRESENTATION_STYLE_ASSIGNMENT((#942));
#916=PRESENTATION_STYLE_ASSIGNMENT((#943));
#917=PRESENTATION_STYLE_ASSIGNMENT((#944));
#918=PRESENTATION_STYLE_ASSIGNMENT((#945));
#919=PRESENTATION_STYLE_ASSIGNMENT((#946));
#920=PRESENTATION_STYLE_ASSIGNMENT((#947));
#921=SURFACE_STYLE_USAGE(.BOTH.,#948);
#922=SURFACE_STYLE_USAGE(.BOTH.,#949);
#923=SURFACE_STYLE_USAGE(.BOTH.,#950);
#924=SURFACE_STYLE_USAGE(.BOTH.,#951);
#925=SURFACE_STYLE_USAGE(.BOTH.,#952);
#926=SURFACE_STYLE_USAGE(.BOTH.,#953);
#927=SURFACE_STYLE_USAGE(.BOTH.,#954);
#928=SURFACE_STYLE_USAGE(.BOTH.,#955);
#929=SURFACE_STYLE_USAGE(.BOTH.,#956);
#930=SURFACE_STYLE_USAGE(.BOTH.,#957);
#931=SURFACE_STYLE_USAGE(.BOTH.,#958);
#932=SURFACE_STYLE_USAGE(.BOTH.,#959);
#933=SURFACE_STYLE_USAGE(.BOTH.,#960);
#934=SURFACE_STYLE_USAGE(.BOTH.,#961);
#935=SURFACE_STYLE_USAGE(.BOTH.,#962);
#936=SURFACE_STYLE_USAGE(.BOTH.,#963);
#937=SURFACE_STYLE_USAGE(.BOTH.,#964);
#938=SURFACE_STYLE_USAGE(.BOTH.,#965);
#939=SURFACE_STYLE_USAGE(.BOTH.,#966);
#940=SURFACE_STYLE_USAGE(.BOTH.,#967);
#941=SURFACE_STYLE_USAGE(.BOTH.,#968);
#942=SURFACE_STYLE_USAGE(.BOTH.,#969);
#943=SURFACE_STYLE_USAGE(.BOTH.,#970);
#944=SURFACE_STYLE_USAGE(.BOTH.,#971);
#945=SURFACE_STYLE_USAGE(.BOTH.,#972);
#946=SURFACE_STYLE_USAGE(.BOTH.,#973);
#947=SURFACE_STYLE_USAGE(.BOTH.,#974);
#948=SURFACE_SIDE_STYLE('',(#975));
#949=SURFACE_SIDE_STYLE('',(#976));
#950=SURFACE_SIDE_STYLE('',(#977));
#951=SURFACE_SIDE_STYLE('',(#978));
#952=SURFACE_SIDE_STYLE('',(#979));
#953=SURFACE_SIDE_STYLE('',(#980));
#954=SURFACE_SIDE_STYLE('',(#981));
#955=SURFACE_SIDE_STYLE('',(#982));
#956=SURFACE_SIDE_STYLE('',(#983));
#957=SURFACE_SIDE_STYLE('',(#984));
#958=SURFACE_SIDE_STYLE('',(#985));
#959=SURFACE_SIDE_STYLE('',(#986));
#960=SURFACE_SIDE_STYLE('',(#987));
#961=SURFACE_SIDE_STYLE('',(#988));
#962=SURFACE_SIDE_STYLE('',(#989));
#963=SURFACE_SIDE_STYLE('',(#990));
#964=SURFACE_SIDE_STYLE('',(#991));
#965=SURFACE_SIDE_STYLE('',(#992));
#966=SURFACE_SIDE_STYLE('',(#993));
#967=SURFACE_SIDE_STYLE('',(#994));
#968=SURFACE_SIDE_STYLE('',(#995));
#969=SURFACE_SIDE_STYLE('',(#996));
#970=SURFACE_SIDE_STYLE('',(#997));
#971=SURFACE_SIDE_STYLE('',(#998));
#972=SURFACE_SIDE_STYLE('',(#999));
#973=SURFACE_SIDE_STYLE('',(#1000));
#974=SURFACE_SIDE_STYLE('',(#1001));
#975=SURFACE_STYLE_FILL_AREA(#1002);
#976=SURFACE_STYLE_FILL_AREA(#1003);
#977=SURFACE_STYLE_FILL_AREA(#1004);
#978=SURFACE_STYLE_FILL_AREA(#1005);
#979=SURFACE_STYLE_FILL_AREA(#1006);
#980=SURFACE_STYLE_FILL_AREA(#1007);
#981=SURFACE_STYLE_FILL_AREA(#1008);
#982=SURFACE_STYLE_FILL_AREA(#1009);
#983=SURFACE_STYLE_FILL_AREA(#1010);
#984=SURFACE_STYLE_FILL_AREA(#1011);
#985=SURFACE_STYLE_FILL_AREA(#1012);
#986=SURFACE_STYLE_FILL_AREA(#1013);
#987=SURFACE_STYLE_FILL_AREA(#1014);
#988=SURFACE_STYLE_FILL_AREA(#1015);
#989=SURFACE_STYLE_FILL_AREA(#1016);
#990=SURFACE_STYLE_FILL_AREA(#1017);
#991=SURFACE_STYLE_FILL_AREA(#1018);
#992=SURFACE_STYLE_FILL_AREA(#1019);
#993=SURFACE_STYLE_FILL_AREA(#1020);
#994=SURFACE_STYLE_FILL_AREA(#1021);
#995=SURFACE_STYLE_FILL_AREA(#1022);
#996=SURFACE_STYLE_FILL_AREA(#1023);
#997=SURFACE_STYLE_FILL_AREA(#1024);
#998=SURFACE_STYLE_FILL_AREA(#1025);
#999=SURFACE_STYLE_FILL_AREA(#1026);
#1000=SURFACE_STYLE_FILL_AREA(#1027);
#1001=SURFACE_STYLE_FILL_AREA(#1028);
#1002=FILL_AREA_STYLE('',(#1029));
#1003=FILL_AREA_STYLE('',(#1030));
#1004=FILL_AREA_STYLE('',(#1031));
#1005=FILL_AREA_STYLE('',(#1032));
#1006=FILL_AREA_STYLE('',(#1033));
#1007=FILL_AREA_STYLE('',(#1034));
#1008=FILL_AREA_STYLE('',(#1035));
#1009=FILL_AREA_STYLE('',(#1036));
#1010=FILL_AREA_STYLE('',(#1037));
#1011=FILL_AREA_STYLE('',(#1038));
#1012=FILL_AREA_STYLE('',(#1039));
#1013=FILL_AREA_STYLE('',(#1040));
#1014=FILL_AREA_STYLE('',(#1041));
#1015=FILL_AREA_STYLE('',(#1042));
#1016=FILL_AREA_STYLE('',(#1043));
#1017=FILL_AREA_STYLE('',(#1044));
#1018=FILL_AREA_STYLE('',(#1045));
#1019=FILL_AREA_STYLE('',(#1046));
#1020=FILL_AREA_STYLE('',(#1047));
#1021=FILL_AREA_STYLE('',(#1048));
#1022=FILL_AREA_STYLE('',(#1049));
#1023=FILL_AREA_STYLE('',(#1050));
#1024=FILL_AREA_STYLE('',(#1051));
#1025=FILL_AREA_STYLE('',(#1052));
#1026=FILL_AREA_STYLE('',(#1053));
#1027=FILL_AREA_STYLE('',(#1054));
#1028=FILL_AREA_STYLE('',(#1055));
#1029=FILL_AREA_STYLE_COLOUR('',#1056);
#1030=FILL_AREA_STYLE_COLOUR('',#195);
#1031=FILL_AREA_STYLE_COLOUR('',#1056);
#1032=FILL_AREA_STYLE_COLOUR('',#1057);
#1033=FILL_AREA_STYLE_COLOUR('',#1057);
#1034=FILL_AREA_STYLE_COLOUR('',#1057);
#1035=FILL_AREA_STYLE_COLOUR('',#1057);
#1036=FILL_AREA_STYLE_COLOUR('',#1057);
#1037=FILL_AREA_STYLE_COLOUR('',#1057);
#1038=FILL_AREA_STYLE_COLOUR('',#1058);
#1039=FILL_AREA_STYLE_COLOUR('',#196);
#1040=FILL_AREA_STYLE_COLOUR('',#1059);
#1041=FILL_AREA_STYLE_COLOUR('',#1060);
#1042=FILL_AREA_STYLE_COLOUR('',#1056);
#1043=FILL_AREA_STYLE_COLOUR('',#1061);
#1044=FILL_AREA_STYLE_COLOUR('',#1062);
#1045=FILL_AREA_STYLE_COLOUR('',#1062);
#1046=FILL_AREA_STYLE_COLOUR('',#1062);
#1047=FILL_AREA_STYLE_COLOUR('',#1062);
#1048=FILL_AREA_STYLE_COLOUR('',#1062);
#1049=FILL_AREA_STYLE_COLOUR('',#1062);
#1050=FILL_AREA_STYLE_COLOUR('',#1063);
#1051=FILL_AREA_STYLE_COLOUR('',#197);
#1052=FILL_AREA_STYLE_COLOUR('',#197);
#1053=FILL_AREA_STYLE_COLOUR('',#197);
#1054=FILL_AREA_STYLE_COLOUR('',#197);
#1055=FILL_AREA_STYLE_COLOUR('',#197);
#1056=COLOUR_RGB('',0.768627450980392,0.886274509803922,0.952941176470588);
#1057=COLOUR_RGB('',0.501960784313726,0.501960784313726,0.807843137254902);
#1058=COLOUR_RGB('',0.498039215686275,0.498039215686275,0.498039215686275);
#1059=COLOUR_RGB('',0.615686274509804,0.811764705882353,0.929411764705882);
#1060=COLOUR_RGB('',0.470588235294118,0.603921568627451,0.749019607843137);
#1061=COLOUR_RGB('',0.972549019607843,0.529411764705882,0.00392156862745098);
#1062=COLOUR_RGB('',0.6,0.6,0.6);
#1063=COLOUR_RGB('',0.87843137254902,0.87843137254902,0.87843137254902);
#1064=MANIFOLD_SOLID_BREP('Part 6',#874);
#1065=MANIFOLD_SOLID_BREP('Part 4',#875);
#1066=MANIFOLD_SOLID_BREP('Part 5',#876);
#1067=MANIFOLD_SOLID_BREP('Part 9',#877);
#1068=MANIFOLD_SOLID_BREP('Part 3',#878);
#1069=MANIFOLD_SOLID_BREP('Part 1',#879);
#1070=MANIFOLD_SOLID_BREP('Part 2',#880);
#1071=MANIFOLD_SOLID_BREP('Part 7',#881);
#1072=MANIFOLD_SOLID_BREP('Part 8',#882);
#1073=MANIFOLD_SOLID_BREP('Part 1',#883);
#1074=SHAPE_DEFINITION_REPRESENTATION(#1684,#1085);
#1075=SHAPE_DEFINITION_REPRESENTATION(#1685,#1086);
#1076=SHAPE_DEFINITION_REPRESENTATION(#1687,#1087);
#1077=SHAPE_DEFINITION_REPRESENTATION(#1689,#1088);
#1078=SHAPE_DEFINITION_REPRESENTATION(#1691,#1089);
#1079=SHAPE_DEFINITION_REPRESENTATION(#1694,#1090);
#1080=SHAPE_DEFINITION_REPRESENTATION(#1697,#1091);
#1081=SHAPE_DEFINITION_REPRESENTATION(#1700,#1092);
#1082=SHAPE_DEFINITION_REPRESENTATION(#1702,#1093);
#1083=SHAPE_DEFINITION_REPRESENTATION(#1705,#1094);
#1084=SHAPE_DEFINITION_REPRESENTATION(#1708,#1095);
#1085=SHAPE_REPRESENTATION('Assembly 1',(#1096,#1102,#1109,#1116,#1122,
#1123,#1130,#1131,#1137,#1138,#1145,#1151,#1152,#1159,#1160,#1176,#1177),
#1659);
#1086=SHAPE_REPRESENTATION('Part 6',(#1096),#1660);
#1087=SHAPE_REPRESENTATION('Part 4',(#1096),#1661);
#1088=SHAPE_REPRESENTATION('Part 5',(#1096),#1662);
#1089=SHAPE_REPRESENTATION('Part 9',(#1096),#1663);
#1090=SHAPE_REPRESENTATION('Part 3',(#1096),#1664);
#1091=SHAPE_REPRESENTATION('Part 1',(#1096),#1665);
#1092=SHAPE_REPRESENTATION('Part 2',(#1096),#1666);
#1093=SHAPE_REPRESENTATION('Part 7',(#1096),#1667);
#1094=SHAPE_REPRESENTATION('Part 8',(#1096),#1668);
#1095=SHAPE_REPRESENTATION('Part 1',(#1096),#1669);
#1096=AXIS2_PLACEMENT_3D('',#1426,#1178,#1179);
#1097=AXIS2_PLACEMENT_3D('',#1427,#1180,#1181);
#1098=AXIS2_PLACEMENT_3D('',#1428,#1182,#1183);
#1099=AXIS2_PLACEMENT_3D('',#1430,#1184,#1185);
#1100=AXIS2_PLACEMENT_3D('',#1432,#1186,#1187);
#1101=AXIS2_PLACEMENT_3D('',#1433,#1188,#1189);
#1102=AXIS2_PLACEMENT_3D('',#1434,#1190,#1191);
#1103=AXIS2_PLACEMENT_3D('',#1435,#1192,#1193);
#1104=AXIS2_PLACEMENT_3D('',#1444,#1198,#1199);
#1105=AXIS2_PLACEMENT_3D('',#1450,#1203,#1204);
#1106=AXIS2_PLACEMENT_3D('',#1456,#1208,#1209);
#1107=AXIS2_PLACEMENT_3D('',#1459,#1212,#1213);
#1108=AXIS2_PLACEMENT_3D('',#1460,#1214,#1215);
#1109=AXIS2_PLACEMENT_3D('',#1461,#1216,#1217);
#1110=AXIS2_PLACEMENT_3D('',#1462,#1218,#1219);
#1111=AXIS2_PLACEMENT_3D('',#1471,#1224,#1225);
#1112=AXIS2_PLACEMENT_3D('',#1477,#1229,#1230);
#1113=AXIS2_PLACEMENT_3D('',#1483,#1234,#1235);
#1114=AXIS2_PLACEMENT_3D('',#1486,#1238,#1239);
#1115=AXIS2_PLACEMENT_3D('',#1487,#1240,#1241);
#1116=AXIS2_PLACEMENT_3D('',#1488,#1242,#1243);
#1117=AXIS2_PLACEMENT_3D('',#1489,#1244,#1245);
#1118=AXIS2_PLACEMENT_3D('',#1490,#1246,#1247);
#1119=AXIS2_PLACEMENT_3D('',#1492,#1248,#1249);
#1120=AXIS2_PLACEMENT_3D('',#1494,#1250,#1251);
#1121=AXIS2_PLACEMENT_3D('',#1495,#1252,#1253);
#1122=AXIS2_PLACEMENT_3D('',#1496,#1254,#1255);
#1123=AXIS2_PLACEMENT_3D('',#1497,#1256,#1257);
#1124=AXIS2_PLACEMENT_3D('',#1498,#1258,#1259);
#1125=AXIS2_PLACEMENT_3D('',#1507,#1264,#1265);
#1126=AXIS2_PLACEMENT_3D('',#1513,#1269,#1270);
#1127=AXIS2_PLACEMENT_3D('',#1519,#1274,#1275);
#1128=AXIS2_PLACEMENT_3D('',#1522,#1278,#1279);
#1129=AXIS2_PLACEMENT_3D('',#1523,#1280,#1281);
#1130=AXIS2_PLACEMENT_3D('',#1524,#1282,#1283);
#1131=AXIS2_PLACEMENT_3D('',#1525,#1284,#1285);
#1132=AXIS2_PLACEMENT_3D('',#1526,#1286,#1287);
#1133=AXIS2_PLACEMENT_3D('',#1527,#1288,#1289);
#1134=AXIS2_PLACEMENT_3D('',#1529,#1290,#1291);
#1135=AXIS2_PLACEMENT_3D('',#1531,#1292,#1293);
#1136=AXIS2_PLACEMENT_3D('',#1532,#1294,#1295);
#1137=AXIS2_PLACEMENT_3D('',#1533,#1296,#1297);
#1138=AXIS2_PLACEMENT_3D('',#1534,#1298,#1299);
#1139=AXIS2_PLACEMENT_3D('',#1535,#1300,#1301);
#1140=AXIS2_PLACEMENT_3D('',#1544,#1306,#1307);
#1141=AXIS2_PLACEMENT_3D('',#1550,#1311,#1312);
#1142=AXIS2_PLACEMENT_3D('',#1556,#1316,#1317);
#1143=AXIS2_PLACEMENT_3D('',#1559,#1320,#1321);
#1144=AXIS2_PLACEMENT_3D('',#1560,#1322,#1323);
#1145=AXIS2_PLACEMENT_3D('',#1561,#1324,#1325);
#1146=AXIS2_PLACEMENT_3D('',#1562,#1326,#1327);
#1147=AXIS2_PLACEMENT_3D('',#1563,#1328,#1329);
#1148=AXIS2_PLACEMENT_3D('',#1565,#1330,#1331);
#1149=AXIS2_PLACEMENT_3D('',#1567,#1332,#1333);
#1150=AXIS2_PLACEMENT_3D('',#1568,#1334,#1335);
#1151=AXIS2_PLACEMENT_3D('',#1569,#1336,#1337);
#1152=AXIS2_PLACEMENT_3D('',#1570,#1338,#1339);
#1153=AXIS2_PLACEMENT_3D('',#1571,#1340,#1341);
#1154=AXIS2_PLACEMENT_3D('',#1580,#1346,#1347);
#1155=AXIS2_PLACEMENT_3D('',#1586,#1351,#1352);
#1156=AXIS2_PLACEMENT_3D('',#1592,#1356,#1357);
#1157=AXIS2_PLACEMENT_3D('',#1595,#1360,#1361);
#1158=AXIS2_PLACEMENT_3D('',#1596,#1362,#1363);
#1159=AXIS2_PLACEMENT_3D('',#1597,#1364,#1365);
#1160=AXIS2_PLACEMENT_3D('',#1598,#1366,#1367);
#1161=AXIS2_PLACEMENT_3D('',#1599,#1368,#1369);
#1162=AXIS2_PLACEMENT_3D('',#1616,#1378,#1379);
#1163=AXIS2_PLACEMENT_3D('',#1622,#1383,#1384);
#1164=AXIS2_PLACEMENT_3D('',#1626,#1387,#1388);
#1165=AXIS2_PLACEMENT_3D('',#1630,#1391,#1392);
#1166=AXIS2_PLACEMENT_3D('',#1632,#1394,#1395);
#1167=AXIS2_PLACEMENT_3D('',#1633,#1396,#1397);
#1168=AXIS2_PLACEMENT_3D('',#1639,#1401,#1402);
#1169=AXIS2_PLACEMENT_3D('',#1640,#1403,#1404);
#1170=AXIS2_PLACEMENT_3D('',#1645,#1407,#1408);
#1171=AXIS2_PLACEMENT_3D('',#1649,#1411,#1412);
#1172=AXIS2_PLACEMENT_3D('',#1651,#1414,#1415);
#1173=AXIS2_PLACEMENT_3D('',#1652,#1416,#1417);
#1174=AXIS2_PLACEMENT_3D('',#1653,#1418,#1419);
#1175=AXIS2_PLACEMENT_3D('',#1655,#1420,#1421);
#1176=AXIS2_PLACEMENT_3D('',#1656,#1422,#1423);
#1177=AXIS2_PLACEMENT_3D('',#1657,#1424,#1425);
#1178=DIRECTION('',(0.,0.,1.));
#1179=DIRECTION('',(1.,0.,0.));
#1180=DIRECTION('',(1.,0.,0.));
#1181=DIRECTION('',(0.,0.,-1.));
#1182=DIRECTION('',(-1.,0.,0.));
#1183=DIRECTION('',(0.,0.,1.));
#1184=DIRECTION('',(-1.,0.,0.));
#1185=DIRECTION('',(0.,0.,1.));
#1186=DIRECTION('',(-1.,0.,0.));
#1187=DIRECTION('',(0.,-1.,0.));
#1188=DIRECTION('',(-1.,0.,0.));
#1189=DIRECTION('',(0.,-1.,0.));
#1190=DIRECTION('',(0.,0.,1.));
#1191=DIRECTION('',(1.,0.,0.));
#1192=DIRECTION('',(-1.15648231731787E-16,-1.,0.));
#1193=DIRECTION('',(1.,-1.15648231731787E-16,0.));
#1194=DIRECTION('',(-1.,1.15648231731787E-16,0.));
#1195=DIRECTION('',(0.,0.,-1.));
#1196=DIRECTION('',(-1.,1.15648231731787E-16,0.));
#1197=DIRECTION('',(0.,0.,-1.));
#1198=DIRECTION('',(1.,0.,0.));
#1199=DIRECTION('',(0.,0.,-1.));
#1200=DIRECTION('',(0.,-1.,0.));
#1201=DIRECTION('',(0.,-1.,0.));
#1202=DIRECTION('',(0.,0.,-1.));
#1203=DIRECTION('',(-7.70988211545248E-17,-1.,0.));
#1204=DIRECTION('',(1.,-7.70988211545248E-17,0.));
#1205=DIRECTION('',(-1.,7.70988211545248E-17,0.));
#1206=DIRECTION('',(-1.,7.70988211545248E-17,0.));
#1207=DIRECTION('',(0.,0.,-1.));
#1208=DIRECTION('',(1.,0.,0.));
#1209=DIRECTION('',(0.,0.,-1.));
#1210=DIRECTION('',(0.,-1.,0.));
#1211=DIRECTION('',(0.,-1.,0.));
#1212=DIRECTION('',(0.,0.,-1.));
#1213=DIRECTION('',(1.,0.,0.));
#1214=DIRECTION('',(0.,0.,-1.));
#1215=DIRECTION('',(1.,0.,0.));
#1216=DIRECTION('',(0.,0.,1.));
#1217=DIRECTION('',(1.,0.,0.));
#1218=DIRECTION('',(0.,1.,0.));
#1219=DIRECTION('',(0.,0.,1.));
#1220=DIRECTION('',(1.,0.,0.));
#1221=DIRECTION('',(0.,0.,-1.));
#1222=DIRECTION('',(1.,0.,0.));
#1223=DIRECTION('',(0.,0.,-1.));
#1224=DIRECTION('',(1.,0.,0.));
#1225=DIRECTION('',(0.,0.,-1.));
#1226=DIRECTION('',(0.,-1.,0.));
#1227=DIRECTION('',(0.,0.,-1.));
#1228=DIRECTION('',(0.,-1.,0.));
#1229=DIRECTION('',(0.,1.,0.));
#1230=DIRECTION('',(0.,0.,1.));
#1231=DIRECTION('',(1.,0.,0.));
#1232=DIRECTION('',(0.,0.,-1.));
#1233=DIRECTION('',(1.,0.,0.));
#1234=DIRECTION('',(1.,0.,0.));
#1235=DIRECTION('',(0.,0.,-1.));
#1236=DIRECTION('',(0.,-1.,0.));
#1237=DIRECTION('',(0.,-1.,0.));
#1238=DIRECTION('',(0.,0.,1.));
#1239=DIRECTION('',(1.,0.,0.));
#1240=DIRECTION('',(0.,0.,1.));
#1241=DIRECTION('',(1.,0.,0.));
#1242=DIRECTION('',(0.,0.,1.));
#1243=DIRECTION('',(1.,0.,0.));
#1244=DIRECTION('',(0.,0.,-1.));
#1245=DIRECTION('',(-1.,0.,0.));
#1246=DIRECTION('',(0.,0.,1.));
#1247=DIRECTION('',(1.,0.,0.));
#1248=DIRECTION('',(0.,0.,1.));
#1249=DIRECTION('',(1.,0.,0.));
#1250=DIRECTION('',(0.,0.,1.));
#1251=DIRECTION('',(1.,0.,0.));
#1252=DIRECTION('',(0.,0.,1.));
#1253=DIRECTION('',(1.,0.,0.));
#1254=DIRECTION('',(0.,0.,1.));
#1255=DIRECTION('',(1.,0.,0.));
#1256=DIRECTION('',(0.,0.,1.));
#1257=DIRECTION('',(1.,0.,0.));
#1258=DIRECTION('',(-1.15648231731787E-16,-1.,0.));
#1259=DIRECTION('',(1.,-1.15648231731787E-16,0.));
#1260=DIRECTION('',(-1.,1.15648231731787E-16,0.));
#1261=DIRECTION('',(0.,0.,-1.));
#1262=DIRECTION('',(-1.,1.15648231731787E-16,0.));
#1263=DIRECTION('',(0.,0.,-1.));
#1264=DIRECTION('',(1.,7.70988211545248E-17,0.));
#1265=DIRECTION('',(-7.70988211545248E-17,1.,0.));
#1266=DIRECTION('',(7.70988211545248E-17,-1.,0.));
#1267=DIRECTION('',(7.70988211545248E-17,-1.,0.));
#1268=DIRECTION('',(0.,0.,-1.));
#1269=DIRECTION('',(-1.54197642309049E-16,-1.,0.));
#1270=DIRECTION('',(1.,-1.54197642309049E-16,0.));
#1271=DIRECTION('',(-1.,1.54197642309049E-16,0.));
#1272=DIRECTION('',(-1.,1.54197642309049E-16,0.));
#1273=DIRECTION('',(0.,0.,-1.));
#1274=DIRECTION('',(1.,7.70988211545248E-17,0.));
#1275=DIRECTION('',(-7.70988211545248E-17,1.,0.));
#1276=DIRECTION('',(7.70988211545248E-17,-1.,0.));
#1277=DIRECTION('',(7.70988211545248E-17,-1.,0.));
#1278=DIRECTION('',(0.,0.,-1.));
#1279=DIRECTION('',(1.,0.,0.));
#1280=DIRECTION('',(0.,0.,-1.));
#1281=DIRECTION('',(1.,0.,0.));
#1282=DIRECTION('',(0.,0.,1.));
#1283=DIRECTION('',(1.,0.,0.));
#1284=DIRECTION('',(0.,0.,1.));
#1285=DIRECTION('',(1.,0.,0.));
#1286=DIRECTION('',(-1.,0.,0.));
#1287=DIRECTION('',(0.,0.,1.));
#1288=DIRECTION('',(1.,0.,0.));
#1289=DIRECTION('',(0.,0.,-1.));
#1290=DIRECTION('',(1.,0.,0.));
#1291=DIRECTION('',(0.,0.,-1.));
#1292=DIRECTION('',(1.,0.,0.));
#1293=DIRECTION('',(0.,1.,0.));
#1294=DIRECTION('',(1.,0.,0.));
#1295=DIRECTION('',(0.,1.,0.));
#1296=DIRECTION('',(0.,0.,1.));
#1297=DIRECTION('',(-1.04083408558608E-16,-1.,0.));
#1298=DIRECTION('',(0.,0.,1.));
#1299=DIRECTION('',(2.22044604925032E-16,-1.,0.));
#1300=DIRECTION('',(1.06752213906265E-16,-1.,0.));
#1301=DIRECTION('',(1.,1.06752213906265E-16,0.));
#1302=DIRECTION('',(-1.,-1.06752213906265E-16,0.));
#1303=DIRECTION('',(0.,0.,-1.));
#1304=DIRECTION('',(-1.,-1.06752213906265E-16,0.));
#1305=DIRECTION('',(0.,0.,-1.));
#1306=DIRECTION('',(1.,0.,0.));
#1307=DIRECTION('',(0.,0.,-1.));
#1308=DIRECTION('',(0.,-1.,0.));
#1309=DIRECTION('',(0.,-1.,0.));
#1310=DIRECTION('',(0.,0.,-1.));
#1311=DIRECTION('',(2.1350442781253E-16,-1.,0.));
#1312=DIRECTION('',(1.,2.1350442781253E-16,0.));
#1313=DIRECTION('',(-1.,-2.1350442781253E-16,0.));
#1314=DIRECTION('',(-1.,-2.1350442781253E-16,0.));
#1315=DIRECTION('',(0.,0.,-1.));
#1316=DIRECTION('',(1.,6.30808536718839E-17,0.));
#1317=DIRECTION('',(-6.30808536718839E-17,1.,0.));
#1318=DIRECTION('',(6.30808536718839E-17,-1.,0.));
#1319=DIRECTION('',(6.30808536718839E-17,-1.,0.));
#1320=DIRECTION('',(0.,0.,-1.));
#1321=DIRECTION('',(1.,0.,0.));
#1322=DIRECTION('',(0.,0.,-1.));
#1323=DIRECTION('',(1.,0.,0.));
#1324=DIRECTION('',(0.,0.,1.));
#1325=DIRECTION('',(1.,0.,0.));
#1326=DIRECTION('',(1.,0.,0.));
#1327=DIRECTION('',(0.,0.,-1.));
#1328=DIRECTION('',(-1.,0.,0.));
#1329=DIRECTION('',(0.,0.,1.));
#1330=DIRECTION('',(-1.,0.,0.));
#1331=DIRECTION('',(0.,0.,1.));
#1332=DIRECTION('',(-1.,0.,0.));
#1333=DIRECTION('',(0.,-1.,0.));
#1334=DIRECTION('',(-1.,0.,0.));
#1335=DIRECTION('',(0.,-1.,0.));
#1336=DIRECTION('',(0.,0.,1.));
#1337=DIRECTION('',(1.,0.,0.));
#1338=DIRECTION('',(0.,0.,1.));
#1339=DIRECTION('',(1.,0.,0.));
#1340=DIRECTION('',(0.,1.,0.));
#1341=DIRECTION('',(0.,0.,1.));
#1342=DIRECTION('',(1.,0.,0.));
#1343=DIRECTION('',(0.,0.,-1.));
#1344=DIRECTION('',(1.,0.,0.));
#1345=DIRECTION('',(0.,0.,-1.));
#1346=DIRECTION('',(1.,0.,0.));
#1347=DIRECTION('',(0.,0.,-1.));
#1348=DIRECTION('',(0.,-1.,0.));
#1349=DIRECTION('',(0.,0.,-1.));
#1350=DIRECTION('',(0.,-1.,0.));
#1351=DIRECTION('',(0.,1.,0.));
#1352=DIRECTION('',(0.,0.,1.));
#1353=DIRECTION('',(1.,0.,0.));
#1354=DIRECTION('',(0.,0.,-1.));
#1355=DIRECTION('',(1.,0.,0.));
#1356=DIRECTION('',(1.,0.,0.));
#1357=DIRECTION('',(0.,0.,-1.));
#1358=DIRECTION('',(0.,-1.,0.));
#1359=DIRECTION('',(0.,-1.,0.));
#1360=DIRECTION('',(0.,0.,1.));
#1361=DIRECTION('',(1.,0.,0.));
#1362=DIRECTION('',(0.,0.,1.));
#1363=DIRECTION('',(1.,0.,0.));
#1364=DIRECTION('',(0.,0.,1.));
#1365=DIRECTION('',(1.,0.,0.));
#1366=DIRECTION('',(9.10579677706283E-31,-1.24900090270329E-16,1.));
#1367=DIRECTION('',(2.94902990916057E-15,-1.,-1.24900090270329E-16));
#1368=DIRECTION('',(0.,0.,1.));
#1369=DIRECTION('',(1.,0.,0.));
#1370=DIRECTION('',(0.,-1.,0.));
#1371=DIRECTION('',(-1.,-1.26161707343768E-16,0.));
#1372=DIRECTION('',(0.,-1.,0.));
#1373=DIRECTION('',(-1.,0.,0.));
#1374=DIRECTION('',(0.,-1.,0.));
#1375=DIRECTION('',(1.,1.7347234759768E-16,0.));
#1376=DIRECTION('',(0.,-1.,0.));
#1377=DIRECTION('',(1.,0.,0.));
#1378=DIRECTION('',(1.,0.,0.));
#1379=DIRECTION('',(0.,0.,-1.));
#1380=DIRECTION('',(0.,-1.,0.));
#1381=DIRECTION('',(0.,0.,-1.));
#1382=DIRECTION('',(0.,0.,-1.));
#1383=DIRECTION('',(1.26161707343768E-16,-1.,0.));
#1384=DIRECTION('',(1.,1.26161707343768E-16,0.));
#1385=DIRECTION('',(-1.,-1.26161707343768E-16,0.));
#1386=DIRECTION('',(0.,0.,-1.));
#1387=DIRECTION('',(1.,0.,0.));
#1388=DIRECTION('',(0.,0.,-1.));
#1389=DIRECTION('',(0.,-1.,0.));
#1390=DIRECTION('',(0.,0.,-1.));
#1391=DIRECTION('',(0.,-1.,0.));
#1392=DIRECTION('',(0.,0.,-1.));
#1393=DIRECTION('',(-1.,0.,0.));
#1394=DIRECTION('',(0.,0.,1.));
#1395=DIRECTION('',(1.,0.,0.));
#1396=DIRECTION('',(-1.7347234759768E-16,1.,0.));
#1397=DIRECTION('',(-1.,-1.7347234759768E-16,0.));
#1398=DIRECTION('',(0.,0.,-1.));
#1399=DIRECTION('',(1.,1.7347234759768E-16,0.));
#1400=DIRECTION('',(0.,0.,-1.));
#1401=DIRECTION('',(1.,0.,0.));
#1402=DIRECTION('',(0.,0.,-1.));
#1403=DIRECTION('',(1.,0.,0.));
#1404=DIRECTION('',(0.,0.,-1.));
#1405=DIRECTION('',(0.,0.,-1.));
#1406=DIRECTION('',(0.,-1.,0.));
#1407=DIRECTION('',(0.,1.,0.));
#1408=DIRECTION('',(0.,0.,1.));
#1409=DIRECTION('',(0.,0.,-1.));
#1410=DIRECTION('',(1.,0.,0.));
#1411=DIRECTION('',(1.,0.,0.));
#1412=DIRECTION('',(0.,0.,-1.));
#1413=DIRECTION('',(0.,-1.,0.));
#1414=DIRECTION('',(0.,0.,1.));
#1415=DIRECTION('',(1.,0.,0.));
#1416=DIRECTION('',(1.,0.,0.));
#1417=DIRECTION('',(0.,0.,-1.));
#1418=DIRECTION('',(-1.,0.,0.));
#1419=DIRECTION('',(0.,0.,1.));
#1420=DIRECTION('',(-1.,0.,0.));
#1421=DIRECTION('',(0.,-1.,0.));
#1422=DIRECTION('',(0.,0.,1.));
#1423=DIRECTION('',(1.,0.,0.));
#1424=DIRECTION('',(0.,0.,1.));
#1425=DIRECTION('',(-7.21644966006352E-16,1.,0.));
#1426=CARTESIAN_POINT('',(0.,0.,0.));
#1427=CARTESIAN_POINT('',(-0.110340299395146,-0.00312045389161229,0.013));
#1428=CARTESIAN_POINT('',(-0.110340299395146,-0.00312045389161229,0.013));
#1429=CARTESIAN_POINT('',(-0.110340299395146,-0.00312045389161229,0.0205));
#1430=CARTESIAN_POINT('',(-0.105340299395146,-0.00312045389161229,0.013));
#1431=CARTESIAN_POINT('',(-0.105340299395146,-0.00312045389161229,0.0205));
#1432=CARTESIAN_POINT('',(-0.110340299395146,-0.0131204538916123,0.013));
#1433=CARTESIAN_POINT('',(-0.105340299395146,-0.0131204538916123,0.013));
#1434=CARTESIAN_POINT('',(0.,0.,0.));
#1435=CARTESIAN_POINT('',(-0.0593402993951459,-0.00362045389161229,0.015));
#1436=CARTESIAN_POINT('',(-0.0593402993951459,-0.00362045389161229,0.));
#1437=CARTESIAN_POINT('',(-0.0368402993951458,-0.00362045389161229,0.));
#1438=CARTESIAN_POINT('',(-0.0818402993951458,-0.00362045389161229,0.));
#1439=CARTESIAN_POINT('',(-0.0818402993951458,-0.00362045389161229,0.015));
#1440=CARTESIAN_POINT('',(-0.0818402993951458,-0.00362045389161229,0.015));
#1441=CARTESIAN_POINT('',(-0.0593402993951459,-0.00362045389161229,0.015));
#1442=CARTESIAN_POINT('',(-0.0368402993951458,-0.00362045389161229,0.015));
#1443=CARTESIAN_POINT('',(-0.0368402993951458,-0.00362045389161229,0.015));
#1444=CARTESIAN_POINT('',(-0.0368402993951458,-0.0126204538916123,0.015));
#1445=CARTESIAN_POINT('',(-0.0368402993951458,-0.0126204538916123,0.));
#1446=CARTESIAN_POINT('',(-0.0368402993951458,-0.0216204538916123,0.));
#1447=CARTESIAN_POINT('',(-0.0368402993951458,-0.0126204538916123,0.015));
#1448=CARTESIAN_POINT('',(-0.0368402993951458,-0.0216204538916123,0.015));
#1449=CARTESIAN_POINT('',(-0.0368402993951458,-0.0216204538916123,0.015));
#1450=CARTESIAN_POINT('',(-0.0593402993951459,-0.0216204538916123,0.015));
#1451=CARTESIAN_POINT('',(-0.0593402993951459,-0.0216204538916123,0.));
#1452=CARTESIAN_POINT('',(-0.0818402993951458,-0.0216204538916123,0.));
#1453=CARTESIAN_POINT('',(-0.0593402993951459,-0.0216204538916123,0.015));
#1454=CARTESIAN_POINT('',(-0.0818402993951458,-0.0216204538916123,0.015));
#1455=CARTESIAN_POINT('',(-0.0818402993951458,-0.0216204538916123,0.015));
#1456=CARTESIAN_POINT('',(-0.0818402993951458,-0.0126204538916123,0.015));
#1457=CARTESIAN_POINT('',(-0.0818402993951458,-0.0126204538916123,0.));
#1458=CARTESIAN_POINT('',(-0.0818402993951458,-0.0126204538916123,0.015));
#1459=CARTESIAN_POINT('',(0.000159700604854151,-0.0136204538916123,0.015));
#1460=CARTESIAN_POINT('',(0.000159700604854151,-0.0136204538916123,0.));
#1461=CARTESIAN_POINT('',(0.,0.,0.));
#1462=CARTESIAN_POINT('',(-0.100340299395146,0.00937954610838771,0.023));
#1463=CARTESIAN_POINT('',(-0.100340299395146,0.00937954610838771,0.003));
#1464=CARTESIAN_POINT('',(-0.105340299395146,0.00937954610838771,0.003));
#1465=CARTESIAN_POINT('',(-0.0953402993951458,0.0093795461083877,0.003));
#1466=CARTESIAN_POINT('',(-0.105340299395146,0.00937954610838771,0.023));
#1467=CARTESIAN_POINT('',(-0.105340299395146,0.00937954610838771,0.023));
#1468=CARTESIAN_POINT('',(-0.100340299395146,0.00937954610838771,0.023));
#1469=CARTESIAN_POINT('',(-0.0953402993951458,0.0093795461083877,0.023));
#1470=CARTESIAN_POINT('',(-0.0953402993951458,0.0093795461083877,0.023));
#1471=CARTESIAN_POINT('',(-0.105340299395146,-0.0131204538916123,0.023));
#1472=CARTESIAN_POINT('',(-0.105340299395146,-0.0131204538916123,0.003));
#1473=CARTESIAN_POINT('',(-0.105340299395146,-0.0356204538916123,0.003));
#1474=CARTESIAN_POINT('',(-0.105340299395146,-0.0356204538916123,0.023));
#1475=CARTESIAN_POINT('',(-0.105340299395146,-0.0356204538916123,0.023));
#1476=CARTESIAN_POINT('',(-0.105340299395146,-0.0131204538916123,0.023));
#1477=CARTESIAN_POINT('',(-0.100340299395146,-0.0356204538916123,0.023));
#1478=CARTESIAN_POINT('',(-0.100340299395146,-0.0356204538916123,0.003));
#1479=CARTESIAN_POINT('',(-0.0953402993951458,-0.0356204538916123,0.003));
#1480=CARTESIAN_POINT('',(-0.0953402993951458,-0.0356204538916123,0.023));
#1481=CARTESIAN_POINT('',(-0.0953402993951458,-0.0356204538916123,0.023));
#1482=CARTESIAN_POINT('',(-0.100340299395146,-0.0356204538916123,0.023));
#1483=CARTESIAN_POINT('',(-0.0953402993951458,-0.0131204538916123,0.023));
#1484=CARTESIAN_POINT('',(-0.0953402993951458,-0.0131204538916123,0.003));
#1485=CARTESIAN_POINT('',(-0.0953402993951458,-0.0131204538916123,0.023));
#1486=CARTESIAN_POINT('',(0.000159700604854151,-0.0136204538916123,0.023));
#1487=CARTESIAN_POINT('',(0.000159700604854151,-0.0136204538916123,0.003));
#1488=CARTESIAN_POINT('',(0.,0.,0.));
#1489=CARTESIAN_POINT('',(-0.0920238338112831,-0.0511029876470566,0.006));
#1490=CARTESIAN_POINT('',(-0.0920238338112831,-0.0511029876470566,0.006));
#1491=CARTESIAN_POINT('',(-0.0890238338112831,-0.0511029876470566,0.006));
#1492=CARTESIAN_POINT('',(-0.0920238338112831,-0.0511029876470566,-0.029));
#1493=CARTESIAN_POINT('',(-0.0890238338112831,-0.0511029876470566,-0.029));
#1494=CARTESIAN_POINT('',(8.44746828079224E-5,-0.0134964492172003,0.006));
#1495=CARTESIAN_POINT('',(8.44746828079224E-5,-0.0134964492172003,-0.029));
#1496=CARTESIAN_POINT('',(0.,0.,0.));
#1497=CARTESIAN_POINT('',(0.18227115519318,0.0767953870885367,1.69565985606856E-6));
#1498=CARTESIAN_POINT('',(-0.00434029939514585,0.00937954610838772,0.015));
#1499=CARTESIAN_POINT('',(-0.00434029939514585,0.00937954610838772,0.));
#1500=CARTESIAN_POINT('',(0.0181597006048541,0.00937954610838772,0.));
#1501=CARTESIAN_POINT('',(-0.0268402993951458,0.00937954610838772,0.));
#1502=CARTESIAN_POINT('',(-0.0268402993951458,0.00937954610838772,0.015));
#1503=CARTESIAN_POINT('',(-0.0268402993951458,0.00937954610838772,0.015));
#1504=CARTESIAN_POINT('',(-0.00434029939514585,0.00937954610838772,0.015));
#1505=CARTESIAN_POINT('',(0.0181597006048541,0.00937954610838772,0.015));
#1506=CARTESIAN_POINT('',(0.0181597006048541,0.00937954610838772,0.015));
#1507=CARTESIAN_POINT('',(0.0181597006048541,-0.0131204538916123,0.015));
#1508=CARTESIAN_POINT('',(0.0181597006048541,-0.0131204538916123,0.));
#1509=CARTESIAN_POINT('',(0.0181597006048541,-0.0356204538916123,0.));
#1510=CARTESIAN_POINT('',(0.0181597006048541,-0.0131204538916123,0.015));
#1511=CARTESIAN_POINT('',(0.0181597006048541,-0.0356204538916123,0.015));
#1512=CARTESIAN_POINT('',(0.0181597006048541,-0.0356204538916123,0.015));
#1513=CARTESIAN_POINT('',(-0.00434029939514585,-0.0356204538916123,0.015));
#1514=CARTESIAN_POINT('',(-0.00434029939514585,-0.0356204538916123,0.));
#1515=CARTESIAN_POINT('',(-0.0268402993951458,-0.0356204538916123,0.));
#1516=CARTESIAN_POINT('',(-0.00434029939514585,-0.0356204538916123,0.015));
#1517=CARTESIAN_POINT('',(-0.0268402993951458,-0.0356204538916123,0.015));
#1518=CARTESIAN_POINT('',(-0.0268402993951458,-0.0356204538916123,0.015));
#1519=CARTESIAN_POINT('',(-0.0268402993951458,-0.0131204538916123,0.015));
#1520=CARTESIAN_POINT('',(-0.0268402993951458,-0.0131204538916123,0.));
#1521=CARTESIAN_POINT('',(-0.0268402993951458,-0.0131204538916123,0.015));
#1522=CARTESIAN_POINT('',(0.000159700604854151,-0.0136204538916123,0.015));
#1523=CARTESIAN_POINT('',(0.000159700604854151,-0.0136204538916123,0.));
#1524=CARTESIAN_POINT('',(0.,0.,0.));
#1525=CARTESIAN_POINT('',(0.182020131075131,-0.000315402477979662,3.79513725638388E-5));
#1526=CARTESIAN_POINT('',(0.038,0.,2.60237444818812E-18));
#1527=CARTESIAN_POINT('',(0.038,0.,2.60237444818812E-18));
#1528=CARTESIAN_POINT('',(0.038,0.,-0.0425));
#1529=CARTESIAN_POINT('',(0.,0.,2.60237444818812E-18));
#1530=CARTESIAN_POINT('',(0.,0.,-0.0425));
#1531=CARTESIAN_POINT('',(0.038,0.,0.));
#1532=CARTESIAN_POINT('',(0.,0.,0.));
#1533=CARTESIAN_POINT('',(-0.0496679829312191,-0.0696349393171382,-0.0470342375925299));
#1534=CARTESIAN_POINT('',(0.056311251536891,-0.069355258055377,-0.0465716764212273));
#1535=CARTESIAN_POINT('',(0.0626597006048542,0.0163795461083877,0.015));
#1536=CARTESIAN_POINT('',(0.0626597006048542,0.0163795461083877,0.));
#1537=CARTESIAN_POINT('',(0.0951597006048542,0.0163795461083877,0.));
#1538=CARTESIAN_POINT('',(0.0301597006048541,0.0163795461083877,0.));
#1539=CARTESIAN_POINT('',(0.0301597006048541,0.0163795461083877,0.015));
#1540=CARTESIAN_POINT('',(0.0301597006048541,0.0163795461083877,0.015));
#1541=CARTESIAN_POINT('',(0.0626597006048542,0.0163795461083877,0.015));
#1542=CARTESIAN_POINT('',(0.0951597006048542,0.0163795461083877,0.015));
#1543=CARTESIAN_POINT('',(0.0951597006048542,0.0163795461083877,0.015));
#1544=CARTESIAN_POINT('',(0.0951597006048542,-0.0111204538916123,0.015));
#1545=CARTESIAN_POINT('',(0.0951597006048542,-0.0111204538916123,0.));
#1546=CARTESIAN_POINT('',(0.0951597006048542,-0.0386204538916123,0.));
#1547=CARTESIAN_POINT('',(0.0951597006048542,-0.0111204538916123,0.015));
#1548=CARTESIAN_POINT('',(0.0951597006048542,-0.0386204538916123,0.015));
#1549=CARTESIAN_POINT('',(0.0951597006048542,-0.0386204538916123,0.015));
#1550=CARTESIAN_POINT('',(0.0626597006048542,-0.0386204538916123,0.015));
#1551=CARTESIAN_POINT('',(0.0626597006048542,-0.0386204538916123,0.));
#1552=CARTESIAN_POINT('',(0.0301597006048541,-0.0386204538916123,0.));
#1553=CARTESIAN_POINT('',(0.0626597006048542,-0.0386204538916123,0.015));
#1554=CARTESIAN_POINT('',(0.0301597006048541,-0.0386204538916123,0.015));
#1555=CARTESIAN_POINT('',(0.0301597006048541,-0.0386204538916123,0.015));
#1556=CARTESIAN_POINT('',(0.0301597006048541,-0.0111204538916123,0.015));
#1557=CARTESIAN_POINT('',(0.0301597006048541,-0.0111204538916123,0.));
#1558=CARTESIAN_POINT('',(0.0301597006048541,-0.0111204538916123,0.015));
#1559=CARTESIAN_POINT('',(0.000159700604854151,-0.0136204538916123,0.015));
#1560=CARTESIAN_POINT('',(0.000159700604854151,-0.0136204538916123,0.));
#1561=CARTESIAN_POINT('',(0.,0.,0.));
#1562=CARTESIAN_POINT('',(-0.110340299395146,-0.0231204538916123,0.013));
#1563=CARTESIAN_POINT('',(-0.110340299395146,-0.0231204538916123,0.013));
#1564=CARTESIAN_POINT('',(-0.110340299395146,-0.0231204538916123,0.0205));
#1565=CARTESIAN_POINT('',(-0.105340299395146,-0.0231204538916123,0.013));
#1566=CARTESIAN_POINT('',(-0.105340299395146,-0.0231204538916123,0.0205));
#1567=CARTESIAN_POINT('',(-0.110340299395146,-0.0131204538916123,0.013));
#1568=CARTESIAN_POINT('',(-0.105340299395146,-0.0131204538916123,0.013));
#1569=CARTESIAN_POINT('',(0.,0.,0.));
#1570=CARTESIAN_POINT('',(-0.000103198766708376,0.0767951795365679,-0.000141605757176876));
#1571=CARTESIAN_POINT('',(8.44746828079224E-5,0.042110089212656,-0.029));
#1572=CARTESIAN_POINT('',(8.44746828079224E-5,0.042110089212656,-0.032));
#1573=CARTESIAN_POINT('',(-0.110023833811283,0.042110089212656,-0.032));
#1574=CARTESIAN_POINT('',(0.110192783176899,0.042110089212656,-0.032));
#1575=CARTESIAN_POINT('',(-0.110023833811283,0.042110089212656,-0.029));
#1576=CARTESIAN_POINT('',(-0.110023833811283,0.042110089212656,-0.029));
#1577=CARTESIAN_POINT('',(8.44746828079224E-5,0.042110089212656,-0.029));
#1578=CARTESIAN_POINT('',(0.110192783176899,0.042110089212656,-0.029));
#1579=CARTESIAN_POINT('',(0.110192783176899,0.042110089212656,-0.029));
#1580=CARTESIAN_POINT('',(-0.110023833811283,-0.0134964492172003,-0.029));
#1581=CARTESIAN_POINT('',(-0.110023833811283,-0.0134964492172003,-0.032));
#1582=CARTESIAN_POINT('',(-0.110023833811283,-0.0691029876470566,-0.032));
#1583=CARTESIAN_POINT('',(-0.110023833811283,-0.0691029876470566,-0.029));
#1584=CARTESIAN_POINT('',(-0.110023833811283,-0.0691029876470566,-0.029));
#1585=CARTESIAN_POINT('',(-0.110023833811283,-0.0134964492172003,-0.029));
#1586=CARTESIAN_POINT('',(8.44746828079224E-5,-0.0691029876470566,-0.029));
#1587=CARTESIAN_POINT('',(8.44746828079224E-5,-0.0691029876470566,-0.032));
#1588=CARTESIAN_POINT('',(0.110192783176899,-0.0691029876470566,-0.032));
#1589=CARTESIAN_POINT('',(0.110192783176899,-0.0691029876470566,-0.029));
#1590=CARTESIAN_POINT('',(0.110192783176899,-0.0691029876470566,-0.029));
#1591=CARTESIAN_POINT('',(8.44746828079224E-5,-0.0691029876470566,-0.029));
#1592=CARTESIAN_POINT('',(0.110192783176899,-0.0134964492172003,-0.029));
#1593=CARTESIAN_POINT('',(0.110192783176899,-0.0134964492172003,-0.032));
#1594=CARTESIAN_POINT('',(0.110192783176899,-0.0134964492172003,-0.029));
#1595=CARTESIAN_POINT('',(8.44746828079224E-5,-0.0134964492172003,-0.029));
#1596=CARTESIAN_POINT('',(8.44746828079224E-5,-0.0134964492172003,-0.032));
#1597=CARTESIAN_POINT('',(0.,0.,0.));
#1598=CARTESIAN_POINT('',(0.05628603417897,0.0800358489730888,-0.0465283018759157));
#1599=CARTESIAN_POINT('',(0.000159700604854151,-0.0136204538916123,0.003));
#1600=CARTESIAN_POINT('',(0.110159700604854,-0.0136204538916123,0.003));
#1601=CARTESIAN_POINT('',(0.110159700604854,0.0413795461083877,0.003));
#1602=CARTESIAN_POINT('',(0.110159700604854,-0.0686204538916123,0.003));
#1603=CARTESIAN_POINT('',(0.000159700604854137,0.0413795461083877,0.003));
#1604=CARTESIAN_POINT('',(-0.109840299395146,0.0413795461083877,0.003));
#1605=CARTESIAN_POINT('',(-0.109840299395146,-0.0136204538916123,0.003));
#1606=CARTESIAN_POINT('',(-0.109840299395146,-0.0686204538916123,0.003));
#1607=CARTESIAN_POINT('',(0.000159700604854151,-0.0686204538916123,0.003));
#1608=CARTESIAN_POINT('',(-0.0908402993951458,-0.0120027916675036,0.003));
#1609=CARTESIAN_POINT('',(-0.0908402993951458,0.00149720833249637,0.003));
#1610=CARTESIAN_POINT('',(-0.0908402993951458,-0.0255027916675036,0.003));
#1611=CARTESIAN_POINT('',(-0.0883402993951458,0.00149720833249637,0.003));
#1612=CARTESIAN_POINT('',(-0.0858402993951458,0.00149720833249637,0.003));
#1613=CARTESIAN_POINT('',(-0.0858402993951458,-0.0120027916675036,0.003));
#1614=CARTESIAN_POINT('',(-0.0858402993951458,-0.0255027916675036,0.003));
#1615=CARTESIAN_POINT('',(-0.0883402993951458,-0.0255027916675036,0.003));
#1616=CARTESIAN_POINT('',(0.110159700604854,-0.0136204538916123,0.003));
#1617=CARTESIAN_POINT('',(0.110159700604854,-0.0136204538916123,0.));
#1618=CARTESIAN_POINT('',(0.110159700604854,0.0413795461083877,0.));
#1619=CARTESIAN_POINT('',(0.110159700604854,-0.0686204538916123,0.));
#1620=CARTESIAN_POINT('',(0.110159700604854,0.0413795461083877,0.003));
#1621=CARTESIAN_POINT('',(0.110159700604854,-0.0686204538916123,0.003));
#1622=CARTESIAN_POINT('',(0.000159700604854137,0.0413795461083877,0.003));
#1623=CARTESIAN_POINT('',(0.000159700604854137,0.0413795461083877,0.));
#1624=CARTESIAN_POINT('',(-0.109840299395146,0.0413795461083877,0.));
#1625=CARTESIAN_POINT('',(-0.109840299395146,0.0413795461083877,0.003));
#1626=CARTESIAN_POINT('',(-0.109840299395146,-0.0136204538916123,0.003));
#1627=CARTESIAN_POINT('',(-0.109840299395146,-0.0136204538916123,0.));
#1628=CARTESIAN_POINT('',(-0.109840299395146,-0.0686204538916123,0.));
#1629=CARTESIAN_POINT('',(-0.109840299395146,-0.0686204538916123,0.003));
#1630=CARTESIAN_POINT('',(0.000159700604854151,-0.0686204538916123,0.003));
#1631=CARTESIAN_POINT('',(0.000159700604854151,-0.0686204538916123,0.));
#1632=CARTESIAN_POINT('',(0.000159700604854151,-0.0136204538916123,0.));
#1633=CARTESIAN_POINT('',(-0.0883402993951458,0.00149720833249637,0.043));
#1634=CARTESIAN_POINT('',(-0.0908402993951458,0.00149720833249637,0.043));
#1635=CARTESIAN_POINT('',(-0.0908402993951458,0.00149720833249637,0.043));
#1636=CARTESIAN_POINT('',(-0.0883402993951458,0.00149720833249637,0.043));
#1637=CARTESIAN_POINT('',(-0.0858402993951458,0.00149720833249637,0.043));
#1638=CARTESIAN_POINT('',(-0.0858402993951458,0.00149720833249637,0.043));
#1639=CARTESIAN_POINT('',(-0.0908402993951458,-0.0120027916675036,0.043));
#1640=CARTESIAN_POINT('',(-0.0908402993951458,-0.0120027916675036,0.0335));
#1641=CARTESIAN_POINT('',(-0.0908402993951458,-0.0120027916675036,0.0275));
#1642=CARTESIAN_POINT('',(-0.0908402993951458,-0.0255027916675036,0.043));
#1643=CARTESIAN_POINT('',(-0.0908402993951458,-0.0255027916675036,0.043));
#1644=CARTESIAN_POINT('',(-0.0908402993951458,-0.0120027916675036,0.043));
#1645=CARTESIAN_POINT('',(-0.0883402993951458,-0.0255027916675036,0.043));
#1646=CARTESIAN_POINT('',(-0.0858402993951458,-0.0255027916675036,0.043));
#1647=CARTESIAN_POINT('',(-0.0858402993951458,-0.0255027916675036,0.043));
#1648=CARTESIAN_POINT('',(-0.0883402993951458,-0.0255027916675036,0.043));
#1649=CARTESIAN_POINT('',(-0.0858402993951458,-0.0120027916675036,0.043));
#1650=CARTESIAN_POINT('',(-0.0858402993951458,-0.0120027916675036,0.043));
#1651=CARTESIAN_POINT('',(0.000159700604854151,-0.0136204538916123,0.043));
#1652=CARTESIAN_POINT('',(-0.0948402993951458,-0.0120027916675036,0.0335));
#1653=CARTESIAN_POINT('',(-0.0948402993951458,-0.0120027916675036,0.0335));
#1654=CARTESIAN_POINT('',(-0.0948402993951458,-0.0120027916675036,0.0395));
#1655=CARTESIAN_POINT('',(-0.0948402993951458,-0.0120027916675036,0.023));
#1656=CARTESIAN_POINT('',(0.,0.,0.));
#1657=CARTESIAN_POINT('',(-0.0496390069648623,0.042350610521622,-0.0468574078939855));
#1658=MECHANICAL_DESIGN_GEOMETRIC_PRESENTATION_REPRESENTATION('',(#884,
#885,#886,#10,#11,#12,#13,#14,#15,#887,#888,#889,#890,#891,#892,#16,#17,
#18,#19,#20,#21,#893,#22,#23,#24,#25,#26),#1659);
#1659=(
GEOMETRIC_REPRESENTATION_CONTEXT(3)
GLOBAL_UNCERTAINTY_ASSIGNED_CONTEXT((#1670))
GLOBAL_UNIT_ASSIGNED_CONTEXT((#1683,#1682,#1681))
REPRESENTATION_CONTEXT('Assembly 1','TOP_LEVEL_ASSEMBLY_PART')
);
#1660=(
GEOMETRIC_REPRESENTATION_CONTEXT(3)
GLOBAL_UNCERTAINTY_ASSIGNED_CONTEXT((#1671))
GLOBAL_UNIT_ASSIGNED_CONTEXT((#1683,#1682,#1681))
REPRESENTATION_CONTEXT('Part 6','COMPONENT_PART')
);
#1661=(
GEOMETRIC_REPRESENTATION_CONTEXT(3)
GLOBAL_UNCERTAINTY_ASSIGNED_CONTEXT((#1672))
GLOBAL_UNIT_ASSIGNED_CONTEXT((#1683,#1682,#1681))
REPRESENTATION_CONTEXT('Part 4','COMPONENT_PART')
);
#1662=(
GEOMETRIC_REPRESENTATION_CONTEXT(3)
GLOBAL_UNCERTAINTY_ASSIGNED_CONTEXT((#1673))
GLOBAL_UNIT_ASSIGNED_CONTEXT((#1683,#1682,#1681))
REPRESENTATION_CONTEXT('Part 5','COMPONENT_PART')
);
#1663=(
GEOMETRIC_REPRESENTATION_CONTEXT(3)
GLOBAL_UNCERTAINTY_ASSIGNED_CONTEXT((#1674))
GLOBAL_UNIT_ASSIGNED_CONTEXT((#1683,#1682,#1681))
REPRESENTATION_CONTEXT('Part 9','COMPONENT_PART')
);
#1664=(
GEOMETRIC_REPRESENTATION_CONTEXT(3)
GLOBAL_UNCERTAINTY_ASSIGNED_CONTEXT((#1675))
GLOBAL_UNIT_ASSIGNED_CONTEXT((#1683,#1682,#1681))
REPRESENTATION_CONTEXT('Part 3','COMPONENT_PART')
);
#1665=(
GEOMETRIC_REPRESENTATION_CONTEXT(3)
GLOBAL_UNCERTAINTY_ASSIGNED_CONTEXT((#1676))
GLOBAL_UNIT_ASSIGNED_CONTEXT((#1683,#1682,#1681))
REPRESENTATION_CONTEXT('Part 1','COMPONENT_PART')
);
#1666=(
GEOMETRIC_REPRESENTATION_CONTEXT(3)
GLOBAL_UNCERTAINTY_ASSIGNED_CONTEXT((#1677))
GLOBAL_UNIT_ASSIGNED_CONTEXT((#1683,#1682,#1681))
REPRESENTATION_CONTEXT('Part 2','COMPONENT_PART')
);
#1667=(
GEOMETRIC_REPRESENTATION_CONTEXT(3)
GLOBAL_UNCERTAINTY_ASSIGNED_CONTEXT((#1678))
GLOBAL_UNIT_ASSIGNED_CONTEXT((#1683,#1682,#1681))
REPRESENTATION_CONTEXT('Part 7','COMPONENT_PART')
);
#1668=(
GEOMETRIC_REPRESENTATION_CONTEXT(3)
GLOBAL_UNCERTAINTY_ASSIGNED_CONTEXT((#1679))
GLOBAL_UNIT_ASSIGNED_CONTEXT((#1683,#1682,#1681))
REPRESENTATION_CONTEXT('Part 8','COMPONENT_PART')
);
#1669=(
GEOMETRIC_REPRESENTATION_CONTEXT(3)
GLOBAL_UNCERTAINTY_ASSIGNED_CONTEXT((#1680))
GLOBAL_UNIT_ASSIGNED_CONTEXT((#1683,#1682,#1681))
REPRESENTATION_CONTEXT('Part 1','COMPONENT_PART')
);
#1670=UNCERTAINTY_MEASURE_WITH_UNIT(LENGTH_MEASURE(1.E-8),#1683,
'DISTANCE_ACCURACY_VALUE','Maximum Tolerance applied to model');
#1671=UNCERTAINTY_MEASURE_WITH_UNIT(LENGTH_MEASURE(1.E-8),#1683,
'DISTANCE_ACCURACY_VALUE','Maximum Tolerance applied to model');
#1672=UNCERTAINTY_MEASURE_WITH_UNIT(LENGTH_MEASURE(1.E-8),#1683,
'DISTANCE_ACCURACY_VALUE','Maximum Tolerance applied to model');
#1673=UNCERTAINTY_MEASURE_WITH_UNIT(LENGTH_MEASURE(1.E-8),#1683,
'DISTANCE_ACCURACY_VALUE','Maximum Tolerance applied to model');
#1674=UNCERTAINTY_MEASURE_WITH_UNIT(LENGTH_MEASURE(1.E-8),#1683,
'DISTANCE_ACCURACY_VALUE','Maximum Tolerance applied to model');
#1675=UNCERTAINTY_MEASURE_WITH_UNIT(LENGTH_MEASURE(1.E-8),#1683,
'DISTANCE_ACCURACY_VALUE','Maximum Tolerance applied to model');
#1676=UNCERTAINTY_MEASURE_WITH_UNIT(LENGTH_MEASURE(1.E-8),#1683,
'DISTANCE_ACCURACY_VALUE','Maximum Tolerance applied to model');
#1677=UNCERTAINTY_MEASURE_WITH_UNIT(LENGTH_MEASURE(1.E-8),#1683,
'DISTANCE_ACCURACY_VALUE','Maximum Tolerance applied to model');
#1678=UNCERTAINTY_MEASURE_WITH_UNIT(LENGTH_MEASURE(1.E-8),#1683,
'DISTANCE_ACCURACY_VALUE','Maximum Tolerance applied to model');
#1679=UNCERTAINTY_MEASURE_WITH_UNIT(LENGTH_MEASURE(1.E-8),#1683,
'DISTANCE_ACCURACY_VALUE','Maximum Tolerance applied to model');
#1680=UNCERTAINTY_MEASURE_WITH_UNIT(LENGTH_MEASURE(1.E-8),#1683,
'DISTANCE_ACCURACY_VALUE','Maximum Tolerance applied to model');
#1681=(
NAMED_UNIT(*)
SI_UNIT($,.STERADIAN.)
SOLID_ANGLE_UNIT()
);
#1682=(
NAMED_UNIT(*)
PLANE_ANGLE_UNIT()
SI_UNIT($,.RADIAN.)
);
#1683=(
LENGTH_UNIT()
NAMED_UNIT(*)
SI_UNIT($,.METRE.)
);
#1684=PRODUCT_DEFINITION_SHAPE('','',#1711);
#1685=PRODUCT_DEFINITION_SHAPE('','',#1712);
#1686=PRODUCT_DEFINITION_SHAPE(' ','NAUO PRDDFN',#214);
#1687=PRODUCT_DEFINITION_SHAPE('','',#1713);
#1688=PRODUCT_DEFINITION_SHAPE(' ','NAUO PRDDFN',#215);
#1689=PRODUCT_DEFINITION_SHAPE('','',#1714);
#1690=PRODUCT_DEFINITION_SHAPE(' ','NAUO PRDDFN',#216);
#1691=PRODUCT_DEFINITION_SHAPE('','',#1715);
#1692=PRODUCT_DEFINITION_SHAPE(' ','NAUO PRDDFN',#217);
#1693=PRODUCT_DEFINITION_SHAPE(' ','NAUO PRDDFN',#218);
#1694=PRODUCT_DEFINITION_SHAPE('','',#1716);
#1695=PRODUCT_DEFINITION_SHAPE(' ','NAUO PRDDFN',#219);
#1696=PRODUCT_DEFINITION_SHAPE(' ','NAUO PRDDFN',#220);
#1697=PRODUCT_DEFINITION_SHAPE('','',#1717);
#1698=PRODUCT_DEFINITION_SHAPE(' ','NAUO PRDDFN',#221);
#1699=PRODUCT_DEFINITION_SHAPE(' ','NAUO PRDDFN',#222);
#1700=PRODUCT_DEFINITION_SHAPE('','',#1718);
#1701=PRODUCT_DEFINITION_SHAPE(' ','NAUO PRDDFN',#223);
#1702=PRODUCT_DEFINITION_SHAPE('','',#1719);
#1703=PRODUCT_DEFINITION_SHAPE(' ','NAUO PRDDFN',#224);
#1704=PRODUCT_DEFINITION_SHAPE(' ','NAUO PRDDFN',#225);
#1705=PRODUCT_DEFINITION_SHAPE('','',#1720);
#1706=PRODUCT_DEFINITION_SHAPE(' ','NAUO PRDDFN',#226);
#1707=PRODUCT_DEFINITION_SHAPE(' ','NAUO PRDDFN',#227);
#1708=PRODUCT_DEFINITION_SHAPE('','',#1721);
#1709=PRODUCT_DEFINITION_SHAPE(' ','NAUO PRDDFN',#228);
#1710=PRODUCT_DEFINITION_SHAPE(' ','NAUO PRDDFN',#229);
#1711=PRODUCT_DEFINITION('','',#1733,#1722);
#1712=PRODUCT_DEFINITION('','',#1734,#1723);
#1713=PRODUCT_DEFINITION('','',#1735,#1724);
#1714=PRODUCT_DEFINITION('','',#1736,#1725);
#1715=PRODUCT_DEFINITION('','',#1737,#1726);
#1716=PRODUCT_DEFINITION('','',#1738,#1727);
#1717=PRODUCT_DEFINITION('','',#1739,#1728);
#1718=PRODUCT_DEFINITION('','',#1740,#1729);
#1719=PRODUCT_DEFINITION('','',#1741,#1730);
#1720=PRODUCT_DEFINITION('','',#1742,#1731);
#1721=PRODUCT_DEFINITION('','',#1743,#1732);
#1722=PRODUCT_DEFINITION_CONTEXT('',#1789,'design');
#1723=PRODUCT_DEFINITION_CONTEXT('',#1789,'design');
#1724=PRODUCT_DEFINITION_CONTEXT('',#1789,'design');
#1725=PRODUCT_DEFINITION_CONTEXT('',#1789,'design');
#1726=PRODUCT_DEFINITION_CONTEXT('',#1789,'design');
#1727=PRODUCT_DEFINITION_CONTEXT('',#1789,'design');
#1728=PRODUCT_DEFINITION_CONTEXT('',#1789,'design');
#1729=PRODUCT_DEFINITION_CONTEXT('',#1789,'design');
#1730=PRODUCT_DEFINITION_CONTEXT('',#1789,'design');
#1731=PRODUCT_DEFINITION_CONTEXT('',#1789,'design');
#1732=PRODUCT_DEFINITION_CONTEXT('',#1789,'design');
#1733=PRODUCT_DEFINITION_FORMATION_WITH_SPECIFIED_SOURCE('','',#1755,
 .NOT_KNOWN.);
#1734=PRODUCT_DEFINITION_FORMATION_WITH_SPECIFIED_SOURCE('','',#1756,
 .NOT_KNOWN.);
#1735=PRODUCT_DEFINITION_FORMATION_WITH_SPECIFIED_SOURCE('','',#1757,
 .NOT_KNOWN.);
#1736=PRODUCT_DEFINITION_FORMATION_WITH_SPECIFIED_SOURCE('','',#1758,
 .NOT_KNOWN.);
#1737=PRODUCT_DEFINITION_FORMATION_WITH_SPECIFIED_SOURCE('','',#1759,
 .NOT_KNOWN.);
#1738=PRODUCT_DEFINITION_FORMATION_WITH_SPECIFIED_SOURCE('','',#1760,
 .NOT_KNOWN.);
#1739=PRODUCT_DEFINITION_FORMATION_WITH_SPECIFIED_SOURCE('','',#1761,
 .NOT_KNOWN.);
#1740=PRODUCT_DEFINITION_FORMATION_WITH_SPECIFIED_SOURCE('','',#1762,
 .NOT_KNOWN.);
#1741=PRODUCT_DEFINITION_FORMATION_WITH_SPECIFIED_SOURCE('','',#1763,
 .NOT_KNOWN.);
#1742=PRODUCT_DEFINITION_FORMATION_WITH_SPECIFIED_SOURCE('','',#1764,
 .NOT_KNOWN.);
#1743=PRODUCT_DEFINITION_FORMATION_WITH_SPECIFIED_SOURCE('','',#1765,
 .NOT_KNOWN.);
#1744=PRODUCT_RELATED_PRODUCT_CATEGORY('','',(#1755));
#1745=PRODUCT_RELATED_PRODUCT_CATEGORY('','',(#1756));
#1746=PRODUCT_RELATED_PRODUCT_CATEGORY('','',(#1757));
#1747=PRODUCT_RELATED_PRODUCT_CATEGORY('','',(#1758));
#1748=PRODUCT_RELATED_PRODUCT_CATEGORY('','',(#1759));
#1749=PRODUCT_RELATED_PRODUCT_CATEGORY('','',(#1760));
#1750=PRODUCT_RELATED_PRODUCT_CATEGORY('','',(#1761));
#1751=PRODUCT_RELATED_PRODUCT_CATEGORY('','',(#1762));
#1752=PRODUCT_RELATED_PRODUCT_CATEGORY('','',(#1763));
#1753=PRODUCT_RELATED_PRODUCT_CATEGORY('','',(#1764));
#1754=PRODUCT_RELATED_PRODUCT_CATEGORY('','',(#1765));
#1755=PRODUCT('Assembly 1','Assembly 1','Assembly 1',(#1777));
#1756=PRODUCT('Part 6','Part 6','Part 6',(#1778));
#1757=PRODUCT('Part 4','Part 4','Part 4',(#1779));
#1758=PRODUCT('Part 5','Part 5','Part 5',(#1780));
#1759=PRODUCT('Part 9','Part 9','Part 9',(#1781));
#1760=PRODUCT('Part 3','Part 3','Part 3',(#1782));
#1761=PRODUCT('Part 1','Part 1','Part 1',(#1783));
#1762=PRODUCT('Part 2','Part 2','Part 2',(#1784));
#1763=PRODUCT('Part 7','Part 7','Part 7',(#1785));
#1764=PRODUCT('Part 8','Part 8','Part 8',(#1786));
#1765=PRODUCT('Part 1','Part 1','Part 1',(#1787));
#1766=PRODUCT_CATEGORY('','');
#1767=PRODUCT_CATEGORY('','');
#1768=PRODUCT_CATEGORY('','');
#1769=PRODUCT_CATEGORY('','');
#1770=PRODUCT_CATEGORY('','');
#1771=PRODUCT_CATEGORY('','');
#1772=PRODUCT_CATEGORY('','');
#1773=PRODUCT_CATEGORY('','');
#1774=PRODUCT_CATEGORY('','');
#1775=PRODUCT_CATEGORY('','');
#1776=PRODUCT_CATEGORY('','');
#1777=PRODUCT_CONTEXT('',#1789,'mechanical');
#1778=PRODUCT_CONTEXT('',#1789,'mechanical');
#1779=PRODUCT_CONTEXT('',#1789,'mechanical');
#1780=PRODUCT_CONTEXT('',#1789,'mechanical');
#1781=PRODUCT_CONTEXT('',#1789,'mechanical');
#1782=PRODUCT_CONTEXT('',#1789,'mechanical');
#1783=PRODUCT_CONTEXT('',#1789,'mechanical');
#1784=PRODUCT_CONTEXT('',#1789,'mechanical');
#1785=PRODUCT_CONTEXT('',#1789,'mechanical');
#1786=PRODUCT_CONTEXT('',#1789,'mechanical');
#1787=PRODUCT_CONTEXT('',#1789,'mechanical');
#1788=APPLICATION_PROTOCOL_DEFINITION('international standard',
'ap242_managed_model_based_3d_engineering',2020,#1789);
#1789=APPLICATION_CONTEXT('managed model based 3d engineering');
ENDSEC;
END-ISO-10303-21;
