ISO-10303-21;
HEADER;
/* Generated by software containing ST-Developer
 * from STEP Tools, Inc. (www.steptools.com) 
 */
/* OPTION: using custom renumber hook */

FILE_DESCRIPTION(
/* description */ ('STEP AP242 Edition 2',
'CAx-IF Rec.Pracs.---Representation and Presentation of Product Manufa
cturing Information (PMI)---4.0---2014-10-13',
'CAx-IF Rec.Pracs.---3D Tessellated Geometry---0.4---2014-09-14','2;1',
'CAx-IF Rec.Pracs.---User Defined Attributes---1.5---2016-08-15'),
/* implementation_level */ '2;1');

FILE_NAME(
/* name */ 'Part Studio 1',
/* time_stamp */ '2026-08-07T18:50:26Z',
/* author */ (''),
/* organization */ (''),
/* preprocessor_version */ 'ST-DEVELOPER v20',
/* originating_system */ 'ONSHAPE BY PTC INC, 1.219',
/* authorisation */ '  ');

FILE_SCHEMA (('AP242_MANAGED_MODEL_BASED_3D_ENGINEERING_MIM_LF { 1 0 10303 442 3 1 4 }'));
ENDSEC;

DATA;
#10=MANIFOLD_SURFACE_SHAPE_REPRESENTATION('',(#16),#1729);
#11=MANIFOLD_SURFACE_SHAPE_REPRESENTATION('',(#17),#1732);
#12=MANIFOLD_SURFACE_SHAPE_REPRESENTATION('',(#18),#1733);
#13=OPEN_SHELL('',(#840));
#14=OPEN_SHELL('',(#847));
#15=OPEN_SHELL('',(#848));
#16=SHELL_BASED_SURFACE_MODEL('Surface 3',(#13));
#17=SHELL_BASED_SURFACE_MODEL('Surface 2',(#14));
#18=SHELL_BASED_SURFACE_MODEL('Surface 1',(#15));
#19=DRAUGHTING_PRE_DEFINED_COLOUR('red');
#20=DRAUGHTING_PRE_DEFINED_COLOUR('blue');
#21=DRAUGHTING_PRE_DEFINED_COLOUR('black');
#22=CIRCLE('',#1137,0.003);
#23=CIRCLE('',#1138,0.003);
#24=CIRCLE('',#1171,0.006);
#25=CIRCLE('',#1172,0.006);
#26=CIRCLE('',#1191,0.003);
#27=CIRCLE('',#1192,0.003);
#28=CIRCLE('',#1195,0.0075);
#29=CIRCLE('',#1196,0.0075);
#30=CIRCLE('',#1201,0.0075);
#31=CIRCLE('',#1202,0.0075);
#32=CIRCLE('',#1207,0.003);
#33=CIRCLE('',#1208,0.003);
#34=CIRCLE('',#1211,0.003);
#35=CIRCLE('',#1212,0.003);
#36=CYLINDRICAL_SURFACE('',#1136,0.003);
#37=CYLINDRICAL_SURFACE('',#1170,0.006);
#38=CYLINDRICAL_SURFACE('',#1190,0.003);
#39=CYLINDRICAL_SURFACE('',#1194,0.0075);
#40=CYLINDRICAL_SURFACE('',#1200,0.0075);
#41=CYLINDRICAL_SURFACE('',#1206,0.003);
#42=CYLINDRICAL_SURFACE('',#1210,0.003);
#43=SHAPE_REPRESENTATION_RELATIONSHIP('','',#1114,#57);
#44=SHAPE_REPRESENTATION_RELATIONSHIP('','',#1115,#58);
#45=SHAPE_REPRESENTATION_RELATIONSHIP('','',#1116,#59);
#46=SHAPE_REPRESENTATION_RELATIONSHIP('','',#1117,#60);
#47=SHAPE_REPRESENTATION_RELATIONSHIP('','',#1118,#61);
#48=SHAPE_REPRESENTATION_RELATIONSHIP('','',#1119,#62);
#49=SHAPE_REPRESENTATION_RELATIONSHIP('','',#1120,#63);
#50=SHAPE_REPRESENTATION_RELATIONSHIP('','',#1121,#64);
#51=SHAPE_REPRESENTATION_RELATIONSHIP('','',#1122,#65);
#52=SHAPE_REPRESENTATION_RELATIONSHIP('','',#1123,#10);
#53=SHAPE_REPRESENTATION_RELATIONSHIP('','',#1124,#66);
#54=SHAPE_REPRESENTATION_RELATIONSHIP('','',#1125,#67);
#55=SHAPE_REPRESENTATION_RELATIONSHIP('','',#1126,#11);
#56=SHAPE_REPRESENTATION_RELATIONSHIP('','',#1127,#12);
#57=ADVANCED_BREP_SHAPE_REPRESENTATION('',(#1089),#1720);
#58=ADVANCED_BREP_SHAPE_REPRESENTATION('',(#1090),#1721);
#59=ADVANCED_BREP_SHAPE_REPRESENTATION('',(#1091),#1722);
#60=ADVANCED_BREP_SHAPE_REPRESENTATION('',(#1092),#1723);
#61=ADVANCED_BREP_SHAPE_REPRESENTATION('',(#1093),#1724);
#62=ADVANCED_BREP_SHAPE_REPRESENTATION('',(#1094),#1725);
#63=ADVANCED_BREP_SHAPE_REPRESENTATION('',(#1095),#1726);
#64=ADVANCED_BREP_SHAPE_REPRESENTATION('',(#1096),#1727);
#65=ADVANCED_BREP_SHAPE_REPRESENTATION('',(#1097),#1728);
#66=ADVANCED_BREP_SHAPE_REPRESENTATION('',(#1098),#1730);
#67=ADVANCED_BREP_SHAPE_REPRESENTATION('',(#1099),#1731);
#68=ORIENTED_EDGE('',*,*,#258,.F.);
#69=ORIENTED_EDGE('',*,*,#259,.F.);
#70=ORIENTED_EDGE('',*,*,#260,.T.);
#71=ORIENTED_EDGE('',*,*,#261,.T.);
#72=ORIENTED_EDGE('',*,*,#262,.T.);
#73=ORIENTED_EDGE('',*,*,#263,.F.);
#74=ORIENTED_EDGE('',*,*,#264,.F.);
#75=ORIENTED_EDGE('',*,*,#259,.T.);
#76=ORIENTED_EDGE('',*,*,#265,.T.);
#77=ORIENTED_EDGE('',*,*,#266,.F.);
#78=ORIENTED_EDGE('',*,*,#267,.F.);
#79=ORIENTED_EDGE('',*,*,#263,.T.);
#80=ORIENTED_EDGE('',*,*,#268,.F.);
#81=ORIENTED_EDGE('',*,*,#261,.F.);
#82=ORIENTED_EDGE('',*,*,#269,.T.);
#83=ORIENTED_EDGE('',*,*,#266,.T.);
#84=ORIENTED_EDGE('',*,*,#260,.F.);
#85=ORIENTED_EDGE('',*,*,#264,.T.);
#86=ORIENTED_EDGE('',*,*,#267,.T.);
#87=ORIENTED_EDGE('',*,*,#269,.F.);
#88=ORIENTED_EDGE('',*,*,#258,.T.);
#89=ORIENTED_EDGE('',*,*,#268,.T.);
#90=ORIENTED_EDGE('',*,*,#265,.F.);
#91=ORIENTED_EDGE('',*,*,#262,.F.);
#92=ORIENTED_EDGE('',*,*,#270,.F.);
#93=ORIENTED_EDGE('',*,*,#271,.T.);
#94=ORIENTED_EDGE('',*,*,#270,.T.);
#95=ORIENTED_EDGE('',*,*,#271,.F.);
#96=ORIENTED_EDGE('',*,*,#272,.T.);
#97=ORIENTED_EDGE('',*,*,#273,.F.);
#98=ORIENTED_EDGE('',*,*,#274,.F.);
#99=ORIENTED_EDGE('',*,*,#275,.T.);
#100=ORIENTED_EDGE('',*,*,#276,.F.);
#101=ORIENTED_EDGE('',*,*,#275,.F.);
#102=ORIENTED_EDGE('',*,*,#277,.T.);
#103=ORIENTED_EDGE('',*,*,#278,.T.);
#104=ORIENTED_EDGE('',*,*,#279,.F.);
#105=ORIENTED_EDGE('',*,*,#278,.F.);
#106=ORIENTED_EDGE('',*,*,#280,.T.);
#107=ORIENTED_EDGE('',*,*,#281,.T.);
#108=ORIENTED_EDGE('',*,*,#282,.T.);
#109=ORIENTED_EDGE('',*,*,#281,.F.);
#110=ORIENTED_EDGE('',*,*,#283,.F.);
#111=ORIENTED_EDGE('',*,*,#273,.T.);
#112=ORIENTED_EDGE('',*,*,#274,.T.);
#113=ORIENTED_EDGE('',*,*,#283,.T.);
#114=ORIENTED_EDGE('',*,*,#280,.F.);
#115=ORIENTED_EDGE('',*,*,#277,.F.);
#116=ORIENTED_EDGE('',*,*,#272,.F.);
#117=ORIENTED_EDGE('',*,*,#276,.T.);
#118=ORIENTED_EDGE('',*,*,#279,.T.);
#119=ORIENTED_EDGE('',*,*,#282,.F.);
#120=ORIENTED_EDGE('',*,*,#284,.F.);
#121=ORIENTED_EDGE('',*,*,#285,.F.);
#122=ORIENTED_EDGE('',*,*,#286,.T.);
#123=ORIENTED_EDGE('',*,*,#287,.T.);
#124=ORIENTED_EDGE('',*,*,#288,.T.);
#125=ORIENTED_EDGE('',*,*,#289,.F.);
#126=ORIENTED_EDGE('',*,*,#290,.F.);
#127=ORIENTED_EDGE('',*,*,#285,.T.);
#128=ORIENTED_EDGE('',*,*,#291,.T.);
#129=ORIENTED_EDGE('',*,*,#292,.F.);
#130=ORIENTED_EDGE('',*,*,#293,.F.);
#131=ORIENTED_EDGE('',*,*,#289,.T.);
#132=ORIENTED_EDGE('',*,*,#294,.F.);
#133=ORIENTED_EDGE('',*,*,#287,.F.);
#134=ORIENTED_EDGE('',*,*,#295,.T.);
#135=ORIENTED_EDGE('',*,*,#292,.T.);
#136=ORIENTED_EDGE('',*,*,#286,.F.);
#137=ORIENTED_EDGE('',*,*,#290,.T.);
#138=ORIENTED_EDGE('',*,*,#293,.T.);
#139=ORIENTED_EDGE('',*,*,#295,.F.);
#140=ORIENTED_EDGE('',*,*,#284,.T.);
#141=ORIENTED_EDGE('',*,*,#294,.T.);
#142=ORIENTED_EDGE('',*,*,#291,.F.);
#143=ORIENTED_EDGE('',*,*,#288,.F.);
#144=ORIENTED_EDGE('',*,*,#296,.T.);
#145=ORIENTED_EDGE('',*,*,#297,.F.);
#146=ORIENTED_EDGE('',*,*,#298,.F.);
#147=ORIENTED_EDGE('',*,*,#299,.T.);
#148=ORIENTED_EDGE('',*,*,#300,.F.);
#149=ORIENTED_EDGE('',*,*,#299,.F.);
#150=ORIENTED_EDGE('',*,*,#301,.T.);
#151=ORIENTED_EDGE('',*,*,#302,.T.);
#152=ORIENTED_EDGE('',*,*,#303,.F.);
#153=ORIENTED_EDGE('',*,*,#302,.F.);
#154=ORIENTED_EDGE('',*,*,#304,.T.);
#155=ORIENTED_EDGE('',*,*,#305,.T.);
#156=ORIENTED_EDGE('',*,*,#306,.T.);
#157=ORIENTED_EDGE('',*,*,#305,.F.);
#158=ORIENTED_EDGE('',*,*,#307,.F.);
#159=ORIENTED_EDGE('',*,*,#297,.T.);
#160=ORIENTED_EDGE('',*,*,#298,.T.);
#161=ORIENTED_EDGE('',*,*,#307,.T.);
#162=ORIENTED_EDGE('',*,*,#304,.F.);
#163=ORIENTED_EDGE('',*,*,#301,.F.);
#164=ORIENTED_EDGE('',*,*,#296,.F.);
#165=ORIENTED_EDGE('',*,*,#300,.T.);
#166=ORIENTED_EDGE('',*,*,#303,.T.);
#167=ORIENTED_EDGE('',*,*,#306,.F.);
#168=ORIENTED_EDGE('',*,*,#308,.F.);
#169=ORIENTED_EDGE('',*,*,#309,.F.);
#170=ORIENTED_EDGE('',*,*,#310,.T.);
#171=ORIENTED_EDGE('',*,*,#311,.T.);
#172=ORIENTED_EDGE('',*,*,#312,.T.);
#173=ORIENTED_EDGE('',*,*,#313,.F.);
#174=ORIENTED_EDGE('',*,*,#314,.F.);
#175=ORIENTED_EDGE('',*,*,#309,.T.);
#176=ORIENTED_EDGE('',*,*,#315,.T.);
#177=ORIENTED_EDGE('',*,*,#316,.F.);
#178=ORIENTED_EDGE('',*,*,#317,.F.);
#179=ORIENTED_EDGE('',*,*,#313,.T.);
#180=ORIENTED_EDGE('',*,*,#318,.F.);
#181=ORIENTED_EDGE('',*,*,#311,.F.);
#182=ORIENTED_EDGE('',*,*,#319,.T.);
#183=ORIENTED_EDGE('',*,*,#316,.T.);
#184=ORIENTED_EDGE('',*,*,#310,.F.);
#185=ORIENTED_EDGE('',*,*,#314,.T.);
#186=ORIENTED_EDGE('',*,*,#317,.T.);
#187=ORIENTED_EDGE('',*,*,#319,.F.);
#188=ORIENTED_EDGE('',*,*,#308,.T.);
#189=ORIENTED_EDGE('',*,*,#318,.T.);
#190=ORIENTED_EDGE('',*,*,#315,.F.);
#191=ORIENTED_EDGE('',*,*,#312,.F.);
#192=ORIENTED_EDGE('',*,*,#320,.F.);
#193=ORIENTED_EDGE('',*,*,#321,.T.);
#194=ORIENTED_EDGE('',*,*,#320,.T.);
#195=ORIENTED_EDGE('',*,*,#321,.F.);
#196=ORIENTED_EDGE('',*,*,#322,.T.);
#197=ORIENTED_EDGE('',*,*,#323,.F.);
#198=ORIENTED_EDGE('',*,*,#324,.F.);
#199=ORIENTED_EDGE('',*,*,#325,.T.);
#200=ORIENTED_EDGE('',*,*,#326,.F.);
#201=ORIENTED_EDGE('',*,*,#325,.F.);
#202=ORIENTED_EDGE('',*,*,#327,.T.);
#203=ORIENTED_EDGE('',*,*,#328,.T.);
#204=ORIENTED_EDGE('',*,*,#329,.F.);
#205=ORIENTED_EDGE('',*,*,#328,.F.);
#206=ORIENTED_EDGE('',*,*,#330,.T.);
#207=ORIENTED_EDGE('',*,*,#331,.T.);
#208=ORIENTED_EDGE('',*,*,#332,.T.);
#209=ORIENTED_EDGE('',*,*,#331,.F.);
#210=ORIENTED_EDGE('',*,*,#333,.F.);
#211=ORIENTED_EDGE('',*,*,#323,.T.);
#212=ORIENTED_EDGE('',*,*,#324,.T.);
#213=ORIENTED_EDGE('',*,*,#333,.T.);
#214=ORIENTED_EDGE('',*,*,#330,.F.);
#215=ORIENTED_EDGE('',*,*,#327,.F.);
#216=ORIENTED_EDGE('',*,*,#322,.F.);
#217=ORIENTED_EDGE('',*,*,#326,.T.);
#218=ORIENTED_EDGE('',*,*,#329,.T.);
#219=ORIENTED_EDGE('',*,*,#332,.F.);
#220=ORIENTED_EDGE('',*,*,#334,.F.);
#221=ORIENTED_EDGE('',*,*,#335,.F.);
#222=ORIENTED_EDGE('',*,*,#336,.T.);
#223=ORIENTED_EDGE('',*,*,#337,.T.);
#224=ORIENTED_EDGE('',*,*,#338,.T.);
#225=ORIENTED_EDGE('',*,*,#339,.F.);
#226=ORIENTED_EDGE('',*,*,#340,.F.);
#227=ORIENTED_EDGE('',*,*,#335,.T.);
#228=ORIENTED_EDGE('',*,*,#341,.T.);
#229=ORIENTED_EDGE('',*,*,#342,.F.);
#230=ORIENTED_EDGE('',*,*,#343,.F.);
#231=ORIENTED_EDGE('',*,*,#339,.T.);
#232=ORIENTED_EDGE('',*,*,#344,.F.);
#233=ORIENTED_EDGE('',*,*,#337,.F.);
#234=ORIENTED_EDGE('',*,*,#345,.T.);
#235=ORIENTED_EDGE('',*,*,#342,.T.);
#236=ORIENTED_EDGE('',*,*,#336,.F.);
#237=ORIENTED_EDGE('',*,*,#340,.T.);
#238=ORIENTED_EDGE('',*,*,#343,.T.);
#239=ORIENTED_EDGE('',*,*,#345,.F.);
#240=ORIENTED_EDGE('',*,*,#334,.T.);
#241=ORIENTED_EDGE('',*,*,#344,.T.);
#242=ORIENTED_EDGE('',*,*,#341,.F.);
#243=ORIENTED_EDGE('',*,*,#338,.F.);
#244=ORIENTED_EDGE('',*,*,#346,.T.);
#245=ORIENTED_EDGE('',*,*,#347,.F.);
#246=ORIENTED_EDGE('',*,*,#348,.F.);
#247=ORIENTED_EDGE('',*,*,#349,.T.);
#248=ORIENTED_EDGE('',*,*,#348,.T.);
#249=ORIENTED_EDGE('',*,*,#349,.F.);
#250=ORIENTED_EDGE('',*,*,#350,.F.);
#251=ORIENTED_EDGE('',*,*,#351,.T.);
#252=ORIENTED_EDGE('',*,*,#350,.T.);
#253=ORIENTED_EDGE('',*,*,#351,.F.);
#254=ORIENTED_EDGE('',*,*,#352,.T.);
#255=ORIENTED_EDGE('',*,*,#353,.F.);
#256=ORIENTED_EDGE('',*,*,#354,.T.);
#257=ORIENTED_EDGE('',*,*,#355,.F.);
#258=EDGE_CURVE('',#356,#357,#426,.T.);
#259=EDGE_CURVE('',#358,#356,#427,.T.);
#260=EDGE_CURVE('',#358,#359,#428,.T.);
#261=EDGE_CURVE('',#359,#357,#429,.T.);
#262=EDGE_CURVE('',#356,#360,#430,.T.);
#263=EDGE_CURVE('',#361,#360,#431,.T.);
#264=EDGE_CURVE('',#358,#361,#432,.T.);
#265=EDGE_CURVE('',#360,#362,#433,.T.);
#266=EDGE_CURVE('',#363,#362,#434,.T.);
#267=EDGE_CURVE('',#361,#363,#435,.T.);
#268=EDGE_CURVE('',#357,#362,#436,.T.);
#269=EDGE_CURVE('',#359,#363,#437,.T.);
#270=EDGE_CURVE('',#364,#364,#22,.T.);
#271=EDGE_CURVE('',#365,#365,#23,.T.);
#272=EDGE_CURVE('',#366,#367,#438,.T.);
#273=EDGE_CURVE('',#368,#367,#439,.T.);
#274=EDGE_CURVE('',#369,#368,#440,.T.);
#275=EDGE_CURVE('',#369,#366,#441,.T.);
#276=EDGE_CURVE('',#366,#370,#442,.T.);
#277=EDGE_CURVE('',#369,#371,#443,.T.);
#278=EDGE_CURVE('',#371,#370,#444,.T.);
#279=EDGE_CURVE('',#370,#372,#445,.T.);
#280=EDGE_CURVE('',#371,#373,#446,.T.);
#281=EDGE_CURVE('',#373,#372,#447,.T.);
#282=EDGE_CURVE('',#367,#372,#448,.T.);
#283=EDGE_CURVE('',#368,#373,#449,.T.);
#284=EDGE_CURVE('',#374,#375,#450,.T.);
#285=EDGE_CURVE('',#376,#374,#451,.T.);
#286=EDGE_CURVE('',#376,#377,#452,.T.);
#287=EDGE_CURVE('',#377,#375,#453,.T.);
#288=EDGE_CURVE('',#374,#378,#454,.T.);
#289=EDGE_CURVE('',#379,#378,#455,.T.);
#290=EDGE_CURVE('',#376,#379,#456,.T.);
#291=EDGE_CURVE('',#378,#380,#457,.T.);
#292=EDGE_CURVE('',#381,#380,#458,.T.);
#293=EDGE_CURVE('',#379,#381,#459,.T.);
#294=EDGE_CURVE('',#375,#380,#460,.T.);
#295=EDGE_CURVE('',#377,#381,#461,.T.);
#296=EDGE_CURVE('',#382,#383,#462,.T.);
#297=EDGE_CURVE('',#384,#383,#463,.T.);
#298=EDGE_CURVE('',#385,#384,#464,.T.);
#299=EDGE_CURVE('',#385,#382,#465,.T.);
#300=EDGE_CURVE('',#382,#386,#466,.T.);
#301=EDGE_CURVE('',#385,#387,#467,.T.);
#302=EDGE_CURVE('',#387,#386,#468,.T.);
#303=EDGE_CURVE('',#386,#388,#469,.T.);
#304=EDGE_CURVE('',#387,#389,#470,.T.);
#305=EDGE_CURVE('',#389,#388,#471,.T.);
#306=EDGE_CURVE('',#383,#388,#472,.T.);
#307=EDGE_CURVE('',#384,#389,#473,.T.);
#308=EDGE_CURVE('',#390,#391,#474,.T.);
#309=EDGE_CURVE('',#392,#390,#475,.T.);
#310=EDGE_CURVE('',#392,#393,#476,.T.);
#311=EDGE_CURVE('',#393,#391,#477,.T.);
#312=EDGE_CURVE('',#390,#394,#478,.T.);
#313=EDGE_CURVE('',#395,#394,#479,.T.);
#314=EDGE_CURVE('',#392,#395,#480,.T.);
#315=EDGE_CURVE('',#394,#396,#481,.T.);
#316=EDGE_CURVE('',#397,#396,#482,.T.);
#317=EDGE_CURVE('',#395,#397,#483,.T.);
#318=EDGE_CURVE('',#391,#396,#484,.T.);
#319=EDGE_CURVE('',#393,#397,#485,.T.);
#320=EDGE_CURVE('',#398,#398,#24,.T.);
#321=EDGE_CURVE('',#399,#399,#25,.T.);
#322=EDGE_CURVE('',#400,#401,#486,.T.);
#323=EDGE_CURVE('',#402,#401,#487,.T.);
#324=EDGE_CURVE('',#403,#402,#488,.T.);
#325=EDGE_CURVE('',#403,#400,#489,.T.);
#326=EDGE_CURVE('',#400,#404,#490,.T.);
#327=EDGE_CURVE('',#403,#405,#491,.T.);
#328=EDGE_CURVE('',#405,#404,#492,.T.);
#329=EDGE_CURVE('',#404,#406,#493,.T.);
#330=EDGE_CURVE('',#405,#407,#494,.T.);
#331=EDGE_CURVE('',#407,#406,#495,.T.);
#332=EDGE_CURVE('',#401,#406,#496,.T.);
#333=EDGE_CURVE('',#402,#407,#497,.T.);
#334=EDGE_CURVE('',#408,#409,#498,.T.);
#335=EDGE_CURVE('',#410,#408,#499,.T.);
#336=EDGE_CURVE('',#410,#411,#500,.T.);
#337=EDGE_CURVE('',#411,#409,#501,.T.);
#338=EDGE_CURVE('',#408,#412,#502,.T.);
#339=EDGE_CURVE('',#413,#412,#503,.T.);
#340=EDGE_CURVE('',#410,#413,#504,.T.);
#341=EDGE_CURVE('',#412,#414,#505,.T.);
#342=EDGE_CURVE('',#415,#414,#506,.T.);
#343=EDGE_CURVE('',#413,#415,#507,.T.);
#344=EDGE_CURVE('',#409,#414,#508,.T.);
#345=EDGE_CURVE('',#411,#415,#509,.T.);
#346=EDGE_CURVE('',#416,#416,#26,.T.);
#347=EDGE_CURVE('',#417,#417,#27,.T.);
#348=EDGE_CURVE('',#418,#418,#28,.T.);
#349=EDGE_CURVE('',#419,#419,#29,.T.);
#350=EDGE_CURVE('',#420,#420,#30,.T.);
#351=EDGE_CURVE('',#421,#421,#31,.T.);
#352=EDGE_CURVE('',#422,#422,#32,.T.);
#353=EDGE_CURVE('',#423,#423,#33,.T.);
#354=EDGE_CURVE('',#424,#424,#34,.T.);
#355=EDGE_CURVE('',#425,#425,#35,.T.);
#356=VERTEX_POINT('',#1470);
#357=VERTEX_POINT('',#1471);
#358=VERTEX_POINT('',#1473);
#359=VERTEX_POINT('',#1475);
#360=VERTEX_POINT('',#1479);
#361=VERTEX_POINT('',#1481);
#362=VERTEX_POINT('',#1485);
#363=VERTEX_POINT('',#1487);
#364=VERTEX_POINT('',#1497);
#365=VERTEX_POINT('',#1499);
#366=VERTEX_POINT('',#1505);
#367=VERTEX_POINT('',#1506);
#368=VERTEX_POINT('',#1508);
#369=VERTEX_POINT('',#1510);
#370=VERTEX_POINT('',#1514);
#371=VERTEX_POINT('',#1516);
#372=VERTEX_POINT('',#1520);
#373=VERTEX_POINT('',#1522);
#374=VERTEX_POINT('',#1532);
#375=VERTEX_POINT('',#1533);
#376=VERTEX_POINT('',#1535);
#377=VERTEX_POINT('',#1537);
#378=VERTEX_POINT('',#1541);
#379=VERTEX_POINT('',#1543);
#380=VERTEX_POINT('',#1547);
#381=VERTEX_POINT('',#1549);
#382=VERTEX_POINT('',#1559);
#383=VERTEX_POINT('',#1560);
#384=VERTEX_POINT('',#1562);
#385=VERTEX_POINT('',#1564);
#386=VERTEX_POINT('',#1568);
#387=VERTEX_POINT('',#1570);
#388=VERTEX_POINT('',#1574);
#389=VERTEX_POINT('',#1576);
#390=VERTEX_POINT('',#1586);
#391=VERTEX_POINT('',#1587);
#392=VERTEX_POINT('',#1589);
#393=VERTEX_POINT('',#1591);
#394=VERTEX_POINT('',#1595);
#395=VERTEX_POINT('',#1597);
#396=VERTEX_POINT('',#1601);
#397=VERTEX_POINT('',#1603);
#398=VERTEX_POINT('',#1613);
#399=VERTEX_POINT('',#1615);
#400=VERTEX_POINT('',#1621);
#401=VERTEX_POINT('',#1622);
#402=VERTEX_POINT('',#1624);
#403=VERTEX_POINT('',#1626);
#404=VERTEX_POINT('',#1630);
#405=VERTEX_POINT('',#1632);
#406=VERTEX_POINT('',#1636);
#407=VERTEX_POINT('',#1638);
#408=VERTEX_POINT('',#1648);
#409=VERTEX_POINT('',#1649);
#410=VERTEX_POINT('',#1651);
#411=VERTEX_POINT('',#1653);
#412=VERTEX_POINT('',#1657);
#413=VERTEX_POINT('',#1659);
#414=VERTEX_POINT('',#1663);
#415=VERTEX_POINT('',#1665);
#416=VERTEX_POINT('',#1675);
#417=VERTEX_POINT('',#1677);
#418=VERTEX_POINT('',#1681);
#419=VERTEX_POINT('',#1683);
#420=VERTEX_POINT('',#1689);
#421=VERTEX_POINT('',#1691);
#422=VERTEX_POINT('',#1697);
#423=VERTEX_POINT('',#1699);
#424=VERTEX_POINT('',#1703);
#425=VERTEX_POINT('',#1705);
#426=LINE('',#1469,#510);
#427=LINE('',#1472,#511);
#428=LINE('',#1474,#512);
#429=LINE('',#1476,#513);
#430=LINE('',#1478,#514);
#431=LINE('',#1480,#515);
#432=LINE('',#1482,#516);
#433=LINE('',#1484,#517);
#434=LINE('',#1486,#518);
#435=LINE('',#1488,#519);
#436=LINE('',#1490,#520);
#437=LINE('',#1491,#521);
#438=LINE('',#1504,#522);
#439=LINE('',#1507,#523);
#440=LINE('',#1509,#524);
#441=LINE('',#1511,#525);
#442=LINE('',#1513,#526);
#443=LINE('',#1515,#527);
#444=LINE('',#1517,#528);
#445=LINE('',#1519,#529);
#446=LINE('',#1521,#530);
#447=LINE('',#1523,#531);
#448=LINE('',#1525,#532);
#449=LINE('',#1526,#533);
#450=LINE('',#1531,#534);
#451=LINE('',#1534,#535);
#452=LINE('',#1536,#536);
#453=LINE('',#1538,#537);
#454=LINE('',#1540,#538);
#455=LINE('',#1542,#539);
#456=LINE('',#1544,#540);
#457=LINE('',#1546,#541);
#458=LINE('',#1548,#542);
#459=LINE('',#1550,#543);
#460=LINE('',#1552,#544);
#461=LINE('',#1553,#545);
#462=LINE('',#1558,#546);
#463=LINE('',#1561,#547);
#464=LINE('',#1563,#548);
#465=LINE('',#1565,#549);
#466=LINE('',#1567,#550);
#467=LINE('',#1569,#551);
#468=LINE('',#1571,#552);
#469=LINE('',#1573,#553);
#470=LINE('',#1575,#554);
#471=LINE('',#1577,#555);
#472=LINE('',#1579,#556);
#473=LINE('',#1580,#557);
#474=LINE('',#1585,#558);
#475=LINE('',#1588,#559);
#476=LINE('',#1590,#560);
#477=LINE('',#1592,#561);
#478=LINE('',#1594,#562);
#479=LINE('',#1596,#563);
#480=LINE('',#1598,#564);
#481=LINE('',#1600,#565);
#482=LINE('',#1602,#566);
#483=LINE('',#1604,#567);
#484=LINE('',#1606,#568);
#485=LINE('',#1607,#569);
#486=LINE('',#1620,#570);
#487=LINE('',#1623,#571);
#488=LINE('',#1625,#572);
#489=LINE('',#1627,#573);
#490=LINE('',#1629,#574);
#491=LINE('',#1631,#575);
#492=LINE('',#1633,#576);
#493=LINE('',#1635,#577);
#494=LINE('',#1637,#578);
#495=LINE('',#1639,#579);
#496=LINE('',#1641,#580);
#497=LINE('',#1642,#581);
#498=LINE('',#1647,#582);
#499=LINE('',#1650,#583);
#500=LINE('',#1652,#584);
#501=LINE('',#1654,#585);
#502=LINE('',#1656,#586);
#503=LINE('',#1658,#587);
#504=LINE('',#1660,#588);
#505=LINE('',#1662,#589);
#506=LINE('',#1664,#590);
#507=LINE('',#1666,#591);
#508=LINE('',#1668,#592);
#509=LINE('',#1669,#593);
#510=VECTOR('',#1217,1.);
#511=VECTOR('',#1218,1.);
#512=VECTOR('',#1219,1.);
#513=VECTOR('',#1220,1.);
#514=VECTOR('',#1223,1.);
#515=VECTOR('',#1224,1.);
#516=VECTOR('',#1225,1.);
#517=VECTOR('',#1228,1.);
#518=VECTOR('',#1229,1.);
#519=VECTOR('',#1230,1.);
#520=VECTOR('',#1233,1.);
#521=VECTOR('',#1234,1.);
#522=VECTOR('',#1255,1.);
#523=VECTOR('',#1256,1.);
#524=VECTOR('',#1257,1.);
#525=VECTOR('',#1258,1.);
#526=VECTOR('',#1261,1.);
#527=VECTOR('',#1262,1.);
#528=VECTOR('',#1263,1.);
#529=VECTOR('',#1266,1.);
#530=VECTOR('',#1267,1.);
#531=VECTOR('',#1268,1.);
#532=VECTOR('',#1271,1.);
#533=VECTOR('',#1272,1.);
#534=VECTOR('',#1281,1.);
#535=VECTOR('',#1282,1.);
#536=VECTOR('',#1283,1.);
#537=VECTOR('',#1284,1.);
#538=VECTOR('',#1287,1.);
#539=VECTOR('',#1288,1.);
#540=VECTOR('',#1289,1.);
#541=VECTOR('',#1292,1.);
#542=VECTOR('',#1293,1.);
#543=VECTOR('',#1294,1.);
#544=VECTOR('',#1297,1.);
#545=VECTOR('',#1298,1.);
#546=VECTOR('',#1307,1.);
#547=VECTOR('',#1308,1.);
#548=VECTOR('',#1309,1.);
#549=VECTOR('',#1310,1.);
#550=VECTOR('',#1313,1.);
#551=VECTOR('',#1314,1.);
#552=VECTOR('',#1315,1.);
#553=VECTOR('',#1318,1.);
#554=VECTOR('',#1319,1.);
#555=VECTOR('',#1320,1.);
#556=VECTOR('',#1323,1.);
#557=VECTOR('',#1324,1.);
#558=VECTOR('',#1333,1.);
#559=VECTOR('',#1334,1.);
#560=VECTOR('',#1335,1.);
#561=VECTOR('',#1336,1.);
#562=VECTOR('',#1339,1.);
#563=VECTOR('',#1340,1.);
#564=VECTOR('',#1341,1.);
#565=VECTOR('',#1344,1.);
#566=VECTOR('',#1345,1.);
#567=VECTOR('',#1346,1.);
#568=VECTOR('',#1349,1.);
#569=VECTOR('',#1350,1.);
#570=VECTOR('',#1371,1.);
#571=VECTOR('',#1372,1.);
#572=VECTOR('',#1373,1.);
#573=VECTOR('',#1374,1.);
#574=VECTOR('',#1377,1.);
#575=VECTOR('',#1378,1.);
#576=VECTOR('',#1379,1.);
#577=VECTOR('',#1382,1.);
#578=VECTOR('',#1383,1.);
#579=VECTOR('',#1384,1.);
#580=VECTOR('',#1387,1.);
#581=VECTOR('',#1388,1.);
#582=VECTOR('',#1397,1.);
#583=VECTOR('',#1398,1.);
#584=VECTOR('',#1399,1.);
#585=VECTOR('',#1400,1.);
#586=VECTOR('',#1403,1.);
#587=VECTOR('',#1404,1.);
#588=VECTOR('',#1405,1.);
#589=VECTOR('',#1408,1.);
#590=VECTOR('',#1409,1.);
#591=VECTOR('',#1410,1.);
#592=VECTOR('',#1413,1.);
#593=VECTOR('',#1414,1.);
#594=EDGE_LOOP('',(#68,#69,#70,#71));
#595=EDGE_LOOP('',(#72,#73,#74,#75));
#596=EDGE_LOOP('',(#76,#77,#78,#79));
#597=EDGE_LOOP('',(#80,#81,#82,#83));
#598=EDGE_LOOP('',(#84,#85,#86,#87));
#599=EDGE_LOOP('',(#88,#89,#90,#91));
#600=EDGE_LOOP('',(#92));
#601=EDGE_LOOP('',(#93));
#602=EDGE_LOOP('',(#94));
#603=EDGE_LOOP('',(#95));
#604=EDGE_LOOP('',(#96,#97,#98,#99));
#605=EDGE_LOOP('',(#100,#101,#102,#103));
#606=EDGE_LOOP('',(#104,#105,#106,#107));
#607=EDGE_LOOP('',(#108,#109,#110,#111));
#608=EDGE_LOOP('',(#112,#113,#114,#115));
#609=EDGE_LOOP('',(#116,#117,#118,#119));
#610=EDGE_LOOP('',(#120,#121,#122,#123));
#611=EDGE_LOOP('',(#124,#125,#126,#127));
#612=EDGE_LOOP('',(#128,#129,#130,#131));
#613=EDGE_LOOP('',(#132,#133,#134,#135));
#614=EDGE_LOOP('',(#136,#137,#138,#139));
#615=EDGE_LOOP('',(#140,#141,#142,#143));
#616=EDGE_LOOP('',(#144,#145,#146,#147));
#617=EDGE_LOOP('',(#148,#149,#150,#151));
#618=EDGE_LOOP('',(#152,#153,#154,#155));
#619=EDGE_LOOP('',(#156,#157,#158,#159));
#620=EDGE_LOOP('',(#160,#161,#162,#163));
#621=EDGE_LOOP('',(#164,#165,#166,#167));
#622=EDGE_LOOP('',(#168,#169,#170,#171));
#623=EDGE_LOOP('',(#172,#173,#174,#175));
#624=EDGE_LOOP('',(#176,#177,#178,#179));
#625=EDGE_LOOP('',(#180,#181,#182,#183));
#626=EDGE_LOOP('',(#184,#185,#186,#187));
#627=EDGE_LOOP('',(#188,#189,#190,#191));
#628=EDGE_LOOP('',(#192));
#629=EDGE_LOOP('',(#193));
#630=EDGE_LOOP('',(#194));
#631=EDGE_LOOP('',(#195));
#632=EDGE_LOOP('',(#196,#197,#198,#199));
#633=EDGE_LOOP('',(#200,#201,#202,#203));
#634=EDGE_LOOP('',(#204,#205,#206,#207));
#635=EDGE_LOOP('',(#208,#209,#210,#211));
#636=EDGE_LOOP('',(#212,#213,#214,#215));
#637=EDGE_LOOP('',(#216,#217,#218,#219));
#638=EDGE_LOOP('',(#220,#221,#222,#223));
#639=EDGE_LOOP('',(#224,#225,#226,#227));
#640=EDGE_LOOP('',(#228,#229,#230,#231));
#641=EDGE_LOOP('',(#232,#233,#234,#235));
#642=EDGE_LOOP('',(#236,#237,#238,#239));
#643=EDGE_LOOP('',(#240,#241,#242,#243));
#644=EDGE_LOOP('',(#244));
#645=EDGE_LOOP('',(#245));
#646=EDGE_LOOP('',(#246));
#647=EDGE_LOOP('',(#247));
#648=EDGE_LOOP('',(#248));
#649=EDGE_LOOP('',(#249));
#650=EDGE_LOOP('',(#250));
#651=EDGE_LOOP('',(#251));
#652=EDGE_LOOP('',(#252));
#653=EDGE_LOOP('',(#253));
#654=EDGE_LOOP('',(#254));
#655=EDGE_LOOP('',(#255));
#656=EDGE_LOOP('',(#256));
#657=EDGE_LOOP('',(#257));
#658=FACE_BOUND('',#594,.T.);
#659=FACE_BOUND('',#595,.T.);
#660=FACE_BOUND('',#596,.T.);
#661=FACE_BOUND('',#597,.T.);
#662=FACE_BOUND('',#598,.T.);
#663=FACE_BOUND('',#599,.T.);
#664=FACE_BOUND('',#600,.T.);
#665=FACE_BOUND('',#601,.T.);
#666=FACE_BOUND('',#602,.T.);
#667=FACE_BOUND('',#603,.T.);
#668=FACE_BOUND('',#604,.T.);
#669=FACE_BOUND('',#605,.T.);
#670=FACE_BOUND('',#606,.T.);
#671=FACE_BOUND('',#607,.T.);
#672=FACE_BOUND('',#608,.T.);
#673=FACE_BOUND('',#609,.T.);
#674=FACE_BOUND('',#610,.T.);
#675=FACE_BOUND('',#611,.T.);
#676=FACE_BOUND('',#612,.T.);
#677=FACE_BOUND('',#613,.T.);
#678=FACE_BOUND('',#614,.T.);
#679=FACE_BOUND('',#615,.T.);
#680=FACE_BOUND('',#616,.T.);
#681=FACE_BOUND('',#617,.T.);
#682=FACE_BOUND('',#618,.T.);
#683=FACE_BOUND('',#619,.T.);
#684=FACE_BOUND('',#620,.T.);
#685=FACE_BOUND('',#621,.T.);
#686=FACE_BOUND('',#622,.T.);
#687=FACE_BOUND('',#623,.T.);
#688=FACE_BOUND('',#624,.T.);
#689=FACE_BOUND('',#625,.T.);
#690=FACE_BOUND('',#626,.T.);
#691=FACE_BOUND('',#627,.T.);
#692=FACE_BOUND('',#628,.T.);
#693=FACE_BOUND('',#629,.T.);
#694=FACE_BOUND('',#630,.T.);
#695=FACE_BOUND('',#631,.T.);
#696=FACE_BOUND('',#632,.T.);
#697=FACE_BOUND('',#633,.T.);
#698=FACE_BOUND('',#634,.T.);
#699=FACE_BOUND('',#635,.T.);
#700=FACE_BOUND('',#636,.T.);
#701=FACE_BOUND('',#637,.T.);
#702=FACE_BOUND('',#638,.T.);
#703=FACE_BOUND('',#639,.T.);
#704=FACE_BOUND('',#640,.T.);
#705=FACE_BOUND('',#641,.T.);
#706=FACE_BOUND('',#642,.T.);
#707=FACE_BOUND('',#643,.T.);
#708=FACE_BOUND('',#644,.T.);
#709=FACE_BOUND('',#645,.T.);
#710=FACE_BOUND('',#646,.T.);
#711=FACE_BOUND('',#647,.T.);
#712=FACE_BOUND('',#648,.T.);
#713=FACE_BOUND('',#649,.T.);
#714=FACE_BOUND('',#650,.T.);
#715=FACE_BOUND('',#651,.T.);
#716=FACE_BOUND('',#652,.T.);
#717=FACE_BOUND('',#653,.T.);
#718=FACE_BOUND('',#654,.T.);
#719=FACE_BOUND('',#655,.T.);
#720=FACE_BOUND('',#656,.T.);
#721=FACE_BOUND('',#657,.T.);
#722=PLANE('',#1129);
#723=PLANE('',#1130);
#724=PLANE('',#1131);
#725=PLANE('',#1132);
#726=PLANE('',#1133);
#727=PLANE('',#1134);
#728=PLANE('',#1139);
#729=PLANE('',#1140);
#730=PLANE('',#1142);
#731=PLANE('',#1143);
#732=PLANE('',#1144);
#733=PLANE('',#1145);
#734=PLANE('',#1146);
#735=PLANE('',#1147);
#736=PLANE('',#1149);
#737=PLANE('',#1150);
#738=PLANE('',#1151);
#739=PLANE('',#1152);
#740=PLANE('',#1153);
#741=PLANE('',#1154);
#742=PLANE('',#1156);
#743=PLANE('',#1157);
#744=PLANE('',#1158);
#745=PLANE('',#1159);
#746=PLANE('',#1160);
#747=PLANE('',#1161);
#748=PLANE('',#1163);
#749=PLANE('',#1164);
#750=PLANE('',#1165);
#751=PLANE('',#1166);
#752=PLANE('',#1167);
#753=PLANE('',#1168);
#754=PLANE('',#1173);
#755=PLANE('',#1174);
#756=PLANE('',#1176);
#757=PLANE('',#1177);
#758=PLANE('',#1178);
#759=PLANE('',#1179);
#760=PLANE('',#1180);
#761=PLANE('',#1181);
#762=PLANE('',#1183);
#763=PLANE('',#1184);
#764=PLANE('',#1185);
#765=PLANE('',#1186);
#766=PLANE('',#1187);
#767=PLANE('',#1188);
#768=PLANE('',#1197);
#769=PLANE('',#1198);
#770=PLANE('',#1203);
#771=PLANE('',#1204);
#772=OVER_RIDING_STYLED_ITEM('',(#875),#792,#860);
#773=OVER_RIDING_STYLED_ITEM('',(#876),#793,#860);
#774=OVER_RIDING_STYLED_ITEM('',(#877),#794,#860);
#775=OVER_RIDING_STYLED_ITEM('',(#878),#795,#860);
#776=OVER_RIDING_STYLED_ITEM('',(#879),#796,#860);
#777=OVER_RIDING_STYLED_ITEM('',(#880),#797,#860);
#778=OVER_RIDING_STYLED_ITEM('',(#884),#807,#863);
#779=OVER_RIDING_STYLED_ITEM('',(#885),#808,#863);
#780=OVER_RIDING_STYLED_ITEM('',(#886),#809,#863);
#781=OVER_RIDING_STYLED_ITEM('',(#887),#810,#863);
#782=OVER_RIDING_STYLED_ITEM('',(#888),#811,#863);
#783=OVER_RIDING_STYLED_ITEM('',(#889),#812,#863);
#784=OVER_RIDING_STYLED_ITEM('',(#895),#834,#868);
#785=OVER_RIDING_STYLED_ITEM('',(#896),#835,#868);
#786=OVER_RIDING_STYLED_ITEM('',(#897),#836,#868);
#787=OVER_RIDING_STYLED_ITEM('',(#898),#837,#868);
#788=OVER_RIDING_STYLED_ITEM('',(#899),#838,#868);
#789=OVER_RIDING_STYLED_ITEM('',(#900),#839,#868);
#790=OVER_RIDING_STYLED_ITEM('',(#905),#847,#872);
#791=OVER_RIDING_STYLED_ITEM('',(#907),#848,#873);
#792=ADVANCED_FACE('Face appearance 1',(#658),#722,.T.);
#793=ADVANCED_FACE('Face appearance 1',(#659),#723,.F.);
#794=ADVANCED_FACE('Face appearance 1',(#660),#724,.F.);
#795=ADVANCED_FACE('Face appearance 1',(#661),#725,.T.);
#796=ADVANCED_FACE('Face appearance 1',(#662),#726,.T.);
#797=ADVANCED_FACE('Face appearance 1',(#663),#727,.F.);
#798=ADVANCED_FACE('',(#664,#665),#36,.T.);
#799=ADVANCED_FACE('',(#666),#728,.T.);
#800=ADVANCED_FACE('',(#667),#729,.F.);
#801=ADVANCED_FACE('',(#668),#730,.F.);
#802=ADVANCED_FACE('',(#669),#731,.T.);
#803=ADVANCED_FACE('',(#670),#732,.T.);
#804=ADVANCED_FACE('',(#671),#733,.F.);
#805=ADVANCED_FACE('',(#672),#734,.F.);
#806=ADVANCED_FACE('',(#673),#735,.T.);
#807=ADVANCED_FACE('Face appearance 3',(#674),#736,.T.);
#808=ADVANCED_FACE('Face appearance 3',(#675),#737,.F.);
#809=ADVANCED_FACE('Face appearance 3',(#676),#738,.F.);
#810=ADVANCED_FACE('Face appearance 3',(#677),#739,.T.);
#811=ADVANCED_FACE('Face appearance 3',(#678),#740,.T.);
#812=ADVANCED_FACE('Face appearance 3',(#679),#741,.F.);
#813=ADVANCED_FACE('',(#680),#742,.F.);
#814=ADVANCED_FACE('',(#681),#743,.T.);
#815=ADVANCED_FACE('',(#682),#744,.T.);
#816=ADVANCED_FACE('',(#683),#745,.F.);
#817=ADVANCED_FACE('',(#684),#746,.F.);
#818=ADVANCED_FACE('',(#685),#747,.T.);
#819=ADVANCED_FACE('',(#686),#748,.T.);
#820=ADVANCED_FACE('',(#687),#749,.F.);
#821=ADVANCED_FACE('',(#688),#750,.F.);
#822=ADVANCED_FACE('',(#689),#751,.T.);
#823=ADVANCED_FACE('',(#690),#752,.T.);
#824=ADVANCED_FACE('',(#691),#753,.F.);
#825=ADVANCED_FACE('',(#692,#693),#37,.T.);
#826=ADVANCED_FACE('',(#694),#754,.T.);
#827=ADVANCED_FACE('',(#695),#755,.F.);
#828=ADVANCED_FACE('',(#696),#756,.F.);
#829=ADVANCED_FACE('',(#697),#757,.T.);
#830=ADVANCED_FACE('',(#698),#758,.T.);
#831=ADVANCED_FACE('',(#699),#759,.F.);
#832=ADVANCED_FACE('',(#700),#760,.F.);
#833=ADVANCED_FACE('',(#701),#761,.T.);
#834=ADVANCED_FACE('Face appearance 2',(#702),#762,.T.);
#835=ADVANCED_FACE('Face appearance 2',(#703),#763,.F.);
#836=ADVANCED_FACE('Face appearance 2',(#704),#764,.F.);
#837=ADVANCED_FACE('Face appearance 2',(#705),#765,.T.);
#838=ADVANCED_FACE('Face appearance 2',(#706),#766,.T.);
#839=ADVANCED_FACE('Face appearance 2',(#707),#767,.F.);
#840=ADVANCED_FACE('',(#708,#709),#38,.T.);
#841=ADVANCED_FACE('',(#710,#711),#39,.T.);
#842=ADVANCED_FACE('',(#712),#768,.T.);
#843=ADVANCED_FACE('',(#713),#769,.F.);
#844=ADVANCED_FACE('',(#714,#715),#40,.T.);
#845=ADVANCED_FACE('',(#716),#770,.T.);
#846=ADVANCED_FACE('',(#717),#771,.F.);
#847=ADVANCED_FACE('Face appearance 5',(#718,#719),#41,.T.);
#848=ADVANCED_FACE('Face appearance 4',(#720,#721),#42,.T.);
#849=CLOSED_SHELL('',(#792,#793,#794,#795,#796,#797));
#850=CLOSED_SHELL('',(#798,#799,#800));
#851=CLOSED_SHELL('',(#801,#802,#803,#804,#805,#806));
#852=CLOSED_SHELL('',(#807,#808,#809,#810,#811,#812));
#853=CLOSED_SHELL('',(#813,#814,#815,#816,#817,#818));
#854=CLOSED_SHELL('',(#819,#820,#821,#822,#823,#824));
#855=CLOSED_SHELL('',(#825,#826,#827));
#856=CLOSED_SHELL('',(#828,#829,#830,#831,#832,#833));
#857=CLOSED_SHELL('',(#834,#835,#836,#837,#838,#839));
#858=CLOSED_SHELL('',(#841,#842,#843));
#859=CLOSED_SHELL('',(#844,#845,#846));
#860=STYLED_ITEM('',(#874),#1089);
#861=STYLED_ITEM('',(#881),#1090);
#862=STYLED_ITEM('',(#882),#1091);
#863=STYLED_ITEM('',(#883),#1092);
#864=STYLED_ITEM('',(#890),#1093);
#865=STYLED_ITEM('',(#891),#1094);
#866=STYLED_ITEM('',(#892),#1095);
#867=STYLED_ITEM('',(#893),#1096);
#868=STYLED_ITEM('',(#894),#1097);
#869=STYLED_ITEM('',(#901),#16);
#870=STYLED_ITEM('',(#902),#1098);
#871=STYLED_ITEM('',(#903),#1099);
#872=STYLED_ITEM('',(#904),#17);
#873=STYLED_ITEM('',(#906),#18);
#874=PRESENTATION_STYLE_ASSIGNMENT((#908));
#875=PRESENTATION_STYLE_ASSIGNMENT((#909));
#876=PRESENTATION_STYLE_ASSIGNMENT((#910));
#877=PRESENTATION_STYLE_ASSIGNMENT((#911));
#878=PRESENTATION_STYLE_ASSIGNMENT((#912));
#879=PRESENTATION_STYLE_ASSIGNMENT((#913));
#880=PRESENTATION_STYLE_ASSIGNMENT((#914));
#881=PRESENTATION_STYLE_ASSIGNMENT((#915));
#882=PRESENTATION_STYLE_ASSIGNMENT((#916));
#883=PRESENTATION_STYLE_ASSIGNMENT((#917));
#884=PRESENTATION_STYLE_ASSIGNMENT((#918));
#885=PRESENTATION_STYLE_ASSIGNMENT((#919));
#886=PRESENTATION_STYLE_ASSIGNMENT((#920));
#887=PRESENTATION_STYLE_ASSIGNMENT((#921));
#888=PRESENTATION_STYLE_ASSIGNMENT((#922));
#889=PRESENTATION_STYLE_ASSIGNMENT((#923));
#890=PRESENTATION_STYLE_ASSIGNMENT((#924));
#891=PRESENTATION_STYLE_ASSIGNMENT((#925));
#892=PRESENTATION_STYLE_ASSIGNMENT((#926));
#893=PRESENTATION_STYLE_ASSIGNMENT((#927));
#894=PRESENTATION_STYLE_ASSIGNMENT((#928));
#895=PRESENTATION_STYLE_ASSIGNMENT((#929));
#896=PRESENTATION_STYLE_ASSIGNMENT((#930));
#897=PRESENTATION_STYLE_ASSIGNMENT((#931));
#898=PRESENTATION_STYLE_ASSIGNMENT((#932));
#899=PRESENTATION_STYLE_ASSIGNMENT((#933));
#900=PRESENTATION_STYLE_ASSIGNMENT((#934));
#901=PRESENTATION_STYLE_ASSIGNMENT((#935));
#902=PRESENTATION_STYLE_ASSIGNMENT((#936));
#903=PRESENTATION_STYLE_ASSIGNMENT((#937));
#904=PRESENTATION_STYLE_ASSIGNMENT((#938));
#905=PRESENTATION_STYLE_ASSIGNMENT((#939));
#906=PRESENTATION_STYLE_ASSIGNMENT((#940));
#907=PRESENTATION_STYLE_ASSIGNMENT((#941));
#908=SURFACE_STYLE_USAGE(.BOTH.,#942);
#909=SURFACE_STYLE_USAGE(.BOTH.,#943);
#910=SURFACE_STYLE_USAGE(.BOTH.,#944);
#911=SURFACE_STYLE_USAGE(.BOTH.,#945);
#912=SURFACE_STYLE_USAGE(.BOTH.,#946);
#913=SURFACE_STYLE_USAGE(.BOTH.,#947);
#914=SURFACE_STYLE_USAGE(.BOTH.,#948);
#915=SURFACE_STYLE_USAGE(.BOTH.,#949);
#916=SURFACE_STYLE_USAGE(.BOTH.,#950);
#917=SURFACE_STYLE_USAGE(.BOTH.,#951);
#918=SURFACE_STYLE_USAGE(.BOTH.,#952);
#919=SURFACE_STYLE_USAGE(.BOTH.,#953);
#920=SURFACE_STYLE_USAGE(.BOTH.,#954);
#921=SURFACE_STYLE_USAGE(.BOTH.,#955);
#922=SURFACE_STYLE_USAGE(.BOTH.,#956);
#923=SURFACE_STYLE_USAGE(.BOTH.,#957);
#924=SURFACE_STYLE_USAGE(.BOTH.,#958);
#925=SURFACE_STYLE_USAGE(.BOTH.,#959);
#926=SURFACE_STYLE_USAGE(.BOTH.,#960);
#927=SURFACE_STYLE_USAGE(.BOTH.,#961);
#928=SURFACE_STYLE_USAGE(.BOTH.,#962);
#929=SURFACE_STYLE_USAGE(.BOTH.,#963);
#930=SURFACE_STYLE_USAGE(.BOTH.,#964);
#931=SURFACE_STYLE_USAGE(.BOTH.,#965);
#932=SURFACE_STYLE_USAGE(.BOTH.,#966);
#933=SURFACE_STYLE_USAGE(.BOTH.,#967);
#934=SURFACE_STYLE_USAGE(.BOTH.,#968);
#935=SURFACE_STYLE_USAGE(.BOTH.,#969);
#936=SURFACE_STYLE_USAGE(.BOTH.,#970);
#937=SURFACE_STYLE_USAGE(.BOTH.,#971);
#938=SURFACE_STYLE_USAGE(.BOTH.,#972);
#939=SURFACE_STYLE_USAGE(.BOTH.,#973);
#940=SURFACE_STYLE_USAGE(.BOTH.,#974);
#941=SURFACE_STYLE_USAGE(.BOTH.,#975);
#942=SURFACE_SIDE_STYLE('',(#976));
#943=SURFACE_SIDE_STYLE('',(#977));
#944=SURFACE_SIDE_STYLE('',(#978));
#945=SURFACE_SIDE_STYLE('',(#979));
#946=SURFACE_SIDE_STYLE('',(#980));
#947=SURFACE_SIDE_STYLE('',(#981));
#948=SURFACE_SIDE_STYLE('',(#982));
#949=SURFACE_SIDE_STYLE('',(#983));
#950=SURFACE_SIDE_STYLE('',(#984));
#951=SURFACE_SIDE_STYLE('',(#985));
#952=SURFACE_SIDE_STYLE('',(#986));
#953=SURFACE_SIDE_STYLE('',(#987));
#954=SURFACE_SIDE_STYLE('',(#988));
#955=SURFACE_SIDE_STYLE('',(#989));
#956=SURFACE_SIDE_STYLE('',(#990));
#957=SURFACE_SIDE_STYLE('',(#991));
#958=SURFACE_SIDE_STYLE('',(#992));
#959=SURFACE_SIDE_STYLE('',(#993));
#960=SURFACE_SIDE_STYLE('',(#994));
#961=SURFACE_SIDE_STYLE('',(#995));
#962=SURFACE_SIDE_STYLE('',(#996));
#963=SURFACE_SIDE_STYLE('',(#997));
#964=SURFACE_SIDE_STYLE('',(#998));
#965=SURFACE_SIDE_STYLE('',(#999));
#966=SURFACE_SIDE_STYLE('',(#1000));
#967=SURFACE_SIDE_STYLE('',(#1001));
#968=SURFACE_SIDE_STYLE('',(#1002));
#969=SURFACE_SIDE_STYLE('',(#1003));
#970=SURFACE_SIDE_STYLE('',(#1004));
#971=SURFACE_SIDE_STYLE('',(#1005));
#972=SURFACE_SIDE_STYLE('',(#1006));
#973=SURFACE_SIDE_STYLE('',(#1007));
#974=SURFACE_SIDE_STYLE('',(#1008));
#975=SURFACE_SIDE_STYLE('',(#1009));
#976=SURFACE_STYLE_FILL_AREA(#1010);
#977=SURFACE_STYLE_FILL_AREA(#1011);
#978=SURFACE_STYLE_FILL_AREA(#1012);
#979=SURFACE_STYLE_FILL_AREA(#1013);
#980=SURFACE_STYLE_FILL_AREA(#1014);
#981=SURFACE_STYLE_FILL_AREA(#1015);
#982=SURFACE_STYLE_FILL_AREA(#1016);
#983=SURFACE_STYLE_FILL_AREA(#1017);
#984=SURFACE_STYLE_FILL_AREA(#1018);
#985=SURFACE_STYLE_FILL_AREA(#1019);
#986=SURFACE_STYLE_FILL_AREA(#1020);
#987=SURFACE_STYLE_FILL_AREA(#1021);
#988=SURFACE_STYLE_FILL_AREA(#1022);
#989=SURFACE_STYLE_FILL_AREA(#1023);
#990=SURFACE_STYLE_FILL_AREA(#1024);
#991=SURFACE_STYLE_FILL_AREA(#1025);
#992=SURFACE_STYLE_FILL_AREA(#1026);
#993=SURFACE_STYLE_FILL_AREA(#1027);
#994=SURFACE_STYLE_FILL_AREA(#1028);
#995=SURFACE_STYLE_FILL_AREA(#1029);
#996=SURFACE_STYLE_FILL_AREA(#1030);
#997=SURFACE_STYLE_FILL_AREA(#1031);
#998=SURFACE_STYLE_FILL_AREA(#1032);
#999=SURFACE_STYLE_FILL_AREA(#1033);
#1000=SURFACE_STYLE_FILL_AREA(#1034);
#1001=SURFACE_STYLE_FILL_AREA(#1035);
#1002=SURFACE_STYLE_FILL_AREA(#1036);
#1003=SURFACE_STYLE_FILL_AREA(#1037);
#1004=SURFACE_STYLE_FILL_AREA(#1038);
#1005=SURFACE_STYLE_FILL_AREA(#1039);
#1006=SURFACE_STYLE_FILL_AREA(#1040);
#1007=SURFACE_STYLE_FILL_AREA(#1041);
#1008=SURFACE_STYLE_FILL_AREA(#1042);
#1009=SURFACE_STYLE_FILL_AREA(#1043);
#1010=FILL_AREA_STYLE('',(#1044));
#1011=FILL_AREA_STYLE('',(#1045));
#1012=FILL_AREA_STYLE('',(#1046));
#1013=FILL_AREA_STYLE('',(#1047));
#1014=FILL_AREA_STYLE('',(#1048));
#1015=FILL_AREA_STYLE('',(#1049));
#1016=FILL_AREA_STYLE('',(#1050));
#1017=FILL_AREA_STYLE('',(#1051));
#1018=FILL_AREA_STYLE('',(#1052));
#1019=FILL_AREA_STYLE('',(#1053));
#1020=FILL_AREA_STYLE('',(#1054));
#1021=FILL_AREA_STYLE('',(#1055));
#1022=FILL_AREA_STYLE('',(#1056));
#1023=FILL_AREA_STYLE('',(#1057));
#1024=FILL_AREA_STYLE('',(#1058));
#1025=FILL_AREA_STYLE('',(#1059));
#1026=FILL_AREA_STYLE('',(#1060));
#1027=FILL_AREA_STYLE('',(#1061));
#1028=FILL_AREA_STYLE('',(#1062));
#1029=FILL_AREA_STYLE('',(#1063));
#1030=FILL_AREA_STYLE('',(#1064));
#1031=FILL_AREA_STYLE('',(#1065));
#1032=FILL_AREA_STYLE('',(#1066));
#1033=FILL_AREA_STYLE('',(#1067));
#1034=FILL_AREA_STYLE('',(#1068));
#1035=FILL_AREA_STYLE('',(#1069));
#1036=FILL_AREA_STYLE('',(#1070));
#1037=FILL_AREA_STYLE('',(#1071));
#1038=FILL_AREA_STYLE('',(#1072));
#1039=FILL_AREA_STYLE('',(#1073));
#1040=FILL_AREA_STYLE('',(#1074));
#1041=FILL_AREA_STYLE('',(#1075));
#1042=FILL_AREA_STYLE('',(#1076));
#1043=FILL_AREA_STYLE('',(#1077));
#1044=FILL_AREA_STYLE_COLOUR('',#1078);
#1045=FILL_AREA_STYLE_COLOUR('',#1079);
#1046=FILL_AREA_STYLE_COLOUR('',#1079);
#1047=FILL_AREA_STYLE_COLOUR('',#1079);
#1048=FILL_AREA_STYLE_COLOUR('',#1079);
#1049=FILL_AREA_STYLE_COLOUR('',#1079);
#1050=FILL_AREA_STYLE_COLOUR('',#1079);
#1051=FILL_AREA_STYLE_COLOUR('',#1080);
#1052=FILL_AREA_STYLE_COLOUR('',#1081);
#1053=FILL_AREA_STYLE_COLOUR('',#1082);
#1054=FILL_AREA_STYLE_COLOUR('',#1083);
#1055=FILL_AREA_STYLE_COLOUR('',#1083);
#1056=FILL_AREA_STYLE_COLOUR('',#1083);
#1057=FILL_AREA_STYLE_COLOUR('',#1083);
#1058=FILL_AREA_STYLE_COLOUR('',#1083);
#1059=FILL_AREA_STYLE_COLOUR('',#1083);
#1060=FILL_AREA_STYLE_COLOUR('',#19);
#1061=FILL_AREA_STYLE_COLOUR('',#1084);
#1062=FILL_AREA_STYLE_COLOUR('',#1085);
#1063=FILL_AREA_STYLE_COLOUR('',#20);
#1064=FILL_AREA_STYLE_COLOUR('',#1082);
#1065=FILL_AREA_STYLE_COLOUR('',#21);
#1066=FILL_AREA_STYLE_COLOUR('',#21);
#1067=FILL_AREA_STYLE_COLOUR('',#21);
#1068=FILL_AREA_STYLE_COLOUR('',#21);
#1069=FILL_AREA_STYLE_COLOUR('',#21);
#1070=FILL_AREA_STYLE_COLOUR('',#21);
#1071=FILL_AREA_STYLE_COLOUR('',#1086);
#1072=FILL_AREA_STYLE_COLOUR('',#1078);
#1073=FILL_AREA_STYLE_COLOUR('',#1078);
#1074=FILL_AREA_STYLE_COLOUR('',#1087);
#1075=FILL_AREA_STYLE_COLOUR('',#1083);
#1076=FILL_AREA_STYLE_COLOUR('',#1088);
#1077=FILL_AREA_STYLE_COLOUR('',#1083);
#1078=COLOUR_RGB('',0.768627450980392,0.886274509803922,0.952941176470588);
#1079=COLOUR_RGB('',0.501960784313726,0.501960784313726,0.807843137254902);
#1080=COLOUR_RGB('',0.498039215686275,0.498039215686275,0.498039215686275);
#1081=COLOUR_RGB('',0.470588235294118,0.603921568627451,0.749019607843137);
#1082=COLOUR_RGB('',0.972549019607843,0.529411764705882,0.00392156862745098);
#1083=COLOUR_RGB('',0.6,0.6,0.6);
#1084=COLOUR_RGB('',0.87843137254902,0.87843137254902,0.87843137254902);
#1085=COLOUR_RGB('',0.901960784313726,0.87843137254902,0.811764705882353);
#1086=COLOUR_RGB('',0.647058823529412,0.647058823529412,0.647058823529412);
#1087=COLOUR_RGB('',0.615686274509804,0.811764705882353,0.929411764705882);
#1088=COLOUR_RGB('',0.980392156862745,0.713725490196078,0.00392156862745098);
#1089=MANIFOLD_SOLID_BREP('Part 5',#849);
#1090=MANIFOLD_SOLID_BREP('Part 11',#850);
#1091=MANIFOLD_SOLID_BREP('Part 2',#851);
#1092=MANIFOLD_SOLID_BREP('Part 10',#852);
#1093=MANIFOLD_SOLID_BREP('Part 3',#853);
#1094=MANIFOLD_SOLID_BREP('Part 1',#854);
#1095=MANIFOLD_SOLID_BREP('Part 9',#855);
#1096=MANIFOLD_SOLID_BREP('Part 4',#856);
#1097=MANIFOLD_SOLID_BREP('Part 8',#857);
#1098=MANIFOLD_SOLID_BREP('Part 7',#858);
#1099=MANIFOLD_SOLID_BREP('Part 6',#859);
#1100=SHAPE_DEFINITION_REPRESENTATION(#1790,#1114);
#1101=SHAPE_DEFINITION_REPRESENTATION(#1791,#1115);
#1102=SHAPE_DEFINITION_REPRESENTATION(#1792,#1116);
#1103=SHAPE_DEFINITION_REPRESENTATION(#1793,#1117);
#1104=SHAPE_DEFINITION_REPRESENTATION(#1794,#1118);
#1105=SHAPE_DEFINITION_REPRESENTATION(#1795,#1119);
#1106=SHAPE_DEFINITION_REPRESENTATION(#1796,#1120);
#1107=SHAPE_DEFINITION_REPRESENTATION(#1797,#1121);
#1108=SHAPE_DEFINITION_REPRESENTATION(#1798,#1122);
#1109=SHAPE_DEFINITION_REPRESENTATION(#1799,#1123);
#1110=SHAPE_DEFINITION_REPRESENTATION(#1800,#1124);
#1111=SHAPE_DEFINITION_REPRESENTATION(#1801,#1125);
#1112=SHAPE_DEFINITION_REPRESENTATION(#1802,#1126);
#1113=SHAPE_DEFINITION_REPRESENTATION(#1803,#1127);
#1114=SHAPE_REPRESENTATION('Part 5',(#1128),#1720);
#1115=SHAPE_REPRESENTATION('Part 11',(#1135),#1721);
#1116=SHAPE_REPRESENTATION('Part 2',(#1141),#1722);
#1117=SHAPE_REPRESENTATION('Part 10',(#1148),#1723);
#1118=SHAPE_REPRESENTATION('Part 3',(#1155),#1724);
#1119=SHAPE_REPRESENTATION('Part 1',(#1162),#1725);
#1120=SHAPE_REPRESENTATION('Part 9',(#1169),#1726);
#1121=SHAPE_REPRESENTATION('Part 4',(#1175),#1727);
#1122=SHAPE_REPRESENTATION('Part 8',(#1182),#1728);
#1123=SHAPE_REPRESENTATION('Surface 3',(#1189),#1729);
#1124=SHAPE_REPRESENTATION('Part 7',(#1193),#1730);
#1125=SHAPE_REPRESENTATION('Part 6',(#1199),#1731);
#1126=SHAPE_REPRESENTATION('Surface 2',(#1205),#1732);
#1127=SHAPE_REPRESENTATION('Surface 1',(#1209),#1733);
#1128=AXIS2_PLACEMENT_3D('',#1467,#1213,#1214);
#1129=AXIS2_PLACEMENT_3D('',#1468,#1215,#1216);
#1130=AXIS2_PLACEMENT_3D('',#1477,#1221,#1222);
#1131=AXIS2_PLACEMENT_3D('',#1483,#1226,#1227);
#1132=AXIS2_PLACEMENT_3D('',#1489,#1231,#1232);
#1133=AXIS2_PLACEMENT_3D('',#1492,#1235,#1236);
#1134=AXIS2_PLACEMENT_3D('',#1493,#1237,#1238);
#1135=AXIS2_PLACEMENT_3D('',#1494,#1239,#1240);
#1136=AXIS2_PLACEMENT_3D('',#1495,#1241,#1242);
#1137=AXIS2_PLACEMENT_3D('',#1496,#1243,#1244);
#1138=AXIS2_PLACEMENT_3D('',#1498,#1245,#1246);
#1139=AXIS2_PLACEMENT_3D('',#1500,#1247,#1248);
#1140=AXIS2_PLACEMENT_3D('',#1501,#1249,#1250);
#1141=AXIS2_PLACEMENT_3D('',#1502,#1251,#1252);
#1142=AXIS2_PLACEMENT_3D('',#1503,#1253,#1254);
#1143=AXIS2_PLACEMENT_3D('',#1512,#1259,#1260);
#1144=AXIS2_PLACEMENT_3D('',#1518,#1264,#1265);
#1145=AXIS2_PLACEMENT_3D('',#1524,#1269,#1270);
#1146=AXIS2_PLACEMENT_3D('',#1527,#1273,#1274);
#1147=AXIS2_PLACEMENT_3D('',#1528,#1275,#1276);
#1148=AXIS2_PLACEMENT_3D('',#1529,#1277,#1278);
#1149=AXIS2_PLACEMENT_3D('',#1530,#1279,#1280);
#1150=AXIS2_PLACEMENT_3D('',#1539,#1285,#1286);
#1151=AXIS2_PLACEMENT_3D('',#1545,#1290,#1291);
#1152=AXIS2_PLACEMENT_3D('',#1551,#1295,#1296);
#1153=AXIS2_PLACEMENT_3D('',#1554,#1299,#1300);
#1154=AXIS2_PLACEMENT_3D('',#1555,#1301,#1302);
#1155=AXIS2_PLACEMENT_3D('',#1556,#1303,#1304);
#1156=AXIS2_PLACEMENT_3D('',#1557,#1305,#1306);
#1157=AXIS2_PLACEMENT_3D('',#1566,#1311,#1312);
#1158=AXIS2_PLACEMENT_3D('',#1572,#1316,#1317);
#1159=AXIS2_PLACEMENT_3D('',#1578,#1321,#1322);
#1160=AXIS2_PLACEMENT_3D('',#1581,#1325,#1326);
#1161=AXIS2_PLACEMENT_3D('',#1582,#1327,#1328);
#1162=AXIS2_PLACEMENT_3D('',#1583,#1329,#1330);
#1163=AXIS2_PLACEMENT_3D('',#1584,#1331,#1332);
#1164=AXIS2_PLACEMENT_3D('',#1593,#1337,#1338);
#1165=AXIS2_PLACEMENT_3D('',#1599,#1342,#1343);
#1166=AXIS2_PLACEMENT_3D('',#1605,#1347,#1348);
#1167=AXIS2_PLACEMENT_3D('',#1608,#1351,#1352);
#1168=AXIS2_PLACEMENT_3D('',#1609,#1353,#1354);
#1169=AXIS2_PLACEMENT_3D('',#1610,#1355,#1356);
#1170=AXIS2_PLACEMENT_3D('',#1611,#1357,#1358);
#1171=AXIS2_PLACEMENT_3D('',#1612,#1359,#1360);
#1172=AXIS2_PLACEMENT_3D('',#1614,#1361,#1362);
#1173=AXIS2_PLACEMENT_3D('',#1616,#1363,#1364);
#1174=AXIS2_PLACEMENT_3D('',#1617,#1365,#1366);
#1175=AXIS2_PLACEMENT_3D('',#1618,#1367,#1368);
#1176=AXIS2_PLACEMENT_3D('',#1619,#1369,#1370);
#1177=AXIS2_PLACEMENT_3D('',#1628,#1375,#1376);
#1178=AXIS2_PLACEMENT_3D('',#1634,#1380,#1381);
#1179=AXIS2_PLACEMENT_3D('',#1640,#1385,#1386);
#1180=AXIS2_PLACEMENT_3D('',#1643,#1389,#1390);
#1181=AXIS2_PLACEMENT_3D('',#1644,#1391,#1392);
#1182=AXIS2_PLACEMENT_3D('',#1645,#1393,#1394);
#1183=AXIS2_PLACEMENT_3D('',#1646,#1395,#1396);
#1184=AXIS2_PLACEMENT_3D('',#1655,#1401,#1402);
#1185=AXIS2_PLACEMENT_3D('',#1661,#1406,#1407);
#1186=AXIS2_PLACEMENT_3D('',#1667,#1411,#1412);
#1187=AXIS2_PLACEMENT_3D('',#1670,#1415,#1416);
#1188=AXIS2_PLACEMENT_3D('',#1671,#1417,#1418);
#1189=AXIS2_PLACEMENT_3D('',#1672,#1419,#1420);
#1190=AXIS2_PLACEMENT_3D('',#1673,#1421,#1422);
#1191=AXIS2_PLACEMENT_3D('',#1674,#1423,#1424);
#1192=AXIS2_PLACEMENT_3D('',#1676,#1425,#1426);
#1193=AXIS2_PLACEMENT_3D('',#1678,#1427,#1428);
#1194=AXIS2_PLACEMENT_3D('',#1679,#1429,#1430);
#1195=AXIS2_PLACEMENT_3D('',#1680,#1431,#1432);
#1196=AXIS2_PLACEMENT_3D('',#1682,#1433,#1434);
#1197=AXIS2_PLACEMENT_3D('',#1684,#1435,#1436);
#1198=AXIS2_PLACEMENT_3D('',#1685,#1437,#1438);
#1199=AXIS2_PLACEMENT_3D('',#1686,#1439,#1440);
#1200=AXIS2_PLACEMENT_3D('',#1687,#1441,#1442);
#1201=AXIS2_PLACEMENT_3D('',#1688,#1443,#1444);
#1202=AXIS2_PLACEMENT_3D('',#1690,#1445,#1446);
#1203=AXIS2_PLACEMENT_3D('',#1692,#1447,#1448);
#1204=AXIS2_PLACEMENT_3D('',#1693,#1449,#1450);
#1205=AXIS2_PLACEMENT_3D('',#1694,#1451,#1452);
#1206=AXIS2_PLACEMENT_3D('',#1695,#1453,#1454);
#1207=AXIS2_PLACEMENT_3D('',#1696,#1455,#1456);
#1208=AXIS2_PLACEMENT_3D('',#1698,#1457,#1458);
#1209=AXIS2_PLACEMENT_3D('',#1700,#1459,#1460);
#1210=AXIS2_PLACEMENT_3D('',#1701,#1461,#1462);
#1211=AXIS2_PLACEMENT_3D('',#1702,#1463,#1464);
#1212=AXIS2_PLACEMENT_3D('',#1704,#1465,#1466);
#1213=DIRECTION('',(0.,0.,1.));
#1214=DIRECTION('',(1.,0.,0.));
#1215=DIRECTION('',(0.,1.,0.));
#1216=DIRECTION('',(0.,0.,1.));
#1217=DIRECTION('',(1.,0.,0.));
#1218=DIRECTION('',(0.,0.,-1.));
#1219=DIRECTION('',(1.,0.,0.));
#1220=DIRECTION('',(0.,0.,-1.));
#1221=DIRECTION('',(1.,0.,0.));
#1222=DIRECTION('',(0.,0.,-1.));
#1223=DIRECTION('',(0.,-1.,0.));
#1224=DIRECTION('',(0.,0.,-1.));
#1225=DIRECTION('',(0.,-1.,0.));
#1226=DIRECTION('',(0.,1.,0.));
#1227=DIRECTION('',(0.,0.,1.));
#1228=DIRECTION('',(1.,0.,0.));
#1229=DIRECTION('',(0.,0.,-1.));
#1230=DIRECTION('',(1.,0.,0.));
#1231=DIRECTION('',(1.,0.,0.));
#1232=DIRECTION('',(0.,0.,-1.));
#1233=DIRECTION('',(0.,-1.,0.));
#1234=DIRECTION('',(0.,-1.,0.));
#1235=DIRECTION('',(0.,0.,1.));
#1236=DIRECTION('',(1.,0.,0.));
#1237=DIRECTION('',(0.,0.,1.));
#1238=DIRECTION('',(1.,0.,0.));
#1239=DIRECTION('',(0.,0.,1.));
#1240=DIRECTION('',(1.,0.,0.));
#1241=DIRECTION('',(0.,0.,-1.));
#1242=DIRECTION('',(-1.,0.,0.));
#1243=DIRECTION('',(0.,0.,1.));
#1244=DIRECTION('',(1.,0.,0.));
#1245=DIRECTION('',(0.,0.,1.));
#1246=DIRECTION('',(1.,0.,0.));
#1247=DIRECTION('',(0.,0.,1.));
#1248=DIRECTION('',(1.,0.,0.));
#1249=DIRECTION('',(0.,0.,1.));
#1250=DIRECTION('',(1.,0.,0.));
#1251=DIRECTION('',(0.,0.,1.));
#1252=DIRECTION('',(1.,0.,0.));
#1253=DIRECTION('',(1.06752213906265E-16,-1.,0.));
#1254=DIRECTION('',(1.,1.06752213906265E-16,0.));
#1255=DIRECTION('',(-1.,-1.06752213906265E-16,0.));
#1256=DIRECTION('',(0.,0.,-1.));
#1257=DIRECTION('',(-1.,-1.06752213906265E-16,0.));
#1258=DIRECTION('',(0.,0.,-1.));
#1259=DIRECTION('',(1.,0.,0.));
#1260=DIRECTION('',(0.,0.,-1.));
#1261=DIRECTION('',(0.,-1.,0.));
#1262=DIRECTION('',(0.,-1.,0.));
#1263=DIRECTION('',(0.,0.,-1.));
#1264=DIRECTION('',(2.1350442781253E-16,-1.,0.));
#1265=DIRECTION('',(1.,2.1350442781253E-16,0.));
#1266=DIRECTION('',(-1.,-2.1350442781253E-16,0.));
#1267=DIRECTION('',(-1.,-2.1350442781253E-16,0.));
#1268=DIRECTION('',(0.,0.,-1.));
#1269=DIRECTION('',(1.,6.30808536718839E-17,0.));
#1270=DIRECTION('',(-6.30808536718839E-17,1.,0.));
#1271=DIRECTION('',(6.30808536718839E-17,-1.,0.));
#1272=DIRECTION('',(6.30808536718839E-17,-1.,0.));
#1273=DIRECTION('',(0.,0.,-1.));
#1274=DIRECTION('',(1.,0.,0.));
#1275=DIRECTION('',(0.,0.,-1.));
#1276=DIRECTION('',(1.,0.,0.));
#1277=DIRECTION('',(0.,0.,1.));
#1278=DIRECTION('',(1.,0.,0.));
#1279=DIRECTION('',(0.,1.,0.));
#1280=DIRECTION('',(0.,0.,1.));
#1281=DIRECTION('',(1.,0.,0.));
#1282=DIRECTION('',(0.,0.,-1.));
#1283=DIRECTION('',(1.,0.,0.));
#1284=DIRECTION('',(0.,0.,-1.));
#1285=DIRECTION('',(1.,0.,0.));
#1286=DIRECTION('',(0.,0.,-1.));
#1287=DIRECTION('',(0.,-1.,0.));
#1288=DIRECTION('',(0.,0.,-1.));
#1289=DIRECTION('',(0.,-1.,0.));
#1290=DIRECTION('',(0.,1.,0.));
#1291=DIRECTION('',(0.,0.,1.));
#1292=DIRECTION('',(1.,0.,0.));
#1293=DIRECTION('',(0.,0.,-1.));
#1294=DIRECTION('',(1.,0.,0.));
#1295=DIRECTION('',(1.,0.,0.));
#1296=DIRECTION('',(0.,0.,-1.));
#1297=DIRECTION('',(0.,-1.,0.));
#1298=DIRECTION('',(0.,-1.,0.));
#1299=DIRECTION('',(0.,0.,1.));
#1300=DIRECTION('',(1.,0.,0.));
#1301=DIRECTION('',(0.,0.,1.));
#1302=DIRECTION('',(1.,0.,0.));
#1303=DIRECTION('',(0.,0.,1.));
#1304=DIRECTION('',(1.,0.,0.));
#1305=DIRECTION('',(-1.15648231731787E-16,-1.,0.));
#1306=DIRECTION('',(1.,-1.15648231731787E-16,0.));
#1307=DIRECTION('',(-1.,1.15648231731787E-16,0.));
#1308=DIRECTION('',(0.,0.,-1.));
#1309=DIRECTION('',(-1.,1.15648231731787E-16,0.));
#1310=DIRECTION('',(0.,0.,-1.));
#1311=DIRECTION('',(1.,7.70988211545248E-17,0.));
#1312=DIRECTION('',(-7.70988211545248E-17,1.,0.));
#1313=DIRECTION('',(7.70988211545248E-17,-1.,0.));
#1314=DIRECTION('',(7.70988211545248E-17,-1.,0.));
#1315=DIRECTION('',(0.,0.,-1.));
#1316=DIRECTION('',(-1.54197642309049E-16,-1.,0.));
#1317=DIRECTION('',(1.,-1.54197642309049E-16,0.));
#1318=DIRECTION('',(-1.,1.54197642309049E-16,0.));
#1319=DIRECTION('',(-1.,1.54197642309049E-16,0.));
#1320=DIRECTION('',(0.,0.,-1.));
#1321=DIRECTION('',(1.,7.70988211545248E-17,0.));
#1322=DIRECTION('',(-7.70988211545248E-17,1.,0.));
#1323=DIRECTION('',(7.70988211545248E-17,-1.,0.));
#1324=DIRECTION('',(7.70988211545248E-17,-1.,0.));
#1325=DIRECTION('',(0.,0.,-1.));
#1326=DIRECTION('',(1.,0.,0.));
#1327=DIRECTION('',(0.,0.,-1.));
#1328=DIRECTION('',(1.,0.,0.));
#1329=DIRECTION('',(0.,0.,1.));
#1330=DIRECTION('',(1.,0.,0.));
#1331=DIRECTION('',(1.,0.,0.));
#1332=DIRECTION('',(0.,0.,-1.));
#1333=DIRECTION('',(0.,-1.,0.));
#1334=DIRECTION('',(0.,0.,-1.));
#1335=DIRECTION('',(0.,-1.,0.));
#1336=DIRECTION('',(0.,0.,-1.));
#1337=DIRECTION('',(1.26161707343768E-16,-1.,0.));
#1338=DIRECTION('',(1.,1.26161707343768E-16,0.));
#1339=DIRECTION('',(-1.,-1.26161707343768E-16,0.));
#1340=DIRECTION('',(0.,0.,-1.));
#1341=DIRECTION('',(-1.,-1.26161707343768E-16,0.));
#1342=DIRECTION('',(1.,0.,0.));
#1343=DIRECTION('',(0.,0.,-1.));
#1344=DIRECTION('',(0.,-1.,0.));
#1345=DIRECTION('',(0.,0.,-1.));
#1346=DIRECTION('',(0.,-1.,0.));
#1347=DIRECTION('',(0.,-1.,0.));
#1348=DIRECTION('',(0.,0.,-1.));
#1349=DIRECTION('',(-1.,0.,0.));
#1350=DIRECTION('',(-1.,0.,0.));
#1351=DIRECTION('',(0.,0.,1.));
#1352=DIRECTION('',(1.,0.,0.));
#1353=DIRECTION('',(0.,0.,1.));
#1354=DIRECTION('',(1.,0.,0.));
#1355=DIRECTION('',(0.,0.,1.));
#1356=DIRECTION('',(1.,0.,0.));
#1357=DIRECTION('',(1.,0.,0.));
#1358=DIRECTION('',(0.,0.,-1.));
#1359=DIRECTION('',(-1.,0.,0.));
#1360=DIRECTION('',(0.,0.,1.));
#1361=DIRECTION('',(-1.,0.,0.));
#1362=DIRECTION('',(0.,0.,1.));
#1363=DIRECTION('',(-1.,0.,0.));
#1364=DIRECTION('',(0.,-1.,0.));
#1365=DIRECTION('',(-1.,0.,0.));
#1366=DIRECTION('',(0.,-1.,0.));
#1367=DIRECTION('',(0.,0.,1.));
#1368=DIRECTION('',(1.,0.,0.));
#1369=DIRECTION('',(-1.15648231731787E-16,-1.,0.));
#1370=DIRECTION('',(1.,-1.15648231731787E-16,0.));
#1371=DIRECTION('',(-1.,1.15648231731787E-16,0.));
#1372=DIRECTION('',(0.,0.,-1.));
#1373=DIRECTION('',(-1.,1.15648231731787E-16,0.));
#1374=DIRECTION('',(0.,0.,-1.));
#1375=DIRECTION('',(1.,0.,0.));
#1376=DIRECTION('',(0.,0.,-1.));
#1377=DIRECTION('',(0.,-1.,0.));
#1378=DIRECTION('',(0.,-1.,0.));
#1379=DIRECTION('',(0.,0.,-1.));
#1380=DIRECTION('',(-7.70988211545248E-17,-1.,0.));
#1381=DIRECTION('',(1.,-7.70988211545248E-17,0.));
#1382=DIRECTION('',(-1.,7.70988211545248E-17,0.));
#1383=DIRECTION('',(-1.,7.70988211545248E-17,0.));
#1384=DIRECTION('',(0.,0.,-1.));
#1385=DIRECTION('',(1.,0.,0.));
#1386=DIRECTION('',(0.,0.,-1.));
#1387=DIRECTION('',(0.,-1.,0.));
#1388=DIRECTION('',(0.,-1.,0.));
#1389=DIRECTION('',(0.,0.,-1.));
#1390=DIRECTION('',(1.,0.,0.));
#1391=DIRECTION('',(0.,0.,-1.));
#1392=DIRECTION('',(1.,0.,0.));
#1393=DIRECTION('',(0.,0.,1.));
#1394=DIRECTION('',(1.,0.,0.));
#1395=DIRECTION('',(-1.7347234759768E-16,1.,0.));
#1396=DIRECTION('',(-1.,-1.7347234759768E-16,0.));
#1397=DIRECTION('',(1.,1.7347234759768E-16,0.));
#1398=DIRECTION('',(0.,0.,-1.));
#1399=DIRECTION('',(1.,1.7347234759768E-16,0.));
#1400=DIRECTION('',(0.,0.,-1.));
#1401=DIRECTION('',(1.,0.,0.));
#1402=DIRECTION('',(0.,0.,-1.));
#1403=DIRECTION('',(0.,-1.,0.));
#1404=DIRECTION('',(0.,0.,-1.));
#1405=DIRECTION('',(0.,-1.,0.));
#1406=DIRECTION('',(0.,1.,0.));
#1407=DIRECTION('',(0.,0.,1.));
#1408=DIRECTION('',(1.,0.,0.));
#1409=DIRECTION('',(0.,0.,-1.));
#1410=DIRECTION('',(1.,0.,0.));
#1411=DIRECTION('',(1.,0.,0.));
#1412=DIRECTION('',(0.,0.,-1.));
#1413=DIRECTION('',(0.,-1.,0.));
#1414=DIRECTION('',(0.,-1.,0.));
#1415=DIRECTION('',(0.,0.,1.));
#1416=DIRECTION('',(1.,0.,0.));
#1417=DIRECTION('',(0.,0.,1.));
#1418=DIRECTION('',(1.,0.,0.));
#1419=DIRECTION('',(0.,0.,1.));
#1420=DIRECTION('',(1.,0.,0.));
#1421=DIRECTION('',(0.,0.,1.));
#1422=DIRECTION('',(1.,0.,0.));
#1423=DIRECTION('',(0.,0.,1.));
#1424=DIRECTION('',(1.,0.,0.));
#1425=DIRECTION('',(0.,0.,1.));
#1426=DIRECTION('',(1.,0.,0.));
#1427=DIRECTION('',(0.,0.,1.));
#1428=DIRECTION('',(1.,0.,0.));
#1429=DIRECTION('',(1.,0.,0.));
#1430=DIRECTION('',(0.,0.,-1.));
#1431=DIRECTION('',(-1.,0.,0.));
#1432=DIRECTION('',(0.,0.,1.));
#1433=DIRECTION('',(-1.,0.,0.));
#1434=DIRECTION('',(0.,0.,1.));
#1435=DIRECTION('',(-1.,0.,0.));
#1436=DIRECTION('',(0.,-1.,0.));
#1437=DIRECTION('',(-1.,0.,0.));
#1438=DIRECTION('',(0.,-1.,0.));
#1439=DIRECTION('',(0.,0.,1.));
#1440=DIRECTION('',(1.,0.,0.));
#1441=DIRECTION('',(1.,0.,0.));
#1442=DIRECTION('',(0.,0.,-1.));
#1443=DIRECTION('',(-1.,0.,0.));
#1444=DIRECTION('',(0.,0.,1.));
#1445=DIRECTION('',(-1.,0.,0.));
#1446=DIRECTION('',(0.,0.,1.));
#1447=DIRECTION('',(-1.,0.,0.));
#1448=DIRECTION('',(0.,-1.,0.));
#1449=DIRECTION('',(-1.,0.,0.));
#1450=DIRECTION('',(0.,-1.,0.));
#1451=DIRECTION('',(0.,0.,1.));
#1452=DIRECTION('',(1.,0.,0.));
#1453=DIRECTION('',(0.,0.,1.));
#1454=DIRECTION('',(1.,0.,0.));
#1455=DIRECTION('',(0.,0.,1.));
#1456=DIRECTION('',(1.,0.,0.));
#1457=DIRECTION('',(0.,0.,1.));
#1458=DIRECTION('',(1.,0.,0.));
#1459=DIRECTION('',(0.,0.,1.));
#1460=DIRECTION('',(1.,0.,0.));
#1461=DIRECTION('',(0.,0.,1.));
#1462=DIRECTION('',(1.,0.,0.));
#1463=DIRECTION('',(0.,0.,1.));
#1464=DIRECTION('',(1.,0.,0.));
#1465=DIRECTION('',(0.,0.,1.));
#1466=DIRECTION('',(1.,0.,0.));
#1467=CARTESIAN_POINT('',(0.,0.,0.));
#1468=CARTESIAN_POINT('',(-0.100340299395146,0.00937954610838771,0.023));
#1469=CARTESIAN_POINT('',(-0.100340299395146,0.00937954610838771,0.003));
#1470=CARTESIAN_POINT('',(-0.105340299395146,0.00937954610838771,0.003));
#1471=CARTESIAN_POINT('',(-0.0953402993951458,0.0093795461083877,0.003));
#1472=CARTESIAN_POINT('',(-0.105340299395146,0.00937954610838771,0.023));
#1473=CARTESIAN_POINT('',(-0.105340299395146,0.00937954610838771,0.023));
#1474=CARTESIAN_POINT('',(-0.100340299395146,0.00937954610838771,0.023));
#1475=CARTESIAN_POINT('',(-0.0953402993951458,0.0093795461083877,0.023));
#1476=CARTESIAN_POINT('',(-0.0953402993951458,0.0093795461083877,0.023));
#1477=CARTESIAN_POINT('',(-0.105340299395146,-0.0131204538916123,0.023));
#1478=CARTESIAN_POINT('',(-0.105340299395146,-0.0131204538916123,0.003));
#1479=CARTESIAN_POINT('',(-0.105340299395146,-0.0356204538916123,0.003));
#1480=CARTESIAN_POINT('',(-0.105340299395146,-0.0356204538916123,0.023));
#1481=CARTESIAN_POINT('',(-0.105340299395146,-0.0356204538916123,0.023));
#1482=CARTESIAN_POINT('',(-0.105340299395146,-0.0131204538916123,0.023));
#1483=CARTESIAN_POINT('',(-0.100340299395146,-0.0356204538916123,0.023));
#1484=CARTESIAN_POINT('',(-0.100340299395146,-0.0356204538916123,0.003));
#1485=CARTESIAN_POINT('',(-0.0953402993951458,-0.0356204538916123,0.003));
#1486=CARTESIAN_POINT('',(-0.0953402993951458,-0.0356204538916123,0.023));
#1487=CARTESIAN_POINT('',(-0.0953402993951458,-0.0356204538916123,0.023));
#1488=CARTESIAN_POINT('',(-0.100340299395146,-0.0356204538916123,0.023));
#1489=CARTESIAN_POINT('',(-0.0953402993951458,-0.0131204538916123,0.023));
#1490=CARTESIAN_POINT('',(-0.0953402993951458,-0.0131204538916123,0.003));
#1491=CARTESIAN_POINT('',(-0.0953402993951458,-0.0131204538916123,0.023));
#1492=CARTESIAN_POINT('',(0.000159700604854151,-0.0136204538916123,0.023));
#1493=CARTESIAN_POINT('',(0.000159700604854151,-0.0136204538916123,0.003));
#1494=CARTESIAN_POINT('',(0.,0.,0.));
#1495=CARTESIAN_POINT('',(-0.0920238338112831,-0.0511029876470566,0.006));
#1496=CARTESIAN_POINT('',(-0.0920238338112831,-0.0511029876470566,0.006));
#1497=CARTESIAN_POINT('',(-0.0890238338112831,-0.0511029876470566,0.006));
#1498=CARTESIAN_POINT('',(-0.0920238338112831,-0.0511029876470566,-0.029));
#1499=CARTESIAN_POINT('',(-0.0890238338112831,-0.0511029876470566,-0.029));
#1500=CARTESIAN_POINT('',(8.44746828079224E-5,-0.0134964492172003,0.006));
#1501=CARTESIAN_POINT('',(8.44746828079224E-5,-0.0134964492172003,-0.029));
#1502=CARTESIAN_POINT('',(0.,0.,0.));
#1503=CARTESIAN_POINT('',(0.0626597006048542,0.0163795461083877,0.015));
#1504=CARTESIAN_POINT('',(0.0626597006048542,0.0163795461083877,0.));
#1505=CARTESIAN_POINT('',(0.0951597006048542,0.0163795461083877,0.));
#1506=CARTESIAN_POINT('',(0.0301597006048541,0.0163795461083877,0.));
#1507=CARTESIAN_POINT('',(0.0301597006048541,0.0163795461083877,0.015));
#1508=CARTESIAN_POINT('',(0.0301597006048541,0.0163795461083877,0.015));
#1509=CARTESIAN_POINT('',(0.0626597006048542,0.0163795461083877,0.015));
#1510=CARTESIAN_POINT('',(0.0951597006048542,0.0163795461083877,0.015));
#1511=CARTESIAN_POINT('',(0.0951597006048542,0.0163795461083877,0.015));
#1512=CARTESIAN_POINT('',(0.0951597006048542,-0.0111204538916123,0.015));
#1513=CARTESIAN_POINT('',(0.0951597006048542,-0.0111204538916123,0.));
#1514=CARTESIAN_POINT('',(0.0951597006048542,-0.0386204538916123,0.));
#1515=CARTESIAN_POINT('',(0.0951597006048542,-0.0111204538916123,0.015));
#1516=CARTESIAN_POINT('',(0.0951597006048542,-0.0386204538916123,0.015));
#1517=CARTESIAN_POINT('',(0.0951597006048542,-0.0386204538916123,0.015));
#1518=CARTESIAN_POINT('',(0.0626597006048542,-0.0386204538916123,0.015));
#1519=CARTESIAN_POINT('',(0.0626597006048542,-0.0386204538916123,0.));
#1520=CARTESIAN_POINT('',(0.0301597006048541,-0.0386204538916123,0.));
#1521=CARTESIAN_POINT('',(0.0626597006048542,-0.0386204538916123,0.015));
#1522=CARTESIAN_POINT('',(0.0301597006048541,-0.0386204538916123,0.015));
#1523=CARTESIAN_POINT('',(0.0301597006048541,-0.0386204538916123,0.015));
#1524=CARTESIAN_POINT('',(0.0301597006048541,-0.0111204538916123,0.015));
#1525=CARTESIAN_POINT('',(0.0301597006048541,-0.0111204538916123,0.));
#1526=CARTESIAN_POINT('',(0.0301597006048541,-0.0111204538916123,0.015));
#1527=CARTESIAN_POINT('',(0.000159700604854151,-0.0136204538916123,0.015));
#1528=CARTESIAN_POINT('',(0.000159700604854151,-0.0136204538916123,0.));
#1529=CARTESIAN_POINT('',(0.,0.,0.));
#1530=CARTESIAN_POINT('',(8.44746828079224E-5,0.042110089212656,-0.029));
#1531=CARTESIAN_POINT('',(8.44746828079224E-5,0.042110089212656,-0.032));
#1532=CARTESIAN_POINT('',(-0.110023833811283,0.042110089212656,-0.032));
#1533=CARTESIAN_POINT('',(0.110192783176899,0.042110089212656,-0.032));
#1534=CARTESIAN_POINT('',(-0.110023833811283,0.042110089212656,-0.029));
#1535=CARTESIAN_POINT('',(-0.110023833811283,0.042110089212656,-0.029));
#1536=CARTESIAN_POINT('',(8.44746828079224E-5,0.042110089212656,-0.029));
#1537=CARTESIAN_POINT('',(0.110192783176899,0.042110089212656,-0.029));
#1538=CARTESIAN_POINT('',(0.110192783176899,0.042110089212656,-0.029));
#1539=CARTESIAN_POINT('',(-0.110023833811283,-0.0134964492172003,-0.029));
#1540=CARTESIAN_POINT('',(-0.110023833811283,-0.0134964492172003,-0.032));
#1541=CARTESIAN_POINT('',(-0.110023833811283,-0.0691029876470566,-0.032));
#1542=CARTESIAN_POINT('',(-0.110023833811283,-0.0691029876470566,-0.029));
#1543=CARTESIAN_POINT('',(-0.110023833811283,-0.0691029876470566,-0.029));
#1544=CARTESIAN_POINT('',(-0.110023833811283,-0.0134964492172003,-0.029));
#1545=CARTESIAN_POINT('',(8.44746828079224E-5,-0.0691029876470566,-0.029));
#1546=CARTESIAN_POINT('',(8.44746828079224E-5,-0.0691029876470566,-0.032));
#1547=CARTESIAN_POINT('',(0.110192783176899,-0.0691029876470566,-0.032));
#1548=CARTESIAN_POINT('',(0.110192783176899,-0.0691029876470566,-0.029));
#1549=CARTESIAN_POINT('',(0.110192783176899,-0.0691029876470566,-0.029));
#1550=CARTESIAN_POINT('',(8.44746828079224E-5,-0.0691029876470566,-0.029));
#1551=CARTESIAN_POINT('',(0.110192783176899,-0.0134964492172003,-0.029));
#1552=CARTESIAN_POINT('',(0.110192783176899,-0.0134964492172003,-0.032));
#1553=CARTESIAN_POINT('',(0.110192783176899,-0.0134964492172003,-0.029));
#1554=CARTESIAN_POINT('',(8.44746828079224E-5,-0.0134964492172003,-0.029));
#1555=CARTESIAN_POINT('',(8.44746828079224E-5,-0.0134964492172003,-0.032));
#1556=CARTESIAN_POINT('',(0.,0.,0.));
#1557=CARTESIAN_POINT('',(-0.00434029939514585,0.00937954610838772,0.015));
#1558=CARTESIAN_POINT('',(-0.00434029939514585,0.00937954610838772,0.));
#1559=CARTESIAN_POINT('',(0.0181597006048541,0.00937954610838772,0.));
#1560=CARTESIAN_POINT('',(-0.0268402993951458,0.00937954610838772,0.));
#1561=CARTESIAN_POINT('',(-0.0268402993951458,0.00937954610838772,0.015));
#1562=CARTESIAN_POINT('',(-0.0268402993951458,0.00937954610838772,0.015));
#1563=CARTESIAN_POINT('',(-0.00434029939514585,0.00937954610838772,0.015));
#1564=CARTESIAN_POINT('',(0.0181597006048541,0.00937954610838772,0.015));
#1565=CARTESIAN_POINT('',(0.0181597006048541,0.00937954610838772,0.015));
#1566=CARTESIAN_POINT('',(0.0181597006048541,-0.0131204538916123,0.015));
#1567=CARTESIAN_POINT('',(0.0181597006048541,-0.0131204538916123,0.));
#1568=CARTESIAN_POINT('',(0.0181597006048541,-0.0356204538916123,0.));
#1569=CARTESIAN_POINT('',(0.0181597006048541,-0.0131204538916123,0.015));
#1570=CARTESIAN_POINT('',(0.0181597006048541,-0.0356204538916123,0.015));
#1571=CARTESIAN_POINT('',(0.0181597006048541,-0.0356204538916123,0.015));
#1572=CARTESIAN_POINT('',(-0.00434029939514585,-0.0356204538916123,0.015));
#1573=CARTESIAN_POINT('',(-0.00434029939514585,-0.0356204538916123,0.));
#1574=CARTESIAN_POINT('',(-0.0268402993951458,-0.0356204538916123,0.));
#1575=CARTESIAN_POINT('',(-0.00434029939514585,-0.0356204538916123,0.015));
#1576=CARTESIAN_POINT('',(-0.0268402993951458,-0.0356204538916123,0.015));
#1577=CARTESIAN_POINT('',(-0.0268402993951458,-0.0356204538916123,0.015));
#1578=CARTESIAN_POINT('',(-0.0268402993951458,-0.0131204538916123,0.015));
#1579=CARTESIAN_POINT('',(-0.0268402993951458,-0.0131204538916123,0.));
#1580=CARTESIAN_POINT('',(-0.0268402993951458,-0.0131204538916123,0.015));
#1581=CARTESIAN_POINT('',(0.000159700604854151,-0.0136204538916123,0.015));
#1582=CARTESIAN_POINT('',(0.000159700604854151,-0.0136204538916123,0.));
#1583=CARTESIAN_POINT('',(0.,0.,0.));
#1584=CARTESIAN_POINT('',(0.110159700604854,-0.0136204538916123,0.003));
#1585=CARTESIAN_POINT('',(0.110159700604854,-0.0136204538916123,0.));
#1586=CARTESIAN_POINT('',(0.110159700604854,0.0413795461083877,0.));
#1587=CARTESIAN_POINT('',(0.110159700604854,-0.0686204538916123,0.));
#1588=CARTESIAN_POINT('',(0.110159700604854,0.0413795461083877,0.003));
#1589=CARTESIAN_POINT('',(0.110159700604854,0.0413795461083877,0.003));
#1590=CARTESIAN_POINT('',(0.110159700604854,-0.0136204538916123,0.003));
#1591=CARTESIAN_POINT('',(0.110159700604854,-0.0686204538916123,0.003));
#1592=CARTESIAN_POINT('',(0.110159700604854,-0.0686204538916123,0.003));
#1593=CARTESIAN_POINT('',(0.000159700604854137,0.0413795461083877,0.003));
#1594=CARTESIAN_POINT('',(0.000159700604854137,0.0413795461083877,0.));
#1595=CARTESIAN_POINT('',(-0.109840299395146,0.0413795461083877,0.));
#1596=CARTESIAN_POINT('',(-0.109840299395146,0.0413795461083877,0.003));
#1597=CARTESIAN_POINT('',(-0.109840299395146,0.0413795461083877,0.003));
#1598=CARTESIAN_POINT('',(0.000159700604854137,0.0413795461083877,0.003));
#1599=CARTESIAN_POINT('',(-0.109840299395146,-0.0136204538916123,0.003));
#1600=CARTESIAN_POINT('',(-0.109840299395146,-0.0136204538916123,0.));
#1601=CARTESIAN_POINT('',(-0.109840299395146,-0.0686204538916123,0.));
#1602=CARTESIAN_POINT('',(-0.109840299395146,-0.0686204538916123,0.003));
#1603=CARTESIAN_POINT('',(-0.109840299395146,-0.0686204538916123,0.003));
#1604=CARTESIAN_POINT('',(-0.109840299395146,-0.0136204538916123,0.003));
#1605=CARTESIAN_POINT('',(0.000159700604854151,-0.0686204538916123,0.003));
#1606=CARTESIAN_POINT('',(0.000159700604854151,-0.0686204538916123,0.));
#1607=CARTESIAN_POINT('',(0.000159700604854151,-0.0686204538916123,0.003));
#1608=CARTESIAN_POINT('',(0.000159700604854151,-0.0136204538916123,0.003));
#1609=CARTESIAN_POINT('',(0.000159700604854151,-0.0136204538916123,0.));
#1610=CARTESIAN_POINT('',(0.,0.,0.));
#1611=CARTESIAN_POINT('',(-0.0948402993951458,-0.0120027916675036,0.0335));
#1612=CARTESIAN_POINT('',(-0.0948402993951458,-0.0120027916675036,0.0335));
#1613=CARTESIAN_POINT('',(-0.0948402993951458,-0.0120027916675036,0.0395));
#1614=CARTESIAN_POINT('',(-0.0908402993951458,-0.0120027916675036,0.0335));
#1615=CARTESIAN_POINT('',(-0.0908402993951458,-0.0120027916675036,0.0395));
#1616=CARTESIAN_POINT('',(-0.0948402993951458,-0.0120027916675036,0.023));
#1617=CARTESIAN_POINT('',(-0.0908402993951458,-0.0120027916675036,0.023));
#1618=CARTESIAN_POINT('',(0.,0.,0.));
#1619=CARTESIAN_POINT('',(-0.0593402993951459,-0.00362045389161229,0.015));
#1620=CARTESIAN_POINT('',(-0.0593402993951459,-0.00362045389161229,0.));
#1621=CARTESIAN_POINT('',(-0.0368402993951458,-0.00362045389161229,0.));
#1622=CARTESIAN_POINT('',(-0.0818402993951458,-0.00362045389161229,0.));
#1623=CARTESIAN_POINT('',(-0.0818402993951458,-0.00362045389161229,0.015));
#1624=CARTESIAN_POINT('',(-0.0818402993951458,-0.00362045389161229,0.015));
#1625=CARTESIAN_POINT('',(-0.0593402993951459,-0.00362045389161229,0.015));
#1626=CARTESIAN_POINT('',(-0.0368402993951458,-0.00362045389161229,0.015));
#1627=CARTESIAN_POINT('',(-0.0368402993951458,-0.00362045389161229,0.015));
#1628=CARTESIAN_POINT('',(-0.0368402993951458,-0.0126204538916123,0.015));
#1629=CARTESIAN_POINT('',(-0.0368402993951458,-0.0126204538916123,0.));
#1630=CARTESIAN_POINT('',(-0.0368402993951458,-0.0216204538916123,0.));
#1631=CARTESIAN_POINT('',(-0.0368402993951458,-0.0126204538916123,0.015));
#1632=CARTESIAN_POINT('',(-0.0368402993951458,-0.0216204538916123,0.015));
#1633=CARTESIAN_POINT('',(-0.0368402993951458,-0.0216204538916123,0.015));
#1634=CARTESIAN_POINT('',(-0.0593402993951459,-0.0216204538916123,0.015));
#1635=CARTESIAN_POINT('',(-0.0593402993951459,-0.0216204538916123,0.));
#1636=CARTESIAN_POINT('',(-0.0818402993951458,-0.0216204538916123,0.));
#1637=CARTESIAN_POINT('',(-0.0593402993951459,-0.0216204538916123,0.015));
#1638=CARTESIAN_POINT('',(-0.0818402993951458,-0.0216204538916123,0.015));
#1639=CARTESIAN_POINT('',(-0.0818402993951458,-0.0216204538916123,0.015));
#1640=CARTESIAN_POINT('',(-0.0818402993951458,-0.0126204538916123,0.015));
#1641=CARTESIAN_POINT('',(-0.0818402993951458,-0.0126204538916123,0.));
#1642=CARTESIAN_POINT('',(-0.0818402993951458,-0.0126204538916123,0.015));
#1643=CARTESIAN_POINT('',(0.000159700604854151,-0.0136204538916123,0.015));
#1644=CARTESIAN_POINT('',(0.000159700604854151,-0.0136204538916123,0.));
#1645=CARTESIAN_POINT('',(0.,0.,0.));
#1646=CARTESIAN_POINT('',(-0.0883402993951458,0.00149720833249637,0.043));
#1647=CARTESIAN_POINT('',(-0.0883402993951458,0.00149720833249637,0.003));
#1648=CARTESIAN_POINT('',(-0.0908402993951458,0.00149720833249637,0.003));
#1649=CARTESIAN_POINT('',(-0.0858402993951458,0.00149720833249637,0.003));
#1650=CARTESIAN_POINT('',(-0.0908402993951458,0.00149720833249637,0.043));
#1651=CARTESIAN_POINT('',(-0.0908402993951458,0.00149720833249637,0.043));
#1652=CARTESIAN_POINT('',(-0.0883402993951458,0.00149720833249637,0.043));
#1653=CARTESIAN_POINT('',(-0.0858402993951458,0.00149720833249637,0.043));
#1654=CARTESIAN_POINT('',(-0.0858402993951458,0.00149720833249637,0.043));
#1655=CARTESIAN_POINT('',(-0.0908402993951458,-0.0120027916675036,0.043));
#1656=CARTESIAN_POINT('',(-0.0908402993951458,-0.0120027916675036,0.003));
#1657=CARTESIAN_POINT('',(-0.0908402993951458,-0.0255027916675036,0.003));
#1658=CARTESIAN_POINT('',(-0.0908402993951458,-0.0255027916675036,0.043));
#1659=CARTESIAN_POINT('',(-0.0908402993951458,-0.0255027916675036,0.043));
#1660=CARTESIAN_POINT('',(-0.0908402993951458,-0.0120027916675036,0.043));
#1661=CARTESIAN_POINT('',(-0.0883402993951458,-0.0255027916675036,0.043));
#1662=CARTESIAN_POINT('',(-0.0883402993951458,-0.0255027916675036,0.003));
#1663=CARTESIAN_POINT('',(-0.0858402993951458,-0.0255027916675036,0.003));
#1664=CARTESIAN_POINT('',(-0.0858402993951458,-0.0255027916675036,0.043));
#1665=CARTESIAN_POINT('',(-0.0858402993951458,-0.0255027916675036,0.043));
#1666=CARTESIAN_POINT('',(-0.0883402993951458,-0.0255027916675036,0.043));
#1667=CARTESIAN_POINT('',(-0.0858402993951458,-0.0120027916675036,0.043));
#1668=CARTESIAN_POINT('',(-0.0858402993951458,-0.0120027916675036,0.003));
#1669=CARTESIAN_POINT('',(-0.0858402993951458,-0.0120027916675036,0.043));
#1670=CARTESIAN_POINT('',(0.000159700604854151,-0.0136204538916123,0.043));
#1671=CARTESIAN_POINT('',(0.000159700604854151,-0.0136204538916123,0.003));
#1672=CARTESIAN_POINT('',(0.,0.,0.));
#1673=CARTESIAN_POINT('',(0.092192783176899,-0.0511029876470566,-0.029));
#1674=CARTESIAN_POINT('',(0.092192783176899,-0.0511029876470566,-0.029));
#1675=CARTESIAN_POINT('',(0.095192783176899,-0.0511029876470566,-0.029));
#1676=CARTESIAN_POINT('',(0.092192783176899,-0.0511029876470566,0.006));
#1677=CARTESIAN_POINT('',(0.095192783176899,-0.0511029876470566,0.006));
#1678=CARTESIAN_POINT('',(0.,0.,0.));
#1679=CARTESIAN_POINT('',(-0.110340299395146,-0.0231204538916123,0.013));
#1680=CARTESIAN_POINT('',(-0.110340299395146,-0.0231204538916123,0.013));
#1681=CARTESIAN_POINT('',(-0.110340299395146,-0.0231204538916123,0.0205));
#1682=CARTESIAN_POINT('',(-0.105340299395146,-0.0231204538916123,0.013));
#1683=CARTESIAN_POINT('',(-0.105340299395146,-0.0231204538916123,0.0205));
#1684=CARTESIAN_POINT('',(-0.110340299395146,-0.0131204538916123,0.013));
#1685=CARTESIAN_POINT('',(-0.105340299395146,-0.0131204538916123,0.013));
#1686=CARTESIAN_POINT('',(0.,0.,0.));
#1687=CARTESIAN_POINT('',(-0.110340299395146,-0.00312045389161229,0.013));
#1688=CARTESIAN_POINT('',(-0.110340299395146,-0.00312045389161229,0.013));
#1689=CARTESIAN_POINT('',(-0.110340299395146,-0.00312045389161229,0.0205));
#1690=CARTESIAN_POINT('',(-0.105340299395146,-0.00312045389161229,0.013));
#1691=CARTESIAN_POINT('',(-0.105340299395146,-0.00312045389161229,0.0205));
#1692=CARTESIAN_POINT('',(-0.110340299395146,-0.0131204538916123,0.013));
#1693=CARTESIAN_POINT('',(-0.105340299395146,-0.0131204538916123,0.013));
#1694=CARTESIAN_POINT('',(0.,0.,0.));
#1695=CARTESIAN_POINT('',(0.092192783176899,0.024110089212656,-0.029));
#1696=CARTESIAN_POINT('',(0.092192783176899,0.024110089212656,-0.029));
#1697=CARTESIAN_POINT('',(0.095192783176899,0.024110089212656,-0.029));
#1698=CARTESIAN_POINT('',(0.092192783176899,0.024110089212656,0.006));
#1699=CARTESIAN_POINT('',(0.095192783176899,0.024110089212656,0.006));
#1700=CARTESIAN_POINT('',(0.,0.,0.));
#1701=CARTESIAN_POINT('',(-0.0920238338112831,0.024110089212656,-0.029));
#1702=CARTESIAN_POINT('',(-0.0920238338112831,0.024110089212656,-0.029));
#1703=CARTESIAN_POINT('',(-0.0890238338112831,0.024110089212656,-0.029));
#1704=CARTESIAN_POINT('',(-0.0920238338112831,0.024110089212656,0.006));
#1705=CARTESIAN_POINT('',(-0.0890238338112831,0.024110089212656,0.006));
#1706=MECHANICAL_DESIGN_GEOMETRIC_PRESENTATION_REPRESENTATION('',(#860,
#772,#773,#774,#775,#776,#777),#1720);
#1707=MECHANICAL_DESIGN_GEOMETRIC_PRESENTATION_REPRESENTATION('',(#861),
#1721);
#1708=MECHANICAL_DESIGN_GEOMETRIC_PRESENTATION_REPRESENTATION('',(#862),
#1722);
#1709=MECHANICAL_DESIGN_GEOMETRIC_PRESENTATION_REPRESENTATION('',(#863,
#778,#779,#780,#781,#782,#783),#1723);
#1710=MECHANICAL_DESIGN_GEOMETRIC_PRESENTATION_REPRESENTATION('',(#864),
#1724);
#1711=MECHANICAL_DESIGN_GEOMETRIC_PRESENTATION_REPRESENTATION('',(#865),
#1725);
#1712=MECHANICAL_DESIGN_GEOMETRIC_PRESENTATION_REPRESENTATION('',(#866),
#1726);
#1713=MECHANICAL_DESIGN_GEOMETRIC_PRESENTATION_REPRESENTATION('',(#867),
#1727);
#1714=MECHANICAL_DESIGN_GEOMETRIC_PRESENTATION_REPRESENTATION('',(#868,
#784,#785,#786,#787,#788,#789),#1728);
#1715=MECHANICAL_DESIGN_GEOMETRIC_PRESENTATION_REPRESENTATION('',(#869),
#1729);
#1716=MECHANICAL_DESIGN_GEOMETRIC_PRESENTATION_REPRESENTATION('',(#870),
#1730);
#1717=MECHANICAL_DESIGN_GEOMETRIC_PRESENTATION_REPRESENTATION('',(#871),
#1731);
#1718=MECHANICAL_DESIGN_GEOMETRIC_PRESENTATION_REPRESENTATION('',(#872,
#790),#1732);
#1719=MECHANICAL_DESIGN_GEOMETRIC_PRESENTATION_REPRESENTATION('',(#873,
#791),#1733);
#1720=(
GEOMETRIC_REPRESENTATION_CONTEXT(3)
GLOBAL_UNCERTAINTY_ASSIGNED_CONTEXT((#1734))
GLOBAL_UNIT_ASSIGNED_CONTEXT((#1776,#1762,#1748))
REPRESENTATION_CONTEXT('Part 5','TOP_LEVEL_ASSEMBLY_PART')
);
#1721=(
GEOMETRIC_REPRESENTATION_CONTEXT(3)
GLOBAL_UNCERTAINTY_ASSIGNED_CONTEXT((#1735))
GLOBAL_UNIT_ASSIGNED_CONTEXT((#1777,#1763,#1749))
REPRESENTATION_CONTEXT('Part 11','TOP_LEVEL_ASSEMBLY_PART')
);
#1722=(
GEOMETRIC_REPRESENTATION_CONTEXT(3)
GLOBAL_UNCERTAINTY_ASSIGNED_CONTEXT((#1736))
GLOBAL_UNIT_ASSIGNED_CONTEXT((#1778,#1764,#1750))
REPRESENTATION_CONTEXT('Part 2','TOP_LEVEL_ASSEMBLY_PART')
);
#1723=(
GEOMETRIC_REPRESENTATION_CONTEXT(3)
GLOBAL_UNCERTAINTY_ASSIGNED_CONTEXT((#1737))
GLOBAL_UNIT_ASSIGNED_CONTEXT((#1779,#1765,#1751))
REPRESENTATION_CONTEXT('Part 10','TOP_LEVEL_ASSEMBLY_PART')
);
#1724=(
GEOMETRIC_REPRESENTATION_CONTEXT(3)
GLOBAL_UNCERTAINTY_ASSIGNED_CONTEXT((#1738))
GLOBAL_UNIT_ASSIGNED_CONTEXT((#1780,#1766,#1752))
REPRESENTATION_CONTEXT('Part 3','TOP_LEVEL_ASSEMBLY_PART')
);
#1725=(
GEOMETRIC_REPRESENTATION_CONTEXT(3)
GLOBAL_UNCERTAINTY_ASSIGNED_CONTEXT((#1739))
GLOBAL_UNIT_ASSIGNED_CONTEXT((#1781,#1767,#1753))
REPRESENTATION_CONTEXT('Part 1','TOP_LEVEL_ASSEMBLY_PART')
);
#1726=(
GEOMETRIC_REPRESENTATION_CONTEXT(3)
GLOBAL_UNCERTAINTY_ASSIGNED_CONTEXT((#1740))
GLOBAL_UNIT_ASSIGNED_CONTEXT((#1782,#1768,#1754))
REPRESENTATION_CONTEXT('Part 9','TOP_LEVEL_ASSEMBLY_PART')
);
#1727=(
GEOMETRIC_REPRESENTATION_CONTEXT(3)
GLOBAL_UNCERTAINTY_ASSIGNED_CONTEXT((#1741))
GLOBAL_UNIT_ASSIGNED_CONTEXT((#1783,#1769,#1755))
REPRESENTATION_CONTEXT('Part 4','TOP_LEVEL_ASSEMBLY_PART')
);
#1728=(
GEOMETRIC_REPRESENTATION_CONTEXT(3)
GLOBAL_UNCERTAINTY_ASSIGNED_CONTEXT((#1742))
GLOBAL_UNIT_ASSIGNED_CONTEXT((#1784,#1770,#1756))
REPRESENTATION_CONTEXT('Part 8','TOP_LEVEL_ASSEMBLY_PART')
);
#1729=(
GEOMETRIC_REPRESENTATION_CONTEXT(3)
GLOBAL_UNCERTAINTY_ASSIGNED_CONTEXT((#1743))
GLOBAL_UNIT_ASSIGNED_CONTEXT((#1785,#1771,#1757))
REPRESENTATION_CONTEXT('Surface 3','TOP_LEVEL_ASSEMBLY_PART')
);
#1730=(
GEOMETRIC_REPRESENTATION_CONTEXT(3)
GLOBAL_UNCERTAINTY_ASSIGNED_CONTEXT((#1744))
GLOBAL_UNIT_ASSIGNED_CONTEXT((#1786,#1772,#1758))
REPRESENTATION_CONTEXT('Part 7','TOP_LEVEL_ASSEMBLY_PART')
);
#1731=(
GEOMETRIC_REPRESENTATION_CONTEXT(3)
GLOBAL_UNCERTAINTY_ASSIGNED_CONTEXT((#1745))
GLOBAL_UNIT_ASSIGNED_CONTEXT((#1787,#1773,#1759))
REPRESENTATION_CONTEXT('Part 6','TOP_LEVEL_ASSEMBLY_PART')
);
#1732=(
GEOMETRIC_REPRESENTATION_CONTEXT(3)
GLOBAL_UNCERTAINTY_ASSIGNED_CONTEXT((#1746))
GLOBAL_UNIT_ASSIGNED_CONTEXT((#1788,#1774,#1760))
REPRESENTATION_CONTEXT('Surface 2','TOP_LEVEL_ASSEMBLY_PART')
);
#1733=(
GEOMETRIC_REPRESENTATION_CONTEXT(3)
GLOBAL_UNCERTAINTY_ASSIGNED_CONTEXT((#1747))
GLOBAL_UNIT_ASSIGNED_CONTEXT((#1789,#1775,#1761))
REPRESENTATION_CONTEXT('Surface 1','TOP_LEVEL_ASSEMBLY_PART')
);
#1734=UNCERTAINTY_MEASURE_WITH_UNIT(LENGTH_MEASURE(1.E-8),#1776,
'DISTANCE_ACCURACY_VALUE','Maximum Tolerance applied to model');
#1735=UNCERTAINTY_MEASURE_WITH_UNIT(LENGTH_MEASURE(1.E-8),#1777,
'DISTANCE_ACCURACY_VALUE','Maximum Tolerance applied to model');
#1736=UNCERTAINTY_MEASURE_WITH_UNIT(LENGTH_MEASURE(1.E-8),#1778,
'DISTANCE_ACCURACY_VALUE','Maximum Tolerance applied to model');
#1737=UNCERTAINTY_MEASURE_WITH_UNIT(LENGTH_MEASURE(1.E-8),#1779,
'DISTANCE_ACCURACY_VALUE','Maximum Tolerance applied to model');
#1738=UNCERTAINTY_MEASURE_WITH_UNIT(LENGTH_MEASURE(1.E-8),#1780,
'DISTANCE_ACCURACY_VALUE','Maximum Tolerance applied to model');
#1739=UNCERTAINTY_MEASURE_WITH_UNIT(LENGTH_MEASURE(1.E-8),#1781,
'DISTANCE_ACCURACY_VALUE','Maximum Tolerance applied to model');
#1740=UNCERTAINTY_MEASURE_WITH_UNIT(LENGTH_MEASURE(1.E-8),#1782,
'DISTANCE_ACCURACY_VALUE','Maximum Tolerance applied to model');
#1741=UNCERTAINTY_MEASURE_WITH_UNIT(LENGTH_MEASURE(1.E-8),#1783,
'DISTANCE_ACCURACY_VALUE','Maximum Tolerance applied to model');
#1742=UNCERTAINTY_MEASURE_WITH_UNIT(LENGTH_MEASURE(1.E-8),#1784,
'DISTANCE_ACCURACY_VALUE','Maximum Tolerance applied to model');
#1743=UNCERTAINTY_MEASURE_WITH_UNIT(LENGTH_MEASURE(1.E-8),#1785,
'DISTANCE_ACCURACY_VALUE','Maximum Tolerance applied to model');
#1744=UNCERTAINTY_MEASURE_WITH_UNIT(LENGTH_MEASURE(1.E-8),#1786,
'DISTANCE_ACCURACY_VALUE','Maximum Tolerance applied to model');
#1745=UNCERTAINTY_MEASURE_WITH_UNIT(LENGTH_MEASURE(1.E-8),#1787,
'DISTANCE_ACCURACY_VALUE','Maximum Tolerance applied to model');
#1746=UNCERTAINTY_MEASURE_WITH_UNIT(LENGTH_MEASURE(1.E-8),#1788,
'DISTANCE_ACCURACY_VALUE','Maximum Tolerance applied to model');
#1747=UNCERTAINTY_MEASURE_WITH_UNIT(LENGTH_MEASURE(1.E-8),#1789,
'DISTANCE_ACCURACY_VALUE','Maximum Tolerance applied to model');
#1748=(
NAMED_UNIT(*)
SI_UNIT($,.STERADIAN.)
SOLID_ANGLE_UNIT()
);
#1749=(
NAMED_UNIT(*)
SI_UNIT($,.STERADIAN.)
SOLID_ANGLE_UNIT()
);
#1750=(
NAMED_UNIT(*)
SI_UNIT($,.STERADIAN.)
SOLID_ANGLE_UNIT()
);
#1751=(
NAMED_UNIT(*)
SI_UNIT($,.STERADIAN.)
SOLID_ANGLE_UNIT()
);
#1752=(
NAMED_UNIT(*)
SI_UNIT($,.STERADIAN.)
SOLID_ANGLE_UNIT()
);
#1753=(
NAMED_UNIT(*)
SI_UNIT($,.STERADIAN.)
SOLID_ANGLE_UNIT()
);
#1754=(
NAMED_UNIT(*)
SI_UNIT($,.STERADIAN.)
SOLID_ANGLE_UNIT()
);
#1755=(
NAMED_UNIT(*)
SI_UNIT($,.STERADIAN.)
SOLID_ANGLE_UNIT()
);
#1756=(
NAMED_UNIT(*)
SI_UNIT($,.STERADIAN.)
SOLID_ANGLE_UNIT()
);
#1757=(
NAMED_UNIT(*)
SI_UNIT($,.STERADIAN.)
SOLID_ANGLE_UNIT()
);
#1758=(
NAMED_UNIT(*)
SI_UNIT($,.STERADIAN.)
SOLID_ANGLE_UNIT()
);
#1759=(
NAMED_UNIT(*)
SI_UNIT($,.STERADIAN.)
SOLID_ANGLE_UNIT()
);
#1760=(
NAMED_UNIT(*)
SI_UNIT($,.STERADIAN.)
SOLID_ANGLE_UNIT()
);
#1761=(
NAMED_UNIT(*)
SI_UNIT($,.STERADIAN.)
SOLID_ANGLE_UNIT()
);
#1762=(
NAMED_UNIT(*)
PLANE_ANGLE_UNIT()
SI_UNIT($,.RADIAN.)
);
#1763=(
NAMED_UNIT(*)
PLANE_ANGLE_UNIT()
SI_UNIT($,.RADIAN.)
);
#1764=(
NAMED_UNIT(*)
PLANE_ANGLE_UNIT()
SI_UNIT($,.RADIAN.)
);
#1765=(
NAMED_UNIT(*)
PLANE_ANGLE_UNIT()
SI_UNIT($,.RADIAN.)
);
#1766=(
NAMED_UNIT(*)
PLANE_ANGLE_UNIT()
SI_UNIT($,.RADIAN.)
);
#1767=(
NAMED_UNIT(*)
PLANE_ANGLE_UNIT()
SI_UNIT($,.RADIAN.)
);
#1768=(
NAMED_UNIT(*)
PLANE_ANGLE_UNIT()
SI_UNIT($,.RADIAN.)
);
#1769=(
NAMED_UNIT(*)
PLANE_ANGLE_UNIT()
SI_UNIT($,.RADIAN.)
);
#1770=(
NAMED_UNIT(*)
PLANE_ANGLE_UNIT()
SI_UNIT($,.RADIAN.)
);
#1771=(
NAMED_UNIT(*)
PLANE_ANGLE_UNIT()
SI_UNIT($,.RADIAN.)
);
#1772=(
NAMED_UNIT(*)
PLANE_ANGLE_UNIT()
SI_UNIT($,.RADIAN.)
);
#1773=(
NAMED_UNIT(*)
PLANE_ANGLE_UNIT()
SI_UNIT($,.RADIAN.)
);
#1774=(
NAMED_UNIT(*)
PLANE_ANGLE_UNIT()
SI_UNIT($,.RADIAN.)
);
#1775=(
NAMED_UNIT(*)
PLANE_ANGLE_UNIT()
SI_UNIT($,.RADIAN.)
);
#1776=(
LENGTH_UNIT()
NAMED_UNIT(*)
SI_UNIT($,.METRE.)
);
#1777=(
LENGTH_UNIT()
NAMED_UNIT(*)
SI_UNIT($,.METRE.)
);
#1778=(
LENGTH_UNIT()
NAMED_UNIT(*)
SI_UNIT($,.METRE.)
);
#1779=(
LENGTH_UNIT()
NAMED_UNIT(*)
SI_UNIT($,.METRE.)
);
#1780=(
LENGTH_UNIT()
NAMED_UNIT(*)
SI_UNIT($,.METRE.)
);
#1781=(
LENGTH_UNIT()
NAMED_UNIT(*)
SI_UNIT($,.METRE.)
);
#1782=(
LENGTH_UNIT()
NAMED_UNIT(*)
SI_UNIT($,.METRE.)
);
#1783=(
LENGTH_UNIT()
NAMED_UNIT(*)
SI_UNIT($,.METRE.)
);
#1784=(
LENGTH_UNIT()
NAMED_UNIT(*)
SI_UNIT($,.METRE.)
);
#1785=(
LENGTH_UNIT()
NAMED_UNIT(*)
SI_UNIT($,.METRE.)
);
#1786=(
LENGTH_UNIT()
NAMED_UNIT(*)
SI_UNIT($,.METRE.)
);
#1787=(
LENGTH_UNIT()
NAMED_UNIT(*)
SI_UNIT($,.METRE.)
);
#1788=(
LENGTH_UNIT()
NAMED_UNIT(*)
SI_UNIT($,.METRE.)
);
#1789=(
LENGTH_UNIT()
NAMED_UNIT(*)
SI_UNIT($,.METRE.)
);
#1790=PRODUCT_DEFINITION_SHAPE('','',#1804);
#1791=PRODUCT_DEFINITION_SHAPE('','',#1805);
#1792=PRODUCT_DEFINITION_SHAPE('','',#1806);
#1793=PRODUCT_DEFINITION_SHAPE('','',#1807);
#1794=PRODUCT_DEFINITION_SHAPE('','',#1808);
#1795=PRODUCT_DEFINITION_SHAPE('','',#1809);
#1796=PRODUCT_DEFINITION_SHAPE('','',#1810);
#1797=PRODUCT_DEFINITION_SHAPE('','',#1811);
#1798=PRODUCT_DEFINITION_SHAPE('','',#1812);
#1799=PRODUCT_DEFINITION_SHAPE('','',#1813);
#1800=PRODUCT_DEFINITION_SHAPE('','',#1814);
#1801=PRODUCT_DEFINITION_SHAPE('','',#1815);
#1802=PRODUCT_DEFINITION_SHAPE('','',#1816);
#1803=PRODUCT_DEFINITION_SHAPE('','',#1817);
#1804=PRODUCT_DEFINITION('','',#1832,#1818);
#1805=PRODUCT_DEFINITION('','',#1833,#1819);
#1806=PRODUCT_DEFINITION('','',#1834,#1820);
#1807=PRODUCT_DEFINITION('','',#1835,#1821);
#1808=PRODUCT_DEFINITION('','',#1836,#1822);
#1809=PRODUCT_DEFINITION('','',#1837,#1823);
#1810=PRODUCT_DEFINITION('','',#1838,#1824);
#1811=PRODUCT_DEFINITION('','',#1839,#1825);
#1812=PRODUCT_DEFINITION('','',#1840,#1826);
#1813=PRODUCT_DEFINITION('','',#1841,#1827);
#1814=PRODUCT_DEFINITION('','',#1842,#1828);
#1815=PRODUCT_DEFINITION('','',#1843,#1829);
#1816=PRODUCT_DEFINITION('','',#1844,#1830);
#1817=PRODUCT_DEFINITION('','',#1845,#1831);
#1818=PRODUCT_DEFINITION_CONTEXT('',#1916,'design');
#1819=PRODUCT_DEFINITION_CONTEXT('',#1917,'design');
#1820=PRODUCT_DEFINITION_CONTEXT('',#1918,'design');
#1821=PRODUCT_DEFINITION_CONTEXT('',#1919,'design');
#1822=PRODUCT_DEFINITION_CONTEXT('',#1920,'design');
#1823=PRODUCT_DEFINITION_CONTEXT('',#1921,'design');
#1824=PRODUCT_DEFINITION_CONTEXT('',#1922,'design');
#1825=PRODUCT_DEFINITION_CONTEXT('',#1923,'design');
#1826=PRODUCT_DEFINITION_CONTEXT('',#1924,'design');
#1827=PRODUCT_DEFINITION_CONTEXT('',#1925,'design');
#1828=PRODUCT_DEFINITION_CONTEXT('',#1926,'design');
#1829=PRODUCT_DEFINITION_CONTEXT('',#1927,'design');
#1830=PRODUCT_DEFINITION_CONTEXT('',#1928,'design');
#1831=PRODUCT_DEFINITION_CONTEXT('',#1929,'design');
#1832=PRODUCT_DEFINITION_FORMATION_WITH_SPECIFIED_SOURCE('','',#1860,
 .NOT_KNOWN.);
#1833=PRODUCT_DEFINITION_FORMATION_WITH_SPECIFIED_SOURCE('','',#1861,
 .NOT_KNOWN.);
#1834=PRODUCT_DEFINITION_FORMATION_WITH_SPECIFIED_SOURCE('','',#1862,
 .NOT_KNOWN.);
#1835=PRODUCT_DEFINITION_FORMATION_WITH_SPECIFIED_SOURCE('','',#1863,
 .NOT_KNOWN.);
#1836=PRODUCT_DEFINITION_FORMATION_WITH_SPECIFIED_SOURCE('','',#1864,
 .NOT_KNOWN.);
#1837=PRODUCT_DEFINITION_FORMATION_WITH_SPECIFIED_SOURCE('','',#1865,
 .NOT_KNOWN.);
#1838=PRODUCT_DEFINITION_FORMATION_WITH_SPECIFIED_SOURCE('','',#1866,
 .NOT_KNOWN.);
#1839=PRODUCT_DEFINITION_FORMATION_WITH_SPECIFIED_SOURCE('','',#1867,
 .NOT_KNOWN.);
#1840=PRODUCT_DEFINITION_FORMATION_WITH_SPECIFIED_SOURCE('','',#1868,
 .NOT_KNOWN.);
#1841=PRODUCT_DEFINITION_FORMATION_WITH_SPECIFIED_SOURCE('','',#1869,
 .NOT_KNOWN.);
#1842=PRODUCT_DEFINITION_FORMATION_WITH_SPECIFIED_SOURCE('','',#1870,
 .NOT_KNOWN.);
#1843=PRODUCT_DEFINITION_FORMATION_WITH_SPECIFIED_SOURCE('','',#1871,
 .NOT_KNOWN.);
#1844=PRODUCT_DEFINITION_FORMATION_WITH_SPECIFIED_SOURCE('','',#1872,
 .NOT_KNOWN.);
#1845=PRODUCT_DEFINITION_FORMATION_WITH_SPECIFIED_SOURCE('','',#1873,
 .NOT_KNOWN.);
#1846=PRODUCT_RELATED_PRODUCT_CATEGORY('','',(#1860));
#1847=PRODUCT_RELATED_PRODUCT_CATEGORY('','',(#1861));
#1848=PRODUCT_RELATED_PRODUCT_CATEGORY('','',(#1862));
#1849=PRODUCT_RELATED_PRODUCT_CATEGORY('','',(#1863));
#1850=PRODUCT_RELATED_PRODUCT_CATEGORY('','',(#1864));
#1851=PRODUCT_RELATED_PRODUCT_CATEGORY('','',(#1865));
#1852=PRODUCT_RELATED_PRODUCT_CATEGORY('','',(#1866));
#1853=PRODUCT_RELATED_PRODUCT_CATEGORY('','',(#1867));
#1854=PRODUCT_RELATED_PRODUCT_CATEGORY('','',(#1868));
#1855=PRODUCT_RELATED_PRODUCT_CATEGORY('','',(#1869));
#1856=PRODUCT_RELATED_PRODUCT_CATEGORY('','',(#1870));
#1857=PRODUCT_RELATED_PRODUCT_CATEGORY('','',(#1871));
#1858=PRODUCT_RELATED_PRODUCT_CATEGORY('','',(#1872));
#1859=PRODUCT_RELATED_PRODUCT_CATEGORY('','',(#1873));
#1860=PRODUCT('Part 5','Part 5','Part 5',(#1888));
#1861=PRODUCT('Part 11','Part 11','Part 11',(#1889));
#1862=PRODUCT('Part 2','Part 2','Part 2',(#1890));
#1863=PRODUCT('Part 10','Part 10','Part 10',(#1891));
#1864=PRODUCT('Part 3','Part 3','Part 3',(#1892));
#1865=PRODUCT('Part 1','Part 1','Part 1',(#1893));
#1866=PRODUCT('Part 9','Part 9','Part 9',(#1894));
#1867=PRODUCT('Part 4','Part 4','Part 4',(#1895));
#1868=PRODUCT('Part 8','Part 8','Part 8',(#1896));
#1869=PRODUCT('Surface 3','Surface 3','Surface 3',(#1897));
#1870=PRODUCT('Part 7','Part 7','Part 7',(#1898));
#1871=PRODUCT('Part 6','Part 6','Part 6',(#1899));
#1872=PRODUCT('Surface 2','Surface 2','Surface 2',(#1900));
#1873=PRODUCT('Surface 1','Surface 1','Surface 1',(#1901));
#1874=PRODUCT_CATEGORY('','');
#1875=PRODUCT_CATEGORY('','');
#1876=PRODUCT_CATEGORY('','');
#1877=PRODUCT_CATEGORY('','');
#1878=PRODUCT_CATEGORY('','');
#1879=PRODUCT_CATEGORY('','');
#1880=PRODUCT_CATEGORY('','');
#1881=PRODUCT_CATEGORY('','');
#1882=PRODUCT_CATEGORY('','');
#1883=PRODUCT_CATEGORY('','');
#1884=PRODUCT_CATEGORY('','');
#1885=PRODUCT_CATEGORY('','');
#1886=PRODUCT_CATEGORY('','');
#1887=PRODUCT_CATEGORY('','');
#1888=PRODUCT_CONTEXT('',#1916,'mechanical');
#1889=PRODUCT_CONTEXT('',#1917,'mechanical');
#1890=PRODUCT_CONTEXT('',#1918,'mechanical');
#1891=PRODUCT_CONTEXT('',#1919,'mechanical');
#1892=PRODUCT_CONTEXT('',#1920,'mechanical');
#1893=PRODUCT_CONTEXT('',#1921,'mechanical');
#1894=PRODUCT_CONTEXT('',#1922,'mechanical');
#1895=PRODUCT_CONTEXT('',#1923,'mechanical');
#1896=PRODUCT_CONTEXT('',#1924,'mechanical');
#1897=PRODUCT_CONTEXT('',#1925,'mechanical');
#1898=PRODUCT_CONTEXT('',#1926,'mechanical');
#1899=PRODUCT_CONTEXT('',#1927,'mechanical');
#1900=PRODUCT_CONTEXT('',#1928,'mechanical');
#1901=PRODUCT_CONTEXT('',#1929,'mechanical');
#1902=APPLICATION_PROTOCOL_DEFINITION('international standard',
'ap242_managed_model_based_3d_engineering',2020,#1916);
#1903=APPLICATION_PROTOCOL_DEFINITION('international standard',
'ap242_managed_model_based_3d_engineering',2020,#1917);
#1904=APPLICATION_PROTOCOL_DEFINITION('international standard',
'ap242_managed_model_based_3d_engineering',2020,#1918);
#1905=APPLICATION_PROTOCOL_DEFINITION('international standard',
'ap242_managed_model_based_3d_engineering',2020,#1919);
#1906=APPLICATION_PROTOCOL_DEFINITION('international standard',
'ap242_managed_model_based_3d_engineering',2020,#1920);
#1907=APPLICATION_PROTOCOL_DEFINITION('international standard',
'ap242_managed_model_based_3d_engineering',2020,#1921);
#1908=APPLICATION_PROTOCOL_DEFINITION('international standard',
'ap242_managed_model_based_3d_engineering',2020,#1922);
#1909=APPLICATION_PROTOCOL_DEFINITION('international standard',
'ap242_managed_model_based_3d_engineering',2020,#1923);
#1910=APPLICATION_PROTOCOL_DEFINITION('international standard',
'ap242_managed_model_based_3d_engineering',2020,#1924);
#1911=APPLICATION_PROTOCOL_DEFINITION('international standard',
'ap242_managed_model_based_3d_engineering',2020,#1925);
#1912=APPLICATION_PROTOCOL_DEFINITION('international standard',
'ap242_managed_model_based_3d_engineering',2020,#1926);
#1913=APPLICATION_PROTOCOL_DEFINITION('international standard',
'ap242_managed_model_based_3d_engineering',2020,#1927);
#1914=APPLICATION_PROTOCOL_DEFINITION('international standard',
'ap242_managed_model_based_3d_engineering',2020,#1928);
#1915=APPLICATION_PROTOCOL_DEFINITION('international standard',
'ap242_managed_model_based_3d_engineering',2020,#1929);
#1916=APPLICATION_CONTEXT('managed model based 3d engineering');
#1917=APPLICATION_CONTEXT('managed model based 3d engineering');
#1918=APPLICATION_CONTEXT('managed model based 3d engineering');
#1919=APPLICATION_CONTEXT('managed model based 3d engineering');
#1920=APPLICATION_CONTEXT('managed model based 3d engineering');
#1921=APPLICATION_CONTEXT('managed model based 3d engineering');
#1922=APPLICATION_CONTEXT('managed model based 3d engineering');
#1923=APPLICATION_CONTEXT('managed model based 3d engineering');
#1924=APPLICATION_CONTEXT('managed model based 3d engineering');
#1925=APPLICATION_CONTEXT('managed model based 3d engineering');
#1926=APPLICATION_CONTEXT('managed model based 3d engineering');
#1927=APPLICATION_CONTEXT('managed model based 3d engineering');
#1928=APPLICATION_CONTEXT('managed model based 3d engineering');
#1929=APPLICATION_CONTEXT('managed model based 3d engineering');
ENDSEC;
END-ISO-10303-21;
